<svg width="1297" height="974" viewBox="0 0 1297 974" fill="none" xmlns="http://www.w3.org/2000/svg">
<path fill-rule="evenodd" clip-rule="evenodd" d="M961.372 333.584C979.527 346.496 1000.35 355.316 1019.32 366.945C1024.07 369.855 1038.86 375.899 1038.72 381.297C1038.64 384.454 1034.19 388.412 1032.24 390.6C1028.91 394.347 1025.77 398.134 1022.69 402.099C1008.61 420.254 995.34 438.58 980.072 455.822C977.774 458.416 970.849 470.8 968.614 464.649C967.6 461.86 968.435 458.727 965.794 456.127C964.435 454.787 959.182 454.049 960.712 451.177C961.732 451.636 962.753 452.096 963.774 452.554C962.981 450.259 963.039 447.744 961.851 445.574C961.113 444.226 959.67 443.588 959.17 442.07C958.478 439.972 959.651 437.535 959.455 435.372C959.261 433.216 958.145 431.178 957.479 429.144C953.528 417.086 952.111 404.93 950.088 392.488C948.087 380.178 944.97 368.252 943.746 355.805C942.453 342.657 940.869 329.536 938.755 316.493C942.528 317.024 945.428 321.129 948.097 323.45C952.292 327.097 956.847 330.365 961.372 333.584ZM947.141 460.872C946.274 460.191 945.597 459.354 945.108 458.363C954.006 453.949 948.637 461.479 947.141 460.872ZM941.73 451.46C937.852 452.53 935.065 452.747 932.075 451.149C931.791 450.998 932.118 449.83 931.606 449.59C931.159 449.382 930.476 449.64 930.094 449.444C928.792 448.781 926.512 450.235 926.29 447.696C931.24 446.179 936.107 443.38 941.333 442.908C948.596 442.254 948.26 449.656 941.73 451.46ZM924.737 436.824C919.445 438.063 915.086 440.957 909.463 440.202C904.185 439.494 899.599 436.753 895.436 433.595C905.851 430.643 916.773 430.11 927.179 427.254C930.567 426.325 935.019 423.873 938.671 424.861C942.728 425.959 942.984 429.764 944.2 433.226C937.707 434.396 931.165 435.32 924.737 436.824ZM891.64 422.133C886.555 423.349 881.359 426.009 877.108 421.419C876.421 420.678 875.821 421.418 875.902 419.136C875.987 416.73 878.168 415.181 880.044 414.333C884.454 412.342 890.636 413.63 895.32 413.337C902.792 412.871 910.397 411.316 917.787 410.119C922.904 409.291 928.19 407.452 933.42 407.815C937.458 408.095 942.329 411.541 936.444 414.054C931.085 416.345 923.05 415.994 917.244 416.985C908.661 418.451 900.109 420.107 891.64 422.133ZM886.673 398.184C887.003 398.52 887.332 398.856 887.661 399.192C887.607 399.179 889.611 397.555 890.141 397.508C892.719 397.283 895.311 397.461 897.893 397.315C903.841 396.979 909.836 395.942 915.677 394.799C920.436 393.868 925.283 392.264 930.181 392.666C934.422 393.013 934.867 393.883 935.145 397.981C924.32 397.981 913.171 397.753 902.532 400.047C895.607 401.54 887.974 405.986 884.505 397.971C885.228 398.042 885.95 398.113 886.673 398.184ZM893.441 380.836C896.125 382.883 903.442 379.479 906.659 379.139C910.152 378.769 913.439 378.384 916.825 377.513C919.827 376.739 929.758 372.876 932.061 376.571C935.591 382.231 921.297 383.269 919.031 383.55C909.528 384.725 899.667 385.768 890.42 388.264C891.427 385.788 892.434 383.313 893.441 380.836ZM906.477 361.611C907.171 364.227 928.662 354.586 929.054 361.593C929.355 366.969 907.79 369.647 903.913 369.176C904.821 366.7 907.237 364.483 906.477 361.611ZM913.692 345.166C914.15 339.888 914.856 339.919 919.083 339.422C922.307 339.043 926.737 337.15 925.899 342.903C925.181 347.829 913.233 350.491 913.692 345.166ZM921.374 327.008C922.391 324.175 924.68 327.989 924.728 329.429C924.856 333.263 921.953 332.434 919.159 332.434C919.937 330.643 920.676 328.832 921.374 327.008ZM956.747 305.741C956.177 305.054 952.977 304.791 952.067 304.458C949.827 303.636 950.145 301.885 947.28 303.612C947.137 303.467 947.409 302.169 947.254 302.109C947.175 302.079 945.167 301.32 944.515 300.902C942.941 299.892 941.522 298.904 940.076 297.637C938.538 296.292 936.998 294.339 935.241 293.267C934.5 292.816 933.895 292.175 933.002 292.037C930.685 291.679 931.349 293.295 929.324 293.616C928.076 293.814 927.168 292.355 925.536 292.984C924.127 293.527 923.308 295.507 922.68 296.685C920.397 300.973 918.635 305.588 916.399 309.921C904.967 332.081 891.973 353.4 880.899 375.767C875.565 386.542 870 397.391 866.246 408.842C863.539 417.101 857.426 429.165 862.685 437.418C866.509 443.418 874.166 446.009 880.274 448.908C889.466 453.271 897.94 458.973 907.233 463.202C918.314 468.246 929.075 473.522 939.877 479.154C944.484 481.556 948.64 485.016 953.232 487.291C956.04 488.682 960.377 486.308 961.291 489.498C964.811 485.229 970.508 488.075 974.581 485.069C976.976 483.301 978.726 479.819 980.723 477.641C983.72 474.377 986.973 471.348 990.03 468.141C1002.17 455.401 1013.37 442.133 1024.41 428.45C1034.96 415.384 1047.28 403.039 1056.19 388.736C1059.72 383.058 1060.36 377.103 1058.03 370.831C1056.33 366.255 1052.22 359.346 1046.35 362.375C1048.58 358.677 1040 354.728 1037.4 354.005C1037.36 353.995 1036.84 356.836 1036.12 356.765C1036.38 356.79 1033.94 350.471 1032.86 349.66C1029.68 347.249 1025.81 344.436 1022.34 342.452C1019.16 340.632 1015.8 339.73 1012.71 337.693C1008.97 335.225 1005.54 332.298 1001.79 329.847C998.163 327.48 994.124 324.682 990.119 323.055C986.646 321.644 983.528 321.367 980.403 319.054C976.537 316.192 973.166 314.25 968.707 312.278C964.85 310.572 959.505 309.082 956.747 305.741Z" fill="#28282B"/>
<path fill-rule="evenodd" clip-rule="evenodd" d="M430.275 648.471C430.985 646.803 431.691 645.136 432.401 643.469C433.277 646.376 433.523 647.822 430.275 648.471ZM431.219 656.174C429.683 656.449 430.288 651.624 430.288 650.783C432.942 652.287 430.744 654.091 431.219 656.174ZM428.824 642.253C430.134 641.478 431.443 640.704 432.753 639.929C430.929 643.313 431.645 641.199 432.397 643.459C431.021 643.855 429.684 643.393 428.824 642.253ZM421.062 668.698C416.153 686.533 400.56 700.599 384.09 707.885C374.626 712.07 365.322 713.118 355.101 712.651C351.16 712.471 346.521 711.189 342.728 711.427C339.807 711.611 339.939 711.738 337.52 714.213C336.449 712.24 337.225 710.855 335.078 709.706C332.399 708.273 331.287 709.942 329.958 711.927C328.219 710.122 327.507 709.18 325.254 708.108C325.325 708.142 323.097 708.057 323.188 708.085C322.785 707.961 320.362 706.401 319.604 706.117C316.49 704.948 312.891 704.467 310.018 702.789C307.505 701.324 305.435 697.212 302.56 700.372C302.558 695.091 295.453 692.901 292.123 690.135C286.92 685.813 282.783 679.413 280.189 673.223C277.423 666.622 276.5 660.293 275.205 653.491C274.301 648.737 268.378 641.866 271.935 637.07C272.782 639.081 272.385 641.141 273.792 642.964C275.059 640.52 275.755 637.786 276.328 635.111C276.609 633.801 278.238 629.956 278.053 628.815C277.677 626.479 274.789 626.352 276.39 623.488C279.711 627.106 282.391 620.753 279.882 618.22C278.643 619.619 278.188 621.208 277.617 622.94C274.352 616.34 283.389 618.466 281.412 612.508C284.71 611.872 286.606 611.04 287.86 607.777C289.255 604.146 288.229 603.355 291.395 600.955C292.484 600.131 295.565 598.945 296.128 597.588C297.219 594.967 294.444 594.189 296.874 591.733C297.695 593.175 300.895 596.03 302.646 593.313C302.997 592.772 301.524 592.387 302.596 591.139C304.183 589.293 305.958 587.482 308.642 587.87C306.517 582.55 320.098 582.129 323.576 580.873C327.061 579.616 330.019 578.791 333.715 578.499C337.407 578.207 337.591 577.124 340.717 574.898C340.981 578.083 341.746 577.383 344.007 577.945C344.551 577.011 345.108 576.906 345.678 577.63C346.245 578.17 346.939 578.424 347.758 578.394C348.999 578.458 350.407 578.296 351.708 578.323C354.762 578.382 357.912 578.127 360.907 578.192C361.68 578.063 362.402 577.794 363.078 577.384C363.361 577.917 363.645 578.451 363.926 578.985C365.513 579.184 365.636 581.175 367.588 578.997C368.165 581.766 369.824 580.325 371.577 581.076C373.176 581.762 373.43 582.858 374.906 583.623C375.876 584.41 376.916 584.514 378.028 583.937C379.086 584.722 380.16 585.484 381.249 586.224C383.257 587.359 385.623 588.054 387.738 588.95C389.145 589.531 390.543 590.136 391.93 590.763C391.972 592.439 392.723 593.032 394.182 592.538C395.501 593.643 395.872 593.6 397.151 595.481C400.049 599.743 402.62 603.054 406.281 606.864C422.191 623.427 427.079 646.844 421.062 668.698ZM425.945 598.268C418.762 588.637 408.595 577.609 399.459 571.526C394.828 568.442 388.328 562.906 382.665 561.275C381.323 560.888 379.933 560.863 378.613 560.457C377.594 560.144 377.039 559.096 375.876 558.907C375.063 558.775 374.973 560.598 374.109 560.43C372.303 560.078 371.158 558.283 369.883 557.161C367.143 561.888 365.656 553.938 361.633 559.283C356.846 551.766 345.598 553.41 337.953 553.789C335.686 553.9 334.62 554.708 332.61 555.307C330.74 555.864 330.555 555.72 328.512 555.705C323.424 555.666 318.907 556.306 314.204 558.543C306.303 562.301 299.05 568.157 291.546 572.685C283.158 577.747 275.598 584.189 269.182 591.592C245.985 618.359 239.782 657.43 258.279 688.461C287.657 737.745 363.439 743.012 406.381 709.572C439.557 683.734 452.183 633.441 425.945 598.268Z" fill="#28282B"/>
<path fill-rule="evenodd" clip-rule="evenodd" d="M789.572 459.578C788.748 461.548 781.048 460.884 780.879 458.562C780.629 455.092 791.005 456.155 789.572 459.578ZM797.751 458.29C802.114 458.645 809.283 461.612 813.488 459.819C819.906 457.082 813.166 452.882 809.724 451.626C806.22 450.349 801.002 451.028 799.201 447.36C797.846 444.602 801.195 436.901 797.04 438.139C792.68 439.437 793.948 450.468 787.107 446.75C783.845 444.976 785.176 434.168 779.71 439.69C778.215 441.2 778.084 443.974 776.103 445.1C774.082 446.25 771.546 445.052 769.412 445.152C763.761 445.417 761.962 450.709 767.687 452.808C769.806 453.586 777.793 454.534 772.954 458.002C769.906 460.186 763.133 455.602 760.515 459.404C756.917 464.627 766.555 464.745 769.144 466.307C773.532 468.953 769.908 475.133 770.258 479.534C770.794 486.258 774.695 484.853 776.112 479.162C777.314 474.334 775.824 467.384 783.093 469.303C794.931 472.428 776.511 487.475 785.182 491.326C790.711 493.781 791.494 480.509 791.923 478.224C793.513 469.789 798.245 471.757 805.414 472.016C813.788 472.317 815.81 466.115 806.941 464.338C804.112 463.771 800.219 464.487 797.762 462.683C796.308 461.616 794.309 458.011 797.751 458.29Z" fill="#28282B"/>
<path fill-rule="evenodd" clip-rule="evenodd" d="M488.542 733.868C481.764 731.438 470.425 731.963 468.748 740.728C468.047 744.397 469.413 748.278 471.944 750.944C474.879 754.034 479.553 754.321 479.303 748.939C479.13 745.214 475.589 741.979 481.813 741.228C485.687 740.761 491.416 743.662 491.608 747.946C492.044 757.602 475.35 758.359 469.198 756.689C456.988 753.376 460.305 740.571 468.69 734.727C470.856 733.216 477.071 730.89 477.355 727.754C477.732 723.594 472.595 724.444 470.077 724.992C451.568 729.026 447.534 760.072 466.874 765.925C475.656 768.582 488.025 765.839 493.318 757.875C498.281 750.407 498.348 737.384 488.542 733.868Z" fill="#28282B"/>
<path fill-rule="evenodd" clip-rule="evenodd" d="M243.133 514.089C237.347 516.878 231.561 519.667 225.776 522.456C223.864 518.358 220.633 507.164 215.782 505.734C207.929 503.42 212.929 515.623 214.285 518.413C215.398 520.704 217.981 524.255 217.354 526.987C216.513 530.668 211.327 531.971 208.613 533.87C201.896 538.57 201.949 548.441 211.677 544.258C217.181 541.89 223.997 535.325 228.216 542.779C230.164 546.219 234.779 565.435 239.6 552.868C242.583 545.087 228.226 537.004 235.304 530.422C237.582 528.304 240.25 528.125 242.526 526.907C248.023 523.966 244.924 518.532 243.133 514.089Z" fill="#28282B"/>
<path fill-rule="evenodd" clip-rule="evenodd" d="M1091.36 235.663C1087.91 234.4 1083.64 231.933 1079.81 232.774C1075.73 233.667 1074.09 237.753 1071.13 240.209C1063.08 246.889 1058.39 236.934 1053.96 231.478C1049.78 226.326 1044.68 225.076 1038.78 228.241C1036.43 229.503 1026.54 235.285 1028.26 238.989C1029.5 241.655 1034.39 239.262 1036.06 238.68C1039.68 237.418 1043.05 236.313 1046.75 238.154C1053.7 241.603 1055.5 251.063 1063.9 252.538C1072.6 254.064 1072.88 245.782 1079.08 242.665C1083.24 240.576 1086.14 244.274 1090.15 243.537C1093.97 242.836 1095.74 237.266 1091.36 235.663Z" fill="#28282B"/>
<path fill-rule="evenodd" clip-rule="evenodd" d="M1021.19 269.039C1024.26 269.707 1026.27 263.738 1028.19 262.223C1031.39 259.714 1036.92 259.208 1040.17 261.734C1046.52 266.665 1044.33 277.31 1053.37 280.085C1061.44 282.566 1065.25 271.914 1072.05 269.262C1076 267.72 1080.34 266.71 1078.8 261.177C1077.73 257.351 1074.59 256.368 1071.18 257.838C1065.32 260.362 1063.33 270.643 1056.37 270.827C1049.18 271.017 1048.4 260.634 1045.31 256.112C1040.6 249.219 1030.93 247.554 1025.43 254.145C1023.77 256.133 1015.34 267.769 1021.19 269.039Z" fill="#28282B"/>
</svg>
