<svg width="1920" height="1080" viewBox="0 0 1920 1080" fill="none" xmlns="http://www.w3.org/2000/svg">
<path d="M575.12 1066.91L591.87 943.67L949.39 926.62L974.56 1067.27L575.12 1066.91Z" fill="#1A2E35"/>
<path d="M910.09 555.68L1017.36 674.68C1035.06 694.33 1047.84 712.21 1073.28 719.39C1091.1 724.39 1128.64 726.5 1138.12 714.79C1151.12 698.73 1159.19 670.96 1140.99 636.03C1129.14 613.29 1025.07 520.37 1025.07 520.37L910.07 555.67" fill="#FFBD66"/>
<path d="M945.42 575.57C946 581.45 974.08 640 974.08 640L1066.16 579.93C1066.16 579.93 1006.89 439.08 963.6 429.61L945.42 575.57Z" fill="#758AEC"/>
<path d="M1103.09 411.42L1104.39 366.68L1101.39 309.68L1092.34 262.29C1092.34 262.29 1089.96 257.64 1083.97 261.15C1077.98 264.66 1083.17 290.53 1083.17 290.53L1084.1 309.98C1084.1 309.98 1080.6 324.98 1079.47 323.73C1078.34 322.48 1074.59 296.21 1074.59 296.21L1063.73 239.83C1062.94 238.091 1061.51 236.72 1059.75 235.997C1057.98 235.274 1056 235.254 1054.22 235.94C1050.38 237.15 1047.86 242.75 1048.35 251.11C1048.84 259.47 1052.47 273.56 1052.85 278.31C1053.23 283.06 1056.36 310.47 1056.36 310.47L1037.36 247.41C1037.36 247.41 1033.84 226.89 1025.29 229.84C1016.74 232.79 1022.45 247.51 1022.83 253.84C1023.21 260.17 1035.59 303.13 1034.56 315.1C1033.53 327.07 1031.62 321.1 1031.62 321.1C1031.62 321.1 1026.62 301.34 1022.76 285.77C1018.9 270.2 1012.96 261.17 1006.21 260.03C999.46 258.89 1008.52 295.03 1008.52 295.03L1019.95 345.46L1017.11 361.52L1005.87 347.07C1005.87 347.07 1005.53 328.14 993.71 320.25C981.71 312.25 978.83 321.25 978.83 321.25L1000.88 394.51C1006.09 406.51 1039.88 429.78 1039.88 429.78L1045.88 503.25L1120.88 501.75L1103.09 411.42Z" fill="#FFBD66"/>
<path d="M1076.76 385C1076.38 385.36 1072.83 381.76 1066.76 376.58C1060.76 371.58 1051.25 364.7 1039.3 365.24C1034.35 365.31 1029.57 367.047 1025.73 370.17L1024.47 371.26L1023.38 369.82C1018.57 363.47 1013.38 357.94 1010.33 353.95C1007.28 349.96 1005.51 347.29 1005.87 347.08C1006.23 346.87 1008.13 349.08 1011.76 352.68C1015.33 356.46 1020.43 361.19 1026.02 368.19L1023.68 367.84C1027.99 364.122 1033.47 362.028 1039.16 361.92C1045.27 361.718 1051.33 363.176 1056.68 366.14C1060.94 368.5 1064.85 371.427 1068.32 374.84C1074.15 380.58 1077 384.71 1076.76 385Z" fill="#8E4132"/>
<path d="M1057.3 667.22L1041.39 438.61L1104.94 418.69L1151.08 667.22H1057.3Z" fill="#FFBD66"/>
<path d="M919.62 144.91C932.03 147.06 945.38 138.63 948.77 126.49C952.16 114.35 945.1 100.23 933.37 95.63C937.426 91.7818 940.212 86.7879 941.355 81.3149C942.499 75.8419 941.946 70.1504 939.77 65C937.395 59.9341 933.531 55.7133 928.694 52.9009C923.857 50.0884 918.278 48.8183 912.7 49.26C912.798 43.7225 911.458 38.2543 908.81 33.3902C906.161 28.526 902.296 24.4325 897.592 21.5098C892.887 18.5872 887.505 16.9356 881.971 16.7165C876.437 16.4975 870.941 17.7184 866.02 20.26C854.49 9.18 835 7.65 821.83 16.84C816.509 15.6486 810.949 16.1392 805.919 18.244C800.889 20.3489 796.637 23.964 793.75 28.59C791.052 33.3296 789.891 38.79 790.428 44.2174C790.966 49.6448 793.174 54.7716 796.75 58.89" fill="#161C1E"/>
<path d="M922.84 288.22C924.84 260.01 924.27 201.58 923.13 148.71C922.536 121.304 911.645 95.1268 892.623 75.3881C873.602 55.6495 847.845 43.7971 820.48 42.19L814.85 41.85C753.85 41.85 719.71 93.62 721.37 154.61L712 389.52L748.85 422.81C756.695 429.893 766.052 435.094 776.208 438.02C786.365 440.945 797.054 441.518 807.465 439.694C817.876 437.87 827.734 433.698 836.291 427.494C844.849 421.29 851.879 413.218 856.85 403.89L859.69 352.27C859.69 352.27 918.67 346.63 922.84 288.22Z" fill="#FFBD66"/>
<path d="M860.17 352.21C860.17 352.21 822.71 352.26 784.91 325.28C784.91 325.28 800.44 368.41 859.07 366.58L860.17 352.21Z" fill="#FF9E61"/>
<path d="M897.31 198C897.201 200.178 896.247 202.227 894.65 203.712C893.053 205.197 890.94 206 888.76 205.95C887.696 205.971 886.639 205.78 885.649 205.388C884.66 204.995 883.759 204.409 883 203.664C882.24 202.919 881.636 202.03 881.224 201.049C880.812 200.068 880.6 199.014 880.6 197.95C880.709 195.774 881.662 193.726 883.257 192.242C884.851 190.757 886.962 189.953 889.14 190C890.205 189.977 891.264 190.168 892.254 190.559C893.244 190.951 894.146 191.537 894.907 192.282C895.668 193.027 896.273 193.917 896.685 194.899C897.098 195.881 897.31 196.935 897.31 198Z" fill="#1A2E35"/>
<path d="M908.88 176.58C907.79 177.58 901.74 172.58 892.76 172.05C883.78 171.52 876.93 175.65 876.02 174.49C875.57 173.98 876.74 172.08 879.73 170.16C883.773 167.69 888.483 166.537 893.21 166.86C897.887 167.126 902.357 168.877 905.97 171.86C908.6 174.1 909.42 176.13 908.88 176.58Z" fill="#1A2E35"/>
<path d="M814.87 198C814.764 200.177 813.811 202.226 812.216 203.711C810.621 205.196 808.509 205.999 806.33 205.95C805.266 205.971 804.208 205.78 803.219 205.388C802.23 204.995 801.329 204.409 800.569 203.664C799.809 202.919 799.206 202.03 798.794 201.049C798.382 200.068 798.17 199.014 798.17 197.95C798.279 195.776 799.23 193.729 800.823 192.245C802.415 190.761 804.523 189.956 806.7 190C807.765 189.977 808.823 190.168 809.814 190.559C810.804 190.951 811.706 191.537 812.467 192.282C813.228 193.027 813.832 193.917 814.245 194.899C814.658 195.881 814.87 196.935 814.87 198Z" fill="#1A2E35"/>
<path d="M820.5 173.05C819.4 174.05 813.35 169.05 804.37 168.52C795.39 167.99 788.54 172.12 787.63 170.96C787.18 170.45 788.34 168.54 791.35 166.63C795.392 164.158 800.102 163.001 804.83 163.32C809.503 163.592 813.968 165.343 817.58 168.32C820.21 170.57 821 172.6 820.5 173.05Z" fill="#1A2E35"/>
<path d="M849.17 241.58C849.17 241.07 854.8 240.43 863.91 239.81C866.22 239.71 868.42 239.38 868.91 237.81C869.4 236.24 868.73 233.66 867.78 230.92L862 213.09C854 187.67 848.44 166.82 849.46 166.51C850.48 166.2 857.77 186.51 865.72 211.97C867.633 218.23 869.453 224.213 871.18 229.92C871.9 232.58 873.18 235.62 871.84 238.99C871.459 239.784 870.899 240.48 870.206 241.022C869.512 241.565 868.702 241.941 867.84 242.12C866.552 242.389 865.234 242.493 863.92 242.43C854.82 242.39 849.17 242.09 849.17 241.58Z" fill="#1A2E35"/>
<path d="M822.37 246.24C823.84 246.24 823.28 255.99 831.22 263.4C839.16 270.81 849.59 270.4 849.59 271.72C849.69 272.34 847.16 273.47 842.77 273.34C837.054 273.081 831.611 270.814 827.4 266.94C823.362 263.218 820.927 258.073 820.61 252.59C820.48 248.49 821.71 246.14 822.37 246.24Z" fill="#1A2E35"/>
<path d="M824.9 138C823.9 140.39 814.97 138.71 804.36 139.35C793.73 139.79 785.05 142.35 783.78 140.1C783.22 139.02 784.84 136.81 788.41 134.64C793.163 132.005 798.454 130.489 803.881 130.204C809.308 129.92 814.728 130.876 819.73 133C823.51 134.82 825.35 136.86 824.9 138Z" fill="#1A2E35"/>
<path d="M907.12 150.4C905.42 152.34 899.35 149.86 891.92 149.32C884.51 148.52 878.1 149.88 876.77 147.66C876.2 146.59 877.31 144.6 880.18 142.84C884.013 140.736 888.386 139.821 892.74 140.213C897.095 140.605 901.235 142.285 904.63 145.04C907.13 147.29 907.87 149.44 907.12 150.4Z" fill="#1A2E35"/>
<path d="M919.09 121.6C919.09 121.6 905.84 84.09 888.69 74.5C867.94 62.9 857.36 85.81 837.33 78.92C817.3 72.03 797.49 60.92 775.75 75.42C752 91.3 761.92 104 759 129.87C747.1 234.67 726.15 263.27 723.6 213.42C723.33 207.96 708.52 202.76 707.6 179.7C706.46 149.81 707.45 113.7 715.33 92.95C721.97 75.5 732.83 63.81 751.81 51.34C781.76 31.65 821.21 33.52 847.81 37.79C874.41 42.06 924.24 75.91 919.09 121.6Z" fill="#161C1E"/>
<path d="M727.4 212.05C727.456 209.901 727.075 207.763 726.281 205.765C725.487 203.768 724.295 201.952 722.779 200.428C721.263 198.904 719.453 197.704 717.459 196.9C715.466 196.096 713.329 195.705 711.18 195.75C700.18 196.15 687.72 201.62 687.11 224.19C686.03 264.19 726.45 257.05 726.55 255.9C726.61 255.12 727.1 228.81 727.4 212.05Z" fill="#FFBD66"/>
<path d="M718.24 240.6C718.07 240.47 717.53 241.07 716.34 241.6C714.665 242.273 712.795 242.273 711.12 241.6C706.93 239.93 703.55 233.12 703.55 225.9C703.546 222.465 704.307 219.073 705.78 215.97C707.08 213.07 709.03 211.08 711.17 210.76C711.974 210.569 712.819 210.664 713.56 211.029C714.301 211.394 714.892 212.006 715.23 212.76C715.74 213.9 715.46 214.69 715.67 214.76C715.88 214.83 716.55 214.11 716.27 212.45C716.073 211.452 715.54 210.553 714.76 209.9C713.684 209.039 712.311 208.636 710.94 208.78C707.84 208.91 704.94 211.67 703.48 214.78C701.686 218.201 700.752 222.007 700.76 225.87C700.76 233.94 704.76 241.61 710.47 243.43C711.536 243.772 712.666 243.87 713.775 243.718C714.884 243.566 715.945 243.167 716.88 242.55C718.14 241.57 718.38 240.68 718.24 240.6Z" fill="#8E4132"/>
<path d="M732.75 134.68C737.75 138.53 743 142.51 749.21 143.49C755.42 144.47 762.79 141.31 764.21 135.18C764.85 132.43 764.36 129.18 766.32 127.12C768.65 124.68 772.63 125.72 775.95 126.27C787.5 128.19 799.88 120.68 803.5 109.55C806.21 114.16 813.13 114.38 817.79 111.75C822.45 109.12 825.61 104.56 829.35 100.75C833.09 96.94 838.24 93.64 843.47 94.75C846.4 95.34 849.06 97.27 852.05 97.18C857.33 97.02 860.25 91.03 861.35 85.87C862.45 80.71 863.43 74.67 868.04 72.1C872.31 69.72 877.56 71.55 882.35 72.54C887.14 73.53 893.44 72.77 894.96 68.12C895.75 65.68 894.84 63.01 893.6 60.77C887.95 50.61 874.6 45.46 863.6 49.17C862.013 42.4167 858.464 36.2841 853.398 31.5449C848.332 26.8057 841.977 23.6719 835.133 22.5383C828.289 21.4048 821.263 22.3223 814.94 25.1752C808.616 28.0282 803.279 32.6888 799.6 38.57C795.583 34.4702 790.636 31.4006 785.179 29.622C779.722 27.8434 773.916 27.4082 768.255 28.3536C762.594 29.2989 757.244 31.5968 752.661 35.052C748.078 38.5071 744.397 43.0176 741.93 48.2C737.112 46.6189 731.934 46.4905 727.044 47.8308C722.153 49.1712 717.764 51.921 714.425 55.7377C711.086 59.5544 708.944 64.2692 708.266 69.2948C707.587 74.3204 708.402 79.4345 710.61 84C703.18 87.68 696.61 94.46 695.98 102.72C695.35 110.98 702.91 119.72 710.98 117.99C709.142 121.152 708.584 124.898 709.422 128.459C710.26 132.019 712.429 135.124 715.484 137.135C718.54 139.146 722.249 139.91 725.851 139.272C729.452 138.633 732.673 136.639 734.85 133.7" fill="#161C1E"/>
<path d="M865.9 61.05C865.944 61.2947 865.944 61.5453 865.9 61.79C865.82 62.26 865.75 62.99 865.52 63.91C864.821 66.5843 863.686 69.1251 862.16 71.43C859.748 75.0872 856.528 78.1423 852.75 80.36C847.752 83.3757 841.905 84.675 836.1 84.06L836.83 83.21C837.824 86.9239 837.303 90.8806 835.38 94.21C833.378 97.6939 830.878 100.867 827.96 103.63C826.54 105.236 824.951 106.685 823.22 107.95C821.26 109.136 819.038 109.823 816.75 109.95C814.372 110.152 811.982 109.768 809.787 108.832C807.592 107.896 805.66 106.436 804.16 104.58L805.68 104.24C804.886 108.364 803.234 112.275 800.833 115.72C798.432 119.165 795.334 122.068 791.74 124.24C787.781 126.828 783.091 128.066 778.37 127.77C773.75 127.45 769.53 125.84 765.61 124.17L766.7 123.76C764.343 128.472 760.843 132.519 756.52 135.53C752.4 138.42 747.05 139.95 742.37 138.53C738.224 137.383 734.506 135.046 731.674 131.807C728.843 128.569 727.023 124.572 726.44 120.31L727.32 120.78C722.984 122.778 718.087 123.205 713.47 121.99C710.025 121.139 706.831 119.484 704.15 117.16C702.47 115.698 701.055 113.955 699.97 112.01C699.59 111.338 699.292 110.623 699.08 109.88C699.29 109.73 700.23 113 704.58 116.64C707.24 118.793 710.361 120.303 713.7 121.05C718.088 122.1 722.702 121.62 726.78 119.69L727.55 119.3L727.66 120.16C728.279 124.119 730.029 127.814 732.699 130.802C735.369 133.789 738.845 135.942 742.71 137C746.95 138.26 751.65 136.89 755.55 134.16C759.617 131.289 762.909 127.455 765.13 123L765.49 122.28L766.22 122.59C770.09 124.22 774.16 125.74 778.43 126.02C782.797 126.289 787.134 125.135 790.79 122.73C794.186 120.685 797.117 117.951 799.392 114.704C801.667 111.458 803.237 107.77 804 103.88L804.36 102.01L805.52 103.54C806.851 105.172 808.559 106.455 810.496 107.281C812.433 108.107 814.541 108.45 816.64 108.28C818.662 108.192 820.631 107.605 822.37 106.57C823.997 105.398 825.495 104.057 826.84 102.57C829.669 99.9298 832.107 96.8993 834.08 93.57C835.863 90.5805 836.388 87.006 835.54 83.63L835.27 82.63L836.27 82.76C841.798 83.4124 847.389 82.2508 852.2 79.45C855.889 77.3632 859.064 74.4757 861.49 71C865.49 65.18 865.62 60.94 865.9 61.05Z" fill="#375A64"/>
<path d="M952.24 633.87L956.47 591.29L971.14 435.22C963.6 427.22 933.23 414.8 933.23 414.8L857.81 387.69C857.81 387.69 850.58 408.39 793.93 409.23C736 410.09 712 373.84 712 373.84C683 383.16 619.83 407.16 619.83 407.16L598.25 610.21L597.15 677.21L583.82 1018.58C583.82 1018.58 963.48 1002.45 969.17 1001.48L953.8 878.58L952.24 633.87Z" fill="#758AEC"/>
<path opacity="0.3" d="M843.28 533.66V613.55L886.75 649.02L932.07 613.87L934.56 535.88L843.28 533.66Z" fill="black"/>
<path opacity="0.3" d="M591.81 814.07L590.7 842.45C590.7 842.45 830.53 799 872.45 782.09C924.17 761.25 951.93 743.57 951.93 743.57L952.8 721.92L591.81 814.07Z" fill="black"/>
<path d="M611.62 424.23C611.62 424.23 555.39 432.86 543.81 501.81C536.34 546.27 513.75 742.09 544.65 794.71C580.4 855.58 903.2 753.46 903.2 753.46L914.2 674.66L665.48 690.48L634.24 524.42L611.62 424.23Z" fill="#FFBD66"/>
<path d="M521.74 655.79H673.37L631.89 402.88C631.89 402.88 545 420.49 533.6 511.29C522.12 602.9 521.74 655.79 521.74 655.79Z" fill="#758AEC"/>
<path d="M540.81 655.79C541.033 655.737 541.261 655.713 541.49 655.72L543.49 655.64L551.15 655.5L579.42 655.25L673.42 655.02L672.65 655.86C672.48 653.86 672.3 651.78 672.12 649.65C668.93 611.51 666.05 576.99 663.95 551.84C662.95 539.42 662.21 529.32 661.66 522.18C661.427 518.78 661.243 516.09 661.11 514.11C661.11 513.27 661.04 512.58 661.01 512.01C660.975 511.771 660.975 511.529 661.01 511.29C661.084 511.521 661.131 511.759 661.15 512C661.22 512.56 661.3 513.24 661.4 514.08C661.61 516.08 661.89 518.74 662.24 522.08C662.91 529.21 663.86 539.29 665.03 551.69C667.25 576.83 670.29 611.34 673.65 649.47C673.83 651.6 674.01 653.71 674.18 655.68L674.25 656.52H673.4L579.4 656.28L551.13 656.04L543.47 655.9L541.47 655.82C541.25 655.842 541.027 655.832 540.81 655.79Z" fill="#1A2E35"/>
<path d="M963.6 502.15C963.763 503.865 963.787 505.591 963.67 507.31C963.67 510.64 963.43 515.44 963.14 521.37C962.52 533.24 961.28 549.61 959.57 567.65C957.86 585.69 956.07 602 954.63 613.79C953.92 619.69 953.3 624.45 952.83 627.79C952.671 629.509 952.37 631.211 951.93 632.88C951.9 631.155 951.997 629.431 952.22 627.72C952.56 624.16 953 619.44 953.54 613.72C954.71 601.66 956.28 585.46 958.02 567.55C959.76 549.64 961.14 533.19 962.02 521.35C962.44 515.63 962.79 510.9 963.02 507.35C963.072 505.604 963.266 503.865 963.6 502.15Z" fill="#1A2E35"/>
<path d="M675.73 474.6C675.045 473.735 674.47 472.788 674.02 471.78C672.873 469.62 671.47 466.993 669.81 463.9C666.21 457.31 661.17 448.11 653.53 439.61C645.89 431.11 636.71 425.74 629.6 423.56C622.49 421.38 617.68 421.66 617.7 421.33C618.783 421.095 619.896 421.024 621 421.12C624.017 421.204 627.011 421.671 629.91 422.51C637.3 424.51 646.85 429.87 654.68 438.56C662.51 447.25 667.42 456.66 670.79 463.4C672.46 466.79 673.72 469.58 674.57 471.52C675.085 472.494 675.474 473.529 675.73 474.6Z" fill="#1A2E35"/>
<path opacity="0.3" d="M656.06 667.22C655.79 665.73 682.28 659.22 682.28 659.22L662.9 533.66L673.37 655.79H654L656.06 667.22Z" fill="black"/>
<path d="M1053.19 678.59L1048.51 743.14L1027.07 770.14L974.59 839.78L1038.15 843.92C1038.15 843.92 1112.7 825.4 1123.67 802.44C1134.64 779.48 1135.28 678.6 1135.28 678.6L1053.19 678.59Z" fill="#FFB45A"/>
<path d="M1367.26 463.6L1370.84 212.49C1373.14 152.75 1343.44 101.04 1283.65 100.39L1278.12 100.65C1251.3 101.914 1225.93 113.231 1207.07 132.348C1188.22 151.465 1177.25 176.982 1176.35 203.82C1174.64 255.63 1173.41 312.91 1175.07 340.59C1178.5 397.86 1236.24 404.05 1236.24 404.05C1236.33 405.81 1236.16 420.05 1235.92 437.16L1236.01 465.61L1367.26 463.6Z" fill="#FFBD66"/>
<path d="M1236.09 404.05C1236.09 404.05 1272.31 404.45 1309.65 378.44C1309.65 378.44 1293.44 421.17 1236.01 418.72L1236.09 404.05Z" fill="#FF9E61"/>
<path d="M1269.93 233.12C1271.18 233.48 1276.93 229.29 1286.29 227.12C1295.65 224.95 1303.2 225.91 1304.03 225.05C1304.44 224.65 1303.03 223.79 1299.69 223.3C1294.87 222.734 1289.98 223.038 1285.27 224.2C1280.69 225.203 1276.34 227.084 1272.47 229.74C1270 231.62 1269.32 233 1269.93 233.12Z" fill="#1A2E35"/>
<path d="M1279.16 250.84C1279.24 252.86 1280.1 254.769 1281.57 256.162C1283.03 257.555 1284.98 258.322 1287 258.3C1287.99 258.331 1288.97 258.163 1289.9 257.808C1290.82 257.453 1291.66 256.916 1292.37 256.231C1293.09 255.545 1293.66 254.724 1294.05 253.815C1294.44 252.907 1294.64 251.929 1294.65 250.94C1294.57 248.921 1293.71 247.012 1292.25 245.619C1290.79 244.225 1288.84 243.458 1286.82 243.48C1285.83 243.447 1284.84 243.612 1283.92 243.966C1282.99 244.32 1282.15 244.856 1281.44 245.543C1280.72 246.229 1280.15 247.051 1279.76 247.961C1279.37 248.871 1279.17 249.85 1279.16 250.84Z" fill="#1A2E35"/>
<path d="M1246.26 295.68C1246.26 295.17 1240.76 294.49 1231.84 293.77C1229.58 293.65 1227.43 293.3 1226.98 291.77C1226.37 290.17 1227.19 287.7 1228.16 285.03C1230.02 279.49 1231.97 273.677 1234 267.59C1242.07 242.77 1247.81 222.41 1246.81 222.09C1245.81 221.77 1238.44 241.63 1230.37 266.45C1228.43 272.57 1226.57 278.4 1224.81 283.98C1224.08 286.58 1222.81 289.55 1224.07 292.86C1224.43 293.638 1224.97 294.324 1225.63 294.865C1226.3 295.405 1227.08 295.787 1227.92 295.98C1229.18 296.257 1230.47 296.371 1231.76 296.32C1240.71 296.4 1246.25 296.18 1246.26 295.68Z" fill="#1A2E35"/>
<path d="M1276.93 193.79C1277.8 195.93 1285.51 194.53 1294.67 195.23C1303.85 195.75 1311.33 198.16 1312.45 196.14C1312.94 195.14 1311.57 193.14 1308.45 191.21C1304.41 188.771 1299.83 187.356 1295.11 187.09C1290.41 186.725 1285.7 187.526 1281.39 189.42C1278.15 191 1276.55 192.77 1276.93 193.79Z" fill="#1A2E35"/>
<path d="M1185.54 209.22C1186.54 210.97 1194.03 209.22 1203.09 209.22C1212.15 209.01 1219.63 210.52 1220.64 208.74C1221.08 207.89 1219.64 206.3 1216.5 204.84C1212.29 203.034 1207.75 202.164 1203.17 202.29C1198.55 202.305 1193.98 203.307 1189.77 205.23C1186.61 206.74 1185.12 208.38 1185.54 209.22Z" fill="#1A2E35"/>
<path d="M1368.14 256C1369.14 255.53 1409.24 242.88 1408.81 284.07C1408.38 325.26 1367.11 316.33 1367.05 315.14C1366.99 313.95 1368.14 256 1368.14 256Z" fill="#FFBD66"/>
<path d="M1379.8 299.62C1379.98 299.49 1380.51 300.13 1381.72 300.7C1383.42 301.446 1385.34 301.507 1387.08 300.87C1391.45 299.32 1395.19 292.45 1395.47 285.03C1395.61 281.497 1394.96 277.978 1393.56 274.73C1392.34 271.73 1390.41 269.58 1388.22 269.17C1387.4 268.942 1386.52 269.009 1385.75 269.36C1384.97 269.711 1384.34 270.323 1383.97 271.09C1383.4 272.23 1383.66 273.09 1383.44 273.09C1383.22 273.09 1382.56 272.39 1382.91 270.69C1383.15 269.672 1383.73 268.768 1384.56 268.13C1385.71 267.28 1387.15 266.92 1388.56 267.13C1391.73 267.38 1394.56 270.34 1395.99 273.6C1397.71 277.182 1398.52 281.131 1398.35 285.1C1398 293.4 1393.67 301.1 1387.7 302.78C1386.59 303.091 1385.43 303.148 1384.29 302.947C1383.16 302.746 1382.08 302.293 1381.15 301.62C1379.86 300.62 1379.65 299.69 1379.8 299.62Z" fill="#FF9E61"/>
<path d="M1186.32 228.82C1187.22 229.76 1194.32 229.3 1203.38 232.29C1212.44 235.28 1218.51 239.9 1219.65 239.63C1220.21 239.52 1219.42 238.1 1216.81 236.01C1212.95 233.091 1208.62 230.855 1204 229.4C1199.57 227.889 1194.9 227.211 1190.23 227.4C1187.1 227.62 1185.87 228.39 1186.32 228.82Z" fill="#1A2E35"/>
<path d="M1197.31 249.88C1197.39 251.899 1198.25 253.808 1199.71 255.202C1201.17 256.595 1203.12 257.362 1205.14 257.34C1206.13 257.371 1207.11 257.203 1208.04 256.848C1208.96 256.493 1209.8 255.956 1210.51 255.271C1211.23 254.585 1211.8 253.764 1212.19 252.855C1212.58 251.947 1212.78 250.969 1212.79 249.98C1212.71 247.961 1211.85 246.052 1210.39 244.659C1208.93 243.265 1206.98 242.498 1204.96 242.52C1203.97 242.489 1202.99 242.657 1202.06 243.012C1201.14 243.367 1200.3 243.904 1199.59 244.589C1198.87 245.275 1198.3 246.096 1197.91 247.005C1197.52 247.914 1197.32 248.891 1197.31 249.88Z" fill="#1A2E35"/>
<path d="M1100.24 150.55C1100.99 148.267 1102.6 146.365 1104.73 145.25C1109.27 142.72 1114.41 143.25 1119.4 143.25C1131.86 143.322 1144.17 140.562 1155.4 135.18C1151.58 133.194 1148.1 130.616 1145.08 127.54C1138.92 121.08 1135.54 111.34 1138.65 102.98C1139.23 101.41 1140.19 99.78 1141.8 99.32C1144.36 98.61 1146.52 101.16 1148.24 103.18C1153.89 109.83 1159.24 112.75 1167.89 112.1C1173.3 111.69 1178.55 110.62 1182.89 108.1C1183.07 107.92 1183.22 107.73 1183.4 107.56C1185.48 105.56 1187.52 103.56 1189.52 101.68C1204.58 87.48 1217.52 77.68 1230.62 72.8C1249.89 65.6 1281.86 63.3 1301.62 69.03C1321.38 74.76 1338.82 91.34 1341.07 111.78C1352.46 102.63 1369.2 103.14 1382.64 108.94L1382.99 108.8C1397.99 114.58 1406.16 130.8 1410.23 146.32C1410.46 147.17 1410.65 148.03 1410.85 148.88C1415.74 157.172 1422.54 164.168 1430.7 169.28C1432.14 170.17 1433.79 171.28 1433.93 172.94C1434.07 174.6 1432.62 175.94 1431.23 176.94C1427.51 179.436 1423.29 181.069 1418.86 181.72C1420.13 185.433 1421.71 189.03 1423.6 192.47C1425.24 195.41 1427.18 198.92 1425.6 201.89C1424.39 204.19 1421.41 205.07 1418.85 204.63C1416.29 204.19 1414.05 202.71 1411.85 201.27L1416.6 213.51C1411.08 214.293 1405.46 213.776 1400.18 212C1396.6 226.34 1392.5 244.65 1388.53 254.34C1382.21 254.16 1376.26 252.52 1372.27 255.93C1366.86 260.56 1364.27 269.46 1355.54 265.83C1351.11 263.99 1347.26 254.48 1345.87 249.88C1336.69 219.213 1334.21 186.928 1338.62 155.22C1332.5 148.37 1325.12 142.756 1316.88 138.68L1317.54 139.31C1301.71 133.36 1283.79 127.44 1268.44 134.55C1256.54 140.07 1249.32 152.09 1240.28 161.55C1223.16 179.55 1202.68 188.97 1177.82 189.41C1175.14 206.6 1176.43 228.52 1175.18 244.59L1160.96 218.26V218.39C1159.9 216.48 1159.03 214.55 1158.19 212.62L1157.9 212.04V212C1156.57 208.91 1155.31 205.81 1153.61 202.73L1153.45 202.87C1144.54 210.34 1131.99 198.25 1139.11 189.05C1140.52 187.216 1142.21 185.61 1144.11 184.29C1140.03 187.93 1134.04 189.57 1128.86 187.83C1123.68 186.09 1119.75 180.7 1120.35 175.26C1120.61 173.416 1121.35 171.674 1122.5 170.208C1123.65 168.742 1125.16 167.605 1126.89 166.91C1119.79 167.297 1112.73 165.556 1106.62 161.91C1102.6 159.45 1098.75 155.57 1100.24 150.55Z" fill="#161C1E"/>
<path d="M1322.84 117.86C1322.72 118.01 1325.2 119.44 1328.44 123.25C1331.68 127.06 1335.2 133.61 1336.73 142.46C1337.59 147.264 1337.96 152.142 1337.83 157.02C1337.72 162.29 1337.15 167.92 1336.59 173.85C1335.9 180.069 1335.6 186.324 1335.69 192.58C1335.77 195.911 1336.1 199.23 1336.69 202.51C1337.32 205.78 1338.09 209.34 1340.48 212.2C1341.45 213.337 1342.69 214.204 1344.09 214.716C1345.5 215.227 1347.01 215.367 1348.48 215.12C1351.3 214.67 1353.89 213.29 1355.84 211.2C1359.63 207 1360.68 201.58 1361.72 196.81L1360.51 196.92C1362.36 201.28 1364.27 205.6 1367.17 209.08C1369.88 212.531 1373.82 214.799 1378.17 215.41C1380.19 215.675 1382.24 215.37 1384.09 214.53C1385.82 213.694 1387.25 212.355 1388.2 210.69C1389.08 209.173 1389.55 207.446 1389.54 205.69C1389.51 204.038 1388.9 202.45 1387.82 201.2L1387.2 201.72C1390.49 205.702 1394.58 208.949 1399.2 211.25C1400.42 211.85 1401.68 212.378 1402.97 212.83C1403.41 212.999 1403.87 213.123 1404.33 213.2C1403.92 212.964 1403.5 212.77 1403.05 212.62C1402.21 212.25 1400.96 211.7 1399.4 210.86C1394.92 208.452 1390.98 205.171 1387.79 201.21L1387.17 201.74C1389.04 203.83 1389.06 207.41 1387.33 210.24C1386.46 211.722 1385.17 212.907 1383.62 213.64C1381.94 214.375 1380.08 214.631 1378.26 214.38C1374.23 213.752 1370.58 211.606 1368.08 208.38C1365.35 205.06 1363.51 200.86 1361.68 196.49L1360.91 194.63L1360.48 196.63C1359.48 201.4 1358.33 206.63 1354.88 210.39C1353.13 212.252 1350.81 213.482 1348.29 213.89C1347.04 214.108 1345.75 213.994 1344.56 213.561C1343.37 213.128 1342.31 212.389 1341.49 211.42C1339.4 208.94 1338.61 205.57 1337.99 202.35C1337.41 199.14 1337.08 195.891 1336.99 192.63C1336.89 186.426 1337.16 180.221 1337.81 174.05C1338.33 168.12 1338.81 162.47 1338.92 157.13C1339.01 152.179 1338.58 147.233 1337.65 142.37C1335.98 133.37 1332.22 126.76 1328.83 123.01C1327.14 120.966 1325.11 119.225 1322.84 117.86Z" fill="#375A64"/>
<path d="M1144.57 169C1144.7 169.153 1144.85 169.287 1145.02 169.4L1146.42 170.48C1147.18 171.075 1147.98 171.616 1148.81 172.1C1149.91 172.809 1151.06 173.447 1152.24 174.01C1159.81 177.675 1168.18 179.394 1176.59 179.01C1189.1 178.501 1201.2 174.382 1211.42 167.15C1223.05 159.22 1233.42 147.38 1241.93 133.74C1246.27 126.92 1249.83 119.91 1253.74 113.45C1257.65 106.99 1261.87 101.03 1266.95 96.37C1271.64 91.8269 1277.39 88.5329 1283.68 86.79C1286.52 86.0764 1289.46 85.8132 1292.39 86.01C1295.09 86.2341 1297.76 86.8159 1300.31 87.74C1308.1 90.6282 1314.53 96.3387 1318.31 103.74C1320.78 109.06 1320.84 112.44 1321.05 112.39C1321.08 112.191 1321.08 111.989 1321.05 111.79C1320.98 111.31 1320.91 110.79 1320.82 110.03C1320.42 107.787 1319.75 105.602 1318.82 103.52C1317.27 100.247 1315.18 97.2591 1312.64 94.68C1309.27 91.2427 1305.2 88.572 1300.71 86.85C1298.08 85.863 1295.33 85.2308 1292.54 84.97C1289.5 84.7389 1286.44 84.9886 1283.48 85.71C1276.99 87.4475 1271.04 90.798 1266.19 95.45C1260.96 100.2 1256.61 106.26 1252.69 112.76C1248.77 119.26 1245.17 126.26 1240.87 133.01C1232.39 146.56 1222.2 158.27 1210.79 166.12C1200.78 173.281 1188.92 177.422 1176.63 178.05C1168.35 178.502 1160.08 176.944 1152.53 173.51C1147.17 171 1144.68 168.83 1144.57 169Z" fill="#375A64"/>
<path d="M1140 143.74C1140.59 144.324 1141.27 144.822 1142 145.22C1143.91 146.451 1145.92 147.534 1148 148.46C1151.07 149.863 1154.26 151 1157.53 151.86C1161.55 152.877 1165.65 153.526 1169.78 153.8C1173.92 154.007 1178.07 153.829 1182.17 153.27C1185.52 152.794 1188.81 152.031 1192.03 150.99C1194.2 150.308 1196.32 149.462 1198.36 148.46C1199.14 148.146 1199.87 147.729 1200.53 147.22C1200.42 146.99 1197.22 148.53 1191.76 150.08C1188.56 150.991 1185.31 151.66 1182.01 152.08C1173.93 153.094 1165.74 152.623 1157.83 150.69C1154.61 149.899 1151.44 148.873 1148.37 147.62C1143.14 145.42 1140.14 143.52 1140 143.74Z" fill="#375A64"/>
<path d="M1275 310.57C1275 310.57 1254.16 316.64 1246.26 319.52L1249.42 328.58C1250.51 331.872 1252.77 334.653 1255.77 336.398C1258.76 338.144 1262.3 338.734 1265.7 338.058C1269.1 337.383 1272.14 335.488 1274.24 332.73C1276.35 329.971 1277.37 326.54 1277.12 323.08C1277 318.8 1275.83 314.45 1275 310.57Z" fill="#FF9E61"/>
<path d="M1246.3 319.52C1246.02 318.78 1258.64 314.17 1274.64 309.18L1276.14 308.71L1276.47 310.28C1276.47 310.5 1276.56 310.73 1276.61 310.96C1277.61 314.907 1278.24 318.937 1278.5 323C1278.78 326.56 1277.71 330.095 1275.5 332.9C1271.58 337.58 1267.5 337.85 1267.5 337.57C1267.26 337.11 1270.85 336.06 1273.82 331.69C1277.27 327.4 1275.69 319.82 1273.82 311.54C1273.82 311.31 1273.73 311.07 1273.68 310.85L1275.51 311.96C1259.56 316.89 1246.58 320.26 1246.3 319.52Z" fill="#1A2E35"/>
<path d="M1104.18 1069.16L1510.01 1067.27L1487.62 722.08L1485.94 619.17L1462.17 432.68L1371.47 413.23C1371.47 413.23 1348.78 454.93 1290.84 454.08C1234.19 453.24 1236.01 429.14 1236.01 429.14L1139.66 465.32C1139.66 465.32 1086.85 491.02 1077.16 515.94C1067.72 540.19 1049.44 679.74 1049.44 679.74L1132.53 678.74L1124.96 942.74L1104.18 1069.16Z" fill="#758AEC"/>
<path d="M1135.28 556.27C1135.43 556.866 1135.5 557.477 1135.5 558.09C1135.58 559.45 1135.68 561.17 1135.81 563.3C1136.02 567.84 1136.2 574.4 1136.23 582.51C1136.34 598.73 1135.98 621.13 1135.23 645.86C1134.48 670.59 1133.47 692.98 1132.64 709.17C1132.19 717.11 1131.82 723.61 1131.55 728.34C1131.39 730.46 1131.26 732.19 1131.16 733.55C1131.14 734.16 1131.06 734.767 1130.92 735.36C1130.82 734.755 1130.8 734.141 1130.85 733.53C1130.85 732.17 1130.9 730.44 1130.94 728.31C1131.09 723.58 1131.29 717.07 1131.54 709.12C1132.09 692.74 1132.84 670.45 1133.67 645.81C1134.5 621.17 1134.97 598.71 1135.14 582.51C1135.25 574.41 1135.23 567.85 1135.21 563.32C1135.21 561.19 1135.21 559.46 1135.21 558.1C1135.17 557.489 1135.2 556.876 1135.28 556.27Z" fill="#1A2E35"/>
<path d="M1459.36 435.22C1459.36 435.22 1500.18 439.5 1522.05 468.15C1542.15 494.48 1580.9 577.38 1579.87 579.44C1578.84 581.5 1488.61 640.63 1488.61 640.63L1466.3 599.49L1459.36 435.22Z" fill="#758AEC"/>
<path d="M1479.26 475.94C1479.4 476.451 1479.48 476.979 1479.49 477.51C1479.59 478.72 1479.72 480.21 1479.87 482.03C1480.17 485.95 1480.5 491.64 1480.87 498.67C1481.56 512.73 1482.09 532.18 1482.41 553.67C1482.73 575.16 1483.08 594.58 1483.49 608.67C1483.69 615.53 1483.85 621.16 1483.97 625.32C1483.97 627.14 1484.03 628.64 1484.06 629.85C1484.1 630.381 1484.07 630.915 1483.98 631.44C1483.83 630.931 1483.74 630.402 1483.74 629.87C1483.64 628.66 1483.52 627.17 1483.37 625.35C1483.07 621.43 1482.74 615.74 1482.37 608.71C1481.68 594.64 1481.15 575.2 1480.83 553.71C1480.51 532.22 1480.16 512.81 1479.74 498.71C1479.55 491.85 1479.38 486.22 1479.26 482.06C1479.26 480.23 1479.2 478.74 1479.18 477.52C1479.13 476.992 1479.16 476.46 1479.26 475.94Z" fill="#1A2E35"/>
<path d="M914.23 835.22C914.23 835.22 927.67 844.22 936.13 843.11C944.59 842 972.2 835.22 972.2 835.22C972.2 835.22 972.76 837.67 980.09 843.22C987.42 848.77 1031.94 856.08 1050.54 853.83C1069.14 851.58 1100.71 839.74 1100.71 839.74L1091.23 786.45L1007.47 799.66L914.23 821.14V835.23V835.22Z" fill="#FFBD66"/>
<path d="M942.33 791.82C942.33 791.82 935 823.94 939 828.45C943 832.96 947.91 834.09 950.73 827.89C953.55 821.69 958.73 799.65 958.73 799.65L962.11 791.82C962.11 791.82 957.61 844.82 966.62 847.62C975.63 850.42 980.71 847.62 980.71 847.62C980.71 847.62 998.71 861.14 999.88 839.73C1001.05 818.32 1007.53 791.82 1007.53 791.82L1011.71 784.82V796.82C1011.71 796.82 1002.21 825 1007.53 828.95C1012.85 832.9 1018.48 835.71 1021.86 831.2C1025.24 826.69 1040.95 793.67 1044.43 782.11C1044.43 782.11 1055 797.38 1069.74 797.57C1081.29 797.73 1088.01 792.76 1083.29 785.57C1078.57 778.38 1066.95 772.34 1066.95 772.34L1051.73 736.78L1014.53 728.08H972.2L942.33 791.82Z" fill="#FFB45A"/>
<path d="M882 769C882 769 917.54 790.16 933.88 794.1C950.22 798.04 1037.88 782.48 1036.96 776.96C1036.04 771.44 1024.63 766.48 1016.74 765.36C1008.85 764.24 985.74 760.28 985.74 760.28H1047.74L1077.61 779.17C1077.61 779.17 1088.21 774.9 1084.77 766.24C1082.94 761.64 1059.57 743.38 1059.57 743.38L1002.65 732.1L901.76 728.16L882 769Z" fill="#FFB55C"/>
<path d="M915.27 674C915.27 674 1016.16 690.91 1018.42 693.73C1020.68 696.55 1046.6 725.85 1046.6 725.85C1046.6 725.85 1085.47 739.22 1080.42 747.85C1075.37 756.48 1064.07 751.24 1064.07 751.24C1064.07 751.24 1079.85 776.04 1072.53 781.11C1065.21 786.18 1057.31 782.8 1051.67 775.47C1046.03 768.14 1029.67 741.09 1029.67 741.09C1029.67 741.09 1043.2 796.33 1036.43 798.02C1029.66 799.71 1018.96 800.27 1014.43 786.18C1009.9 772.09 1008.8 764.18 1008.8 764.18L987.38 728.67C987.38 728.67 995.83 793.51 990.76 798.86C990.76 798.86 977.76 803.07 973.29 791.8C968.82 780.53 962.58 754.8 962.58 754.8L951.87 726.46L950.74 744.46C950.74 744.46 959.74 777.72 954.12 779.97C948.5 782.22 941.12 779.97 937.21 772.38C933.3 764.79 928.93 755.82 927.07 748.38C926 744 920 729 920 729L898.58 726.18L915.27 674Z" fill="#FFBD66"/>
<path d="M1039.48 717.26C1039.84 717.01 1045.83 724.91 1052.87 734.91C1059.91 744.91 1065.33 753.21 1064.98 753.46C1064.63 753.71 1058.64 745.8 1051.59 735.8C1044.54 725.8 1039.13 717.51 1039.48 717.26Z" fill="#8E4132"/>
<path d="M1005.88 698.6C1006.03 698.48 1007.88 700.6 1010.6 704.24C1014.06 709.041 1017.23 714.05 1020.08 719.24C1022.95 724.413 1025.55 729.73 1027.88 735.17C1029.65 739.35 1030.56 742.01 1030.37 742.09C1030.18 742.17 1028.9 739.67 1026.88 735.63C1024.86 731.59 1022.06 726.01 1018.72 719.99C1015.38 713.97 1012.13 708.66 1009.72 704.86C1007.31 701.06 1005.69 698.74 1005.88 698.6Z" fill="#8E4132"/>
<path d="M976.18 701.6C976.28 701.45 977.84 702.31 979.74 704.41C982.157 707.211 983.98 710.474 985.1 714C986.214 717.467 986.949 721.044 987.29 724.67C987.57 727.43 987.6 729.14 987.39 729.17C987.18 729.2 986.76 727.53 986.21 724.84C985.552 721.345 984.688 717.892 983.62 714.5C982.535 711.152 980.94 707.991 978.89 705.13C977.29 702.93 976 701.78 976.18 701.6Z" fill="#8E4132"/>
<path d="M940.35 704.66C940.43 704.49 941.92 704.95 943.98 706.41C946.657 708.346 948.82 710.907 950.281 713.87C951.741 716.833 952.455 720.108 952.36 723.41C952.27 725.92 951.73 727.41 951.54 727.41C951.07 727.41 952.14 721.17 948.87 714.62C945.6 708.07 940.06 705 940.35 704.66Z" fill="#8E4132"/>
<path opacity="0.3" d="M1127.56 851.83C1134.76 851.78 1408.81 831.71 1408.81 831.71L1505.49 811.71L1481.61 704.71L1128.32 818.37L1127.56 851.83Z" fill="black"/>
<path d="M1091.23 786.44L1344.93 728.13C1344.93 728.13 1575.93 593.5 1579.45 591.32C1583.39 588.91 1561.59 728.13 1561.59 728.13C1561.59 728.13 1414.45 805.65 1372.09 815.7C1349.03 821.17 1093.09 842.45 1093.09 842.45L1091.23 786.44Z" fill="#FFBD66"/>
<path d="M1715.84 232.8C1731.47 215.93 1769.63 218.86 1778.57 230.14C1791.9 223.38 1810.22 229.68 1816.57 243.19L1857.11 252.47C1864.02 254.06 1871.25 255.8 1876.53 260.53C1881.81 265.26 1884.22 274.01 1879.77 279.53C1894.05 283.39 1899.45 304.75 1888.77 314.93C1894.55 321.13 1893.28 332.42 1886.27 337.18C1897.37 350.773 1906.07 366.161 1912 382.68C1914.47 389.58 1916.43 397.27 1913.82 404.11C1911.21 410.95 1902.12 415.6 1896.22 411.25C1898.19 414.09 1899.29 417.436 1899.41 420.888C1899.53 424.34 1898.65 427.754 1896.88 430.72C1903.75 430.95 1905.69 441.6 1900.88 446.54C1896.07 451.48 1888.44 451.94 1881.57 451.72C1874.7 451.5 1867.25 451.06 1861.57 454.93C1861.62 455.771 1861.84 456.592 1862.22 457.345C1862.6 458.097 1863.13 458.766 1863.77 459.31C1875.48 469.02 1878.67 485.58 1869.7 497.87C1868.87 499.01 1868.09 500.06 1867.41 501C1863.41 506.61 1853.48 511.69 1847.31 514.83C1831.69 522.78 1822.46 521.16 1805.09 523.5C1809.71 534.73 1781.3 559.23 1749.29 534.57C1684.79 551.22 1638.35 557.33 1571.74 556.86C1562.23 556.79 1550.82 555.39 1546.74 546.86C1539.02 548.86 1530.74 545.17 1525.09 539.53C1519.44 533.89 1515.94 526.53 1512.54 519.32C1496.13 514.75 1483.61 498.75 1483.1 481.72C1477.58 477.268 1473.05 471.718 1469.79 465.42C1466.53 459.123 1464.61 452.217 1464.16 445.14C1448.16 440.14 1439.58 419.25 1447.33 404.42C1450.98 384.803 1457.84 365.923 1467.64 348.54C1456.77 346.08 1452.81 331.35 1457.39 321.18C1461.97 311.01 1471.95 304.55 1481.39 298.65C1473.22 300.74 1466.22 290.44 1468.24 282.25C1470.26 274.06 1477.69 268.48 1484.96 264.25C1495.63 257.987 1507.01 253.037 1518.87 249.51C1522.87 235.21 1541.38 219.06 1554.87 212.83C1609.29 187.73 1647.31 181.62 1715.87 232.83" fill="#161C1E"/>
<path d="M1564 334.56C1568.68 297.31 1596.31 252.96 1633.33 259.22L1747.86 295.86C1753.28 296.784 1758.16 299.706 1761.53 304.048C1764.91 308.39 1766.53 313.839 1766.09 319.32L1746.67 568.38C1745.44 584.117 1738.8 598.944 1727.9 610.354C1716.99 621.764 1702.48 629.057 1686.81 631C1677.07 632.208 1667.18 631.308 1657.81 628.362C1648.45 625.415 1639.82 620.49 1632.53 613.92C1625.23 607.35 1619.43 599.29 1615.52 590.283C1611.61 581.277 1609.69 571.536 1609.87 561.72C1610.19 544.59 1610.39 531.72 1610.38 531.8C1610.37 531.88 1563.1 520.9 1557.07 457.95C1554.07 426.68 1558.79 375.94 1564 334.56Z" fill="#FFBD66"/>
<path d="M1584.9 385.17C1584.75 387.255 1585.42 389.316 1586.76 390.914C1588.11 392.512 1590.03 393.519 1592.11 393.72C1593.12 393.863 1594.15 393.802 1595.14 393.541C1596.13 393.28 1597.06 392.824 1597.87 392.2C1598.68 391.575 1599.35 390.796 1599.86 389.906C1600.36 389.017 1600.68 388.035 1600.8 387.02C1600.95 384.937 1600.29 382.877 1598.94 381.279C1597.6 379.681 1595.68 378.673 1593.6 378.47C1592.59 378.326 1591.56 378.385 1590.57 378.646C1589.58 378.906 1588.65 379.362 1587.84 379.986C1587.03 380.611 1586.35 381.391 1585.85 382.281C1585.34 383.172 1585.02 384.154 1584.9 385.17Z" fill="#1A2E35"/>
<path d="M1573.37 361.69C1574.3 362.79 1580.64 358.69 1589.24 359.24C1597.84 359.79 1603.88 364.49 1604.87 363.5C1605.36 363.06 1604.47 361.12 1601.87 358.94C1598.31 356.133 1593.97 354.495 1589.44 354.25C1584.97 353.955 1580.52 355.09 1576.73 357.49C1573.93 359.36 1572.91 361.19 1573.37 361.69Z" fill="#1A2E35"/>
<path d="M1663.78 388.48C1663.64 390.561 1664.31 392.617 1665.66 394.208C1667.01 395.8 1668.92 396.802 1671 397C1672.01 397.144 1673.04 397.085 1674.03 396.825C1675.02 396.565 1675.95 396.11 1676.76 395.486C1677.56 394.863 1678.24 394.084 1678.75 393.195C1679.25 392.306 1679.57 391.325 1679.69 390.31C1679.84 388.227 1679.18 386.167 1677.83 384.569C1676.49 382.971 1674.57 381.963 1672.49 381.76C1671.47 381.613 1670.44 381.671 1669.45 381.932C1668.45 382.192 1667.52 382.649 1666.71 383.276C1665.9 383.903 1665.22 384.686 1664.72 385.58C1664.21 386.474 1663.9 387.46 1663.78 388.48Z" fill="#1A2E35"/>
<path d="M1657.84 368.55C1658.76 369.65 1665.11 365.55 1673.7 366.1C1682.29 366.65 1688.34 371.35 1689.34 370.36C1689.83 369.92 1688.94 367.98 1686.34 365.8C1682.78 362.991 1678.43 361.353 1673.9 361.11C1669.43 360.815 1664.98 361.95 1661.19 364.35C1658.4 366.22 1657.38 368.05 1657.84 368.55Z" fill="#1A2E35"/>
<path d="M1622.65 430.41C1622.72 429.92 1617.43 428.66 1608.83 427.02C1606.65 426.65 1604.6 426.09 1604.32 424.57C1604.04 423.05 1604.97 420.64 1606.19 418.15L1613.73 401.82C1624.23 378.57 1631.98 359.39 1631.04 358.97C1630.1 358.55 1620.82 377.07 1610.32 400.33C1607.79 406.07 1605.32 411.53 1603.05 416.77C1602.05 419.21 1600.46 421.96 1601.38 425.32C1601.65 426.114 1602.1 426.837 1602.69 427.432C1603.28 428.028 1604 428.482 1604.79 428.76C1605.99 429.158 1607.23 429.41 1608.49 429.51C1617.18 430.52 1622.59 430.89 1622.65 430.41Z" fill="#1A2E35"/>
<path d="M1610.38 531.84C1610.38 531.84 1652.15 537.15 1695.25 514.76C1695.25 514.76 1672.34 556.32 1610.31 546.61L1610.38 531.84Z" fill="#FF9E61"/>
<path d="M1656.24 332.89C1656.94 335.28 1665.6 334.71 1675.61 336.55C1685.67 338.2 1693.61 341.66 1695.1 339.64C1695.76 338.64 1694.47 336.39 1691.32 333.92C1687.1 330.871 1682.24 328.823 1677.11 327.931C1671.99 327.038 1666.72 327.325 1661.72 328.77C1657.92 330 1655.94 331.76 1656.24 332.89Z" fill="#1A2E35"/>
<path d="M1578.24 332.27C1579.63 334.32 1585.69 332.66 1592.82 333C1599.96 333.1 1605.9 335.13 1607.42 333.18C1608.09 332.18 1607.26 330.18 1604.73 328.18C1601.33 325.742 1597.28 324.371 1593.09 324.241C1588.91 324.111 1584.78 325.228 1581.23 327.45C1578.59 329.31 1577.63 331.27 1578.24 332.27Z" fill="#1A2E35"/>
<path d="M1535.43 364.05C1536.19 354.29 1539.43 344.4 1546.25 337.36C1549.98 333.51 1554.68 330.61 1558.01 326.36C1565.19 317.26 1564.42 304.44 1567.59 293.29C1569.71 286.098 1573.52 279.516 1578.69 274.09C1583.86 268.664 1590.26 264.55 1597.34 262.09C1609.12 258.09 1622.34 258.9 1633.46 253.27C1641.66 249.1 1647.97 241.73 1656.39 238.05C1672.8 230.9 1691.54 239.58 1706.76 249.05C1709.6 261.31 1701.69 271.74 1694.06 281.76C1690.2 286.757 1685.31 290.859 1679.72 293.784C1674.12 296.708 1667.96 298.386 1661.66 298.7C1651.9 299.11 1640.55 296.7 1633.58 303.55C1626.24 310.74 1628.81 323.67 1622.74 331.96C1614.06 343.8 1594.87 338.91 1582.07 346.1C1572.19 351.65 1567.87 363.28 1562.77 373.41C1557.67 383.54 1549 394 1537.65 393.28C1536.16 383.6 1534.66 373.82 1535.43 364.05Z" fill="#161C1E"/>
<path d="M1682.05 270.84C1710.63 270.927 1738.92 276.544 1765.36 287.38C1773.21 290.61 1781.36 294.67 1785.71 301.95C1789.56 308.34 1789.9 316.2 1789.71 323.67C1789.03 347.04 1779.12 375.48 1769.83 396.94L1740.33 413.94C1717.94 408.23 1728.95 369.6 1730.33 350.16C1722.58 346.453 1716.02 340.646 1711.4 333.398C1706.79 326.15 1704.29 317.753 1704.21 309.16C1697.87 304.855 1692.58 299.173 1688.74 292.537C1684.91 285.902 1682.62 278.484 1682.05 270.84Z" fill="#161C1E"/>
<path d="M1740.85 405.51C1741.97 392.16 1758.43 389.85 1769.85 396.94C1776.09 400.83 1780.7 408.39 1779.64 422.57C1776.81 460.38 1739.43 449.73 1739.45 448.64C1739.41 448 1739.54 421.14 1740.85 405.51Z" fill="#FFBD66"/>
<path d="M1752 435.19C1752.18 435.08 1752.63 435.7 1753.7 436.29C1755.22 437.077 1756.98 437.245 1758.62 436.76C1762.72 435.59 1766.56 429.5 1767.25 422.7C1767.59 419.469 1767.21 416.202 1766.12 413.14C1765.12 410.28 1763.53 408.22 1761.54 407.71C1760.8 407.458 1760 407.471 1759.27 407.747C1758.54 408.022 1757.93 408.543 1757.54 409.22C1756.95 410.22 1757.14 411.01 1756.93 411.06C1756.72 411.11 1756.17 410.37 1756.59 408.83C1756.87 407.909 1757.45 407.111 1758.25 406.57C1759.35 405.862 1760.69 405.614 1761.97 405.88C1764.87 406.3 1767.29 409.18 1768.41 412.26C1769.78 415.663 1770.29 419.352 1769.9 423C1769.09 430.6 1764.66 437.44 1759.07 438.61C1758.03 438.834 1756.94 438.82 1755.9 438.569C1754.87 438.318 1753.9 437.836 1753.07 437.16C1752 436.1 1751.89 435.24 1752 435.19Z" fill="#66312B"/>
<path d="M1770.18 459.25C1772.21 459.347 1774.25 459.25 1776.26 458.96C1778.57 458.685 1780.81 458.047 1782.92 457.07L1782.47 456.84C1782.94 460.056 1784.23 463.096 1786.22 465.665C1788.21 468.234 1790.83 470.245 1793.82 471.501C1796.82 472.757 1800.09 473.217 1803.32 472.835C1806.55 472.452 1809.62 471.242 1812.24 469.32L1811.6 469.2C1812.72 470.938 1814.48 472.16 1816.5 472.6C1818.54 473.059 1820.68 472.917 1822.64 472.19C1824.69 471.476 1826.45 470.101 1827.64 468.28C1828.82 466.414 1829.5 464.282 1829.64 462.08C1829.88 457.519 1828.5 453.02 1825.74 449.38C1823.07 445.62 1819.51 442.54 1815.94 439.49L1815.86 440.36C1817.45 439.395 1818.82 438.108 1819.88 436.582C1820.94 435.056 1821.67 433.325 1822.02 431.5C1822.83 427.768 1822.53 423.879 1821.14 420.32C1819.63 416.744 1817.43 413.497 1814.68 410.76C1811.91 407.992 1808.96 405.407 1805.86 403.02V403.88C1807.25 402.438 1808.31 400.72 1808.99 398.839C1809.67 396.957 1809.94 394.954 1809.79 392.96C1809.59 388.864 1808.17 384.921 1805.71 381.64C1800.95 375.35 1793.94 371.79 1787.48 368.43L1787.77 369.09C1788.82 365.165 1788.9 361.043 1788.01 357.079C1787.12 353.115 1785.28 349.427 1782.65 346.329C1780.02 343.231 1776.68 340.817 1772.91 339.294C1769.14 337.77 1765.06 337.182 1761.02 337.58L1761.59 338.24C1763.2 331.48 1760.81 324.58 1756.79 319.73C1752.77 314.88 1746.88 311.67 1740.95 311.6L1741.41 312.08C1741.53 305.15 1737.77 299.13 1733.11 295.43C1730.94 293.625 1728.43 292.282 1725.72 291.483C1723.01 290.683 1720.17 290.444 1717.37 290.78L1717.79 291.16C1717.65 287.713 1716.65 284.355 1714.89 281.39C1713.43 278.755 1711.53 276.388 1709.27 274.39C1705.76 271.072 1701.24 269.024 1696.43 268.57L1695.01 268.45C1694.55 268.45 1694.1 268.51 1693.67 268.53C1692.87 268.561 1692.07 268.638 1691.27 268.76C1690.04 269.004 1688.82 269.338 1687.64 269.76L1685.51 270.63C1685.27 270.715 1685.03 270.822 1684.81 270.95C1685.06 270.898 1685.31 270.821 1685.55 270.72L1687.7 269.96C1688.89 269.592 1690.09 269.308 1691.32 269.11C1692.11 269 1692.9 268.94 1693.69 268.93C1694.11 268.93 1694.55 268.87 1695 268.87L1696.39 269.02C1701.08 269.537 1705.47 271.59 1708.88 274.86C1711.07 276.851 1712.9 279.197 1714.31 281.8C1715.99 284.666 1716.93 287.902 1717.05 291.22V291.65L1717.48 291.6C1720.18 291.298 1722.9 291.547 1725.5 292.333C1728.1 293.119 1730.5 294.424 1732.58 296.17C1737.05 299.76 1740.58 305.58 1740.47 312.17V312.65H1740.95C1746.57 312.75 1752.2 315.76 1756.03 320.49C1759.86 325.22 1762.11 331.75 1760.57 338.1L1760.39 338.83L1761.14 338.76C1765.01 338.376 1768.91 338.937 1772.51 340.395C1776.11 341.852 1779.31 344.162 1781.82 347.127C1784.33 350.092 1786.09 353.622 1786.93 357.414C1787.78 361.207 1787.69 365.148 1786.68 368.9L1786.56 369.35L1786.97 369.56C1793.43 372.91 1800.28 376.44 1804.8 382.44C1807.13 385.534 1808.47 389.254 1808.66 393.12C1808.8 394.953 1808.56 396.795 1807.94 398.527C1807.32 400.258 1806.35 401.84 1805.08 403.17L1804.61 403.62L1805.12 404.02C1811.21 408.86 1817.33 413.96 1820.12 420.84C1821.43 424.19 1821.73 427.853 1820.97 431.37C1820.66 433.05 1819.99 434.646 1819.02 436.054C1818.05 437.461 1816.8 438.649 1815.34 439.54L1814.68 439.92L1815.26 440.42C1818.84 443.42 1822.34 446.48 1824.92 450.09C1827.55 453.523 1828.88 457.772 1828.68 462.09C1828.44 466.22 1826.08 470.18 1822.31 471.4C1818.73 472.76 1814.24 471.94 1812.31 468.82L1812.06 468.41L1811.67 468.7C1808.93 470.683 1805.7 471.869 1802.33 472.129C1798.96 472.388 1795.58 471.71 1792.57 470.17C1790.07 468.824 1787.91 466.922 1786.26 464.611C1784.61 462.3 1783.51 459.642 1783.05 456.84L1782.99 456.41L1782.6 456.6C1780.56 457.567 1778.38 458.209 1776.14 458.5C1774.16 458.81 1772.15 458.927 1770.14 458.85C1766.97 458.845 1763.84 458.188 1760.94 456.92C1759.12 456.184 1757.6 454.852 1756.63 453.14C1756.05 451.96 1755.96 451.24 1755.89 451.26C1755.91 451.429 1755.94 451.597 1755.99 451.76C1756.08 452.263 1756.24 452.751 1756.47 453.21C1757.41 455.001 1758.93 456.414 1760.79 457.21" fill="#375A64"/>
<path d="M1900.84 413.13C1901.41 412.431 1901.9 411.674 1902.3 410.87C1903.51 408.553 1904.24 406.015 1904.44 403.41C1904.82 399.225 1903.8 395.033 1901.54 391.49C1900.03 389.127 1898.05 387.105 1895.71 385.555C1893.38 384.005 1890.74 382.961 1887.98 382.49L1888.29 382.94C1889.66 376.531 1888.56 369.839 1885.2 364.21C1883.38 361.049 1880.9 358.32 1877.92 356.21C1874.85 353.97 1871.14 352.78 1867.66 351.15C1865.89 350.386 1864.24 349.376 1862.75 348.15C1861.28 346.857 1860.12 345.242 1859.37 343.43C1857.75 339.78 1857.29 335.48 1855.23 331.54C1853.03 327.515 1849.69 324.239 1845.61 322.131C1841.54 320.023 1836.93 319.18 1832.38 319.71L1833.02 320.36C1833.75 315.774 1833.42 311.082 1832.05 306.645C1830.67 302.208 1828.3 298.145 1825.12 294.768C1821.93 291.392 1818.01 288.792 1813.66 287.17C1809.31 285.547 1804.64 284.945 1800.02 285.41L1800.64 286.04C1801.27 280.997 1800.45 275.878 1798.27 271.289C1796.08 266.699 1792.63 262.83 1788.32 260.138C1784.01 257.446 1779.02 256.044 1773.94 256.098C1768.85 256.151 1763.89 257.658 1759.64 260.44L1760.24 260.51C1756.53 256.837 1752.07 254.006 1747.16 252.21C1742.81 250.524 1738.26 249.398 1733.63 248.86C1726.13 247.897 1718.52 248.28 1711.16 249.99C1706.43 251.027 1701.9 252.82 1697.74 255.3C1696.65 255.947 1695.6 256.676 1694.62 257.48C1693.94 258 1693.62 258.3 1693.62 258.3C1693.62 258.3 1695.05 257.24 1697.9 255.55C1702.08 253.2 1706.6 251.513 1711.3 250.55C1718.6 248.949 1726.13 248.644 1733.54 249.65C1738.1 250.217 1742.57 251.359 1746.85 253.05C1751.62 254.827 1755.95 257.606 1759.56 261.2L1759.84 261.48L1760.17 261.27C1764.26 258.618 1769.02 257.188 1773.9 257.151C1778.78 257.114 1783.56 258.469 1787.69 261.059C1791.82 263.648 1795.13 267.363 1797.22 271.767C1799.31 276.172 1800.1 281.082 1799.5 285.92L1799.41 286.63L1800.12 286.56C1804.57 286.115 1809.06 286.696 1813.24 288.258C1817.43 289.82 1821.2 292.323 1824.27 295.572C1827.34 298.822 1829.62 302.732 1830.94 307.001C1832.26 311.271 1832.58 315.786 1831.88 320.2L1831.76 320.95L1832.53 320.85C1836.86 320.349 1841.23 321.147 1845.1 323.144C1848.97 325.14 1852.16 328.244 1854.26 332.06C1856.26 335.75 1856.7 340.06 1858.41 343.88C1859.23 345.825 1860.47 347.559 1862.06 348.95C1863.63 350.232 1865.36 351.295 1867.22 352.11C1870.8 353.76 1874.44 354.91 1877.37 357.03C1880.23 359.06 1882.61 361.679 1884.37 364.71C1887.65 370.139 1888.77 376.606 1887.49 382.82L1887.41 383.22L1887.81 383.28C1890.48 383.714 1893.02 384.697 1895.29 386.167C1897.56 387.637 1899.5 389.562 1900.98 391.82C1903.21 395.247 1904.27 399.31 1903.98 403.39C1903.82 405.957 1903.17 408.47 1902.06 410.79C1901.34 412.35 1900.79 413.1 1900.84 413.13Z" fill="#375A64"/>
<path d="M1538.66 417.27C1538.91 416.798 1539.06 416.277 1539.1 415.742C1539.13 415.207 1539.05 414.671 1538.86 414.17C1538.43 412.937 1537.69 411.84 1536.7 410.99C1535.34 409.871 1533.76 409.044 1532.06 408.56C1529.99 407.991 1528.02 407.125 1526.2 405.99C1524.19 404.448 1522.73 402.293 1522.04 399.85C1521.22 397.034 1520.95 394.089 1521.23 391.17C1521.42 388.04 1521.97 384.75 1522.03 381.17C1522.22 374 1519.3 366.66 1517.59 358.72C1516.66 354.628 1516.56 350.392 1517.29 346.26C1518.11 342.09 1520.38 337.94 1524.29 335.73C1528.2 333.52 1532.95 332.8 1537.63 331.46C1540.06 330.84 1542.37 329.827 1544.47 328.46C1546.57 326.939 1548.26 324.909 1549.36 322.56C1551.67 317.9 1552.31 312.7 1553.59 307.72C1554.14 305.217 1555.07 302.813 1556.34 300.59C1557.65 298.411 1559.64 296.724 1562 295.79C1565.28 294.62 1568.91 294.86 1572.49 294.54C1574.32 294.425 1576.12 294.006 1577.82 293.3C1579.52 292.543 1580.98 291.349 1582.07 289.84C1584.22 286.84 1585.07 283.38 1586.19 280.24C1587.21 277.103 1588.88 274.217 1591.09 271.77C1593.19 269.427 1595.75 267.543 1598.61 266.235C1601.47 264.927 1604.57 264.224 1607.71 264.17C1613.62 264.114 1619.33 266.289 1623.71 270.26L1624.2 270.72L1624.49 270.11C1626.72 265.503 1629.91 261.426 1633.85 258.149C1637.78 254.873 1642.37 252.473 1647.3 251.11C1651.42 250 1655.72 249.701 1659.96 250.23C1663.57 250.623 1667.08 251.663 1670.32 253.3C1676.03 256.35 1680.51 261.273 1683.02 267.24C1683.19 267.62 1683.33 267.93 1683.45 268.18C1683.49 268.291 1683.55 268.396 1683.62 268.49C1683.6 268.373 1683.57 268.258 1683.52 268.15L1683.16 267.15C1682.71 265.875 1682.14 264.643 1681.46 263.47C1678.97 258.905 1675.18 255.177 1670.58 252.75C1667.29 251.042 1663.73 249.941 1660.05 249.5C1655.71 248.923 1651.29 249.191 1647.05 250.29C1641.98 251.658 1637.26 254.096 1633.2 257.441C1629.15 260.785 1625.86 264.959 1623.56 269.68L1624.34 269.53C1619.8 265.366 1613.85 263.07 1607.69 263.1C1604.4 263.146 1601.15 263.873 1598.15 265.236C1595.15 266.599 1592.46 268.568 1590.26 271.02C1587.94 273.567 1586.19 276.577 1585.12 279.85C1583.96 283.05 1583.12 286.45 1581.12 289.15C1579.12 291.85 1575.83 293.15 1572.36 293.39C1568.89 293.63 1565.18 293.39 1561.57 294.7C1558.96 295.723 1556.77 297.579 1555.33 299.98C1554 302.302 1553.02 304.814 1552.45 307.43C1551.16 312.49 1550.51 317.63 1548.32 322.04C1547.3 324.229 1545.74 326.122 1543.79 327.54C1541.8 328.854 1539.61 329.831 1537.3 330.43C1532.73 331.77 1527.86 332.43 1523.71 334.85C1521.67 336.053 1519.96 337.73 1518.71 339.74C1517.52 341.695 1516.7 343.845 1516.26 346.09C1515.51 350.354 1515.64 354.725 1516.62 358.94C1518.41 367.01 1521.32 374.22 1521.17 381.2C1521.17 384.65 1520.62 387.95 1520.46 391.12C1520.2 394.125 1520.51 397.153 1521.39 400.04C1522.13 402.603 1523.7 404.851 1525.84 406.44C1527.7 407.581 1529.72 408.437 1531.84 408.98C1533.49 409.421 1535.04 410.194 1536.39 411.25C1537.36 412.042 1538.11 413.077 1538.56 414.25C1538.93 415.217 1538.97 416.281 1538.66 417.27Z" fill="#375A64"/>
<path d="M1466.18 357.4C1466.34 357.182 1466.48 356.947 1466.59 356.7L1467.66 354.59L1471.66 346.45C1473.43 342.93 1475.42 338.52 1478.25 333.7C1481.08 328.88 1484.94 323.58 1491.16 320.33C1494.25 318.72 1497.81 317.69 1501.39 316.17C1503.25 315.41 1505 314.422 1506.61 313.23C1508.3 311.95 1509.65 310.279 1510.55 308.36C1512.41 304.46 1512.55 300.01 1514.05 295.97C1514.74 293.927 1516.05 292.144 1517.78 290.86C1519.66 289.623 1521.73 288.707 1523.91 288.15C1526.23 287.536 1528.48 286.713 1530.65 285.69C1532.91 284.524 1534.74 282.686 1535.91 280.43C1538.26 275.87 1538.38 270.68 1539.39 265.8C1539.79 263.345 1540.69 260.997 1542.03 258.9C1543.47 256.866 1545.65 255.482 1548.1 255.05C1553.1 254.05 1558.41 255.92 1563.97 255.14C1566.75 254.706 1569.33 253.4 1571.32 251.41C1573.17 249.46 1574.79 247.298 1576.14 244.97C1577.45 242.746 1578.87 240.593 1580.41 238.52C1581.86 236.507 1583.81 234.9 1586.06 233.85C1590.6 231.85 1595.7 233.06 1600.35 234.21C1605 235.36 1609.93 236.64 1614.71 235.7C1619.49 234.76 1623.53 232.48 1627.31 230.22C1631.09 227.96 1634.7 225.56 1638.55 224.22C1645.85 221.902 1653.67 221.784 1661.03 223.88C1667.12 225.546 1672.76 228.572 1677.52 232.73C1681.07 235.913 1684.1 239.623 1686.52 243.73C1688.02 246.352 1689.29 249.099 1690.32 251.94L1691.16 254.14C1691.24 254.4 1691.35 254.651 1691.48 254.89C1691.44 254.623 1691.37 254.362 1691.27 254.11C1691.09 253.55 1690.84 252.8 1690.54 251.86C1689.59 248.97 1688.38 246.174 1686.91 243.51C1684.52 239.3 1681.48 235.493 1677.91 232.23C1673.11 227.948 1667.4 224.815 1661.21 223.07C1653.69 220.881 1645.69 220.958 1638.21 223.29C1634.21 224.68 1630.56 227.09 1626.76 229.29C1622.96 231.49 1618.99 233.79 1614.49 234.6C1609.99 235.41 1605.3 234.28 1600.59 233.09C1598.18 232.423 1595.72 231.948 1593.24 231.67C1590.61 231.326 1587.94 231.712 1585.51 232.784C1583.09 233.856 1581.01 235.574 1579.49 237.75C1577.93 239.858 1576.47 242.048 1575.14 244.31C1573.84 246.553 1572.28 248.637 1570.49 250.52C1568.67 252.344 1566.32 253.544 1563.77 253.95C1558.59 254.71 1553.27 252.87 1547.85 253.86C1545.11 254.355 1542.68 255.903 1541.07 258.17C1539.64 260.402 1538.68 262.903 1538.26 265.52C1537.26 270.52 1537.09 275.63 1534.91 279.86C1533.85 281.929 1532.17 283.614 1530.11 284.68C1528 285.673 1525.81 286.473 1523.56 287.07C1521.27 287.671 1519.11 288.648 1517.14 289.96C1515.25 291.369 1513.83 293.318 1513.07 295.55C1511.52 299.82 1511.41 304.23 1509.66 307.89C1507.91 311.55 1504.46 313.82 1501 315.29C1497.54 316.76 1493.93 317.87 1490.75 319.55C1484.34 322.96 1480.47 328.55 1477.67 333.32C1474.87 338.09 1472.93 342.64 1471.22 346.2L1467.37 354.43C1466.97 355.34 1466.64 356.05 1466.37 356.59C1466.29 356.856 1466.23 357.126 1466.18 357.4Z" fill="#375A64"/>
<path d="M1507.14 318.47C1506.92 318.4 1506.68 318.357 1506.45 318.34C1505.76 318.314 1505.07 318.455 1504.45 318.75C1502.79 319.53 1500.9 321.9 1500.57 325.4C1500.54 327.314 1500.77 329.223 1501.28 331.07C1501.88 333.207 1502.17 335.42 1502.15 337.64C1501.84 340.16 1500.88 342.556 1499.36 344.59C1497.86 346.84 1495.95 349.05 1494.36 351.74C1493.46 353.136 1492.9 354.718 1492.7 356.366C1492.51 358.015 1492.7 359.685 1493.25 361.25C1494.41 364.5 1496.7 367.25 1497.79 370.53C1498.88 373.81 1498.17 377.53 1496.58 380.93C1494.99 384.33 1492.89 387.68 1491.38 391.5C1490.56 393.439 1490.11 395.515 1490.06 397.62C1490.06 399.786 1490.51 401.928 1491.38 403.91C1493.14 407.91 1495.98 411.24 1498.38 414.83C1500.78 418.42 1502.81 422.51 1502.17 426.89C1501.53 431.27 1499.09 435.21 1497.38 439.58C1496.45 441.777 1495.93 444.126 1495.85 446.51C1495.88 448.886 1496.45 451.225 1497.51 453.35C1499.58 457.54 1502.73 460.84 1505.51 464.19C1508.29 467.54 1510.8 471 1512 475C1513.2 479 1513.92 483.11 1515.73 486.85C1516.6 488.732 1517.89 490.393 1519.49 491.71C1521.1 492.895 1522.89 493.798 1524.8 494.38C1526.58 494.943 1528.32 495.611 1530.02 496.38C1531.59 497.193 1533.05 498.219 1534.34 499.43C1536.72 501.885 1538.75 504.646 1540.4 507.64C1542.09 510.49 1543.66 513.29 1545.4 515.8C1548.55 520.422 1553.11 523.905 1558.4 525.73C1562.36 527.118 1566.58 527.593 1570.75 527.12C1573.37 526.833 1575.93 526.134 1578.33 525.05C1579.16 524.667 1579.96 524.222 1580.73 523.72C1580.66 523.49 1577.48 525.96 1570.73 526.72C1566.64 527.098 1562.51 526.566 1558.65 525.16C1553.51 523.336 1549.11 519.902 1546.08 515.37C1544.36 512.89 1542.83 510.1 1541.15 507.23C1539.48 504.151 1537.4 501.31 1534.98 498.78C1533.63 497.489 1532.09 496.398 1530.43 495.54C1528.7 494.771 1526.93 494.103 1525.12 493.54C1523.32 492.992 1521.63 492.139 1520.12 491.02C1518.64 489.797 1517.46 488.255 1516.67 486.51C1514.96 482.97 1514.34 478.84 1513.03 474.79C1511.72 470.74 1509.21 466.93 1506.42 463.57C1503.63 460.21 1500.55 456.92 1498.6 452.95C1497.61 450.984 1497.09 448.819 1497.06 446.62C1497.14 444.377 1497.64 442.168 1498.51 440.1C1500.15 435.85 1502.75 431.85 1503.37 427.1C1503.66 424.775 1503.38 422.414 1502.56 420.22C1501.74 418.114 1500.67 416.115 1499.37 414.27C1496.9 410.62 1494.1 407.32 1492.43 403.55C1491.61 401.711 1491.19 399.722 1491.18 397.71C1491.23 395.73 1491.64 393.776 1492.41 391.95C1493.84 388.27 1495.99 384.95 1497.55 381.41C1499.11 377.87 1500 373.88 1498.74 370.3C1497.48 366.72 1495.22 364.07 1494.13 361.02C1493.61 359.573 1493.43 358.026 1493.6 356.498C1493.77 354.97 1494.3 353.503 1495.13 352.21C1496.6 349.61 1498.49 347.38 1500.01 345.06C1501.57 342.911 1502.54 340.39 1502.82 337.75C1502.81 335.47 1502.48 333.203 1501.82 331.02C1501.29 329.227 1501.03 327.368 1501.02 325.5C1501.26 322.15 1503.02 319.83 1504.56 319.03C1505.35 318.607 1506.24 318.413 1507.14 318.47Z" fill="#375A64"/>
<path d="M1899.91 411.88C1900.92 411.907 1901.92 411.826 1902.91 411.64C1905.78 411.119 1908.5 410.001 1910.91 408.36C1914.84 405.761 1917.73 401.87 1919.09 397.36C1919.98 394.352 1920.19 391.186 1919.71 388.087C1919.24 384.987 1918.08 382.031 1916.33 379.43C1914.33 376.54 1911.61 374.1 1908.9 371.51C1906.19 368.92 1903.36 366.12 1901.98 362.39C1900.6 358.66 1901.23 354.39 1902.78 350.39C1904.33 346.39 1906.6 342.44 1908.07 337.97C1909.68 333.056 1910.24 327.86 1909.73 322.716C1909.21 317.571 1907.63 312.591 1905.07 308.094C1902.52 303.596 1899.06 299.681 1894.91 296.598C1890.76 293.515 1886.01 291.333 1880.97 290.19L1881.3 291.08C1883.09 288.658 1884.26 285.842 1884.73 282.87C1885.17 279.872 1885.04 276.817 1884.33 273.87C1883.62 270.88 1882.38 268.039 1880.68 265.48C1878.93 262.918 1876.81 260.635 1874.38 258.71C1867.08 252.89 1858.2 250.01 1849.67 248.19C1841.31 246.442 1832.74 245.913 1824.23 246.62L1824.83 247.16C1824.74 242.261 1823.32 237.478 1820.72 233.327C1818.11 229.177 1814.42 225.817 1810.05 223.61C1805.94 221.576 1801.38 220.61 1796.8 220.8C1792.29 220.91 1788.2 222.61 1784.32 223.85C1782.42 224.495 1780.46 224.912 1778.46 225.09C1776.54 225.212 1774.61 224.975 1772.77 224.39C1769.12 223.25 1765.95 221.19 1762.84 219.33C1759.89 217.405 1756.7 215.873 1753.35 214.77C1750.26 213.822 1747.04 213.333 1743.81 213.32C1738.29 213.258 1732.84 214.636 1728.01 217.32C1724.43 219.323 1721.25 221.979 1718.65 225.15C1717.03 227.12 1715.65 229.283 1714.56 231.59C1714.17 232.38 1713.83 233.199 1713.56 234.04C1713.62 234.04 1713.93 233.21 1714.73 231.67C1715.89 229.425 1717.3 227.318 1718.94 225.39C1721.56 222.31 1724.72 219.737 1728.27 217.8C1733.04 215.228 1738.39 213.93 1743.8 214.03C1746.97 214.067 1750.11 214.569 1753.13 215.52C1756.41 216.624 1759.52 218.147 1762.41 220.05C1765.49 221.92 1768.69 224.05 1772.5 225.25C1774.43 225.882 1776.47 226.143 1778.5 226.02C1780.57 225.847 1782.61 225.427 1784.58 224.77C1788.58 223.51 1792.5 221.9 1796.82 221.77C1801.23 221.601 1805.62 222.543 1809.57 224.51C1813.76 226.642 1817.29 229.877 1819.78 233.866C1822.27 237.856 1823.63 242.448 1823.7 247.15V247.74L1824.29 247.69C1832.69 247.011 1841.15 247.543 1849.4 249.27C1857.84 251.08 1866.57 253.94 1873.63 259.58C1875.97 261.433 1878.01 263.628 1879.7 266.09C1881.32 268.531 1882.5 271.239 1883.18 274.09C1883.86 276.895 1883.99 279.805 1883.57 282.66C1883.13 285.448 1882.04 288.092 1880.37 290.37L1879.85 291.07L1880.69 291.26C1885.59 292.365 1890.2 294.48 1894.24 297.469C1898.28 300.459 1901.64 304.257 1904.13 308.622C1906.61 312.987 1908.16 317.822 1908.67 322.819C1909.18 327.815 1908.64 332.863 1907.09 337.64C1905.69 341.98 1903.42 345.9 1901.88 350.03C1900.34 354.16 1899.54 358.7 1901.13 362.68C1902.72 366.66 1905.61 369.52 1908.31 372.09C1911.02 374.419 1913.5 377.016 1915.69 379.84C1917.4 382.347 1918.54 385.2 1919.03 388.197C1919.51 391.194 1919.33 394.261 1918.5 397.18C1917.22 401.593 1914.45 405.426 1910.66 408.03C1908.3 409.686 1905.63 410.843 1902.81 411.43C1901 411.82 1899.91 411.82 1899.91 411.88Z" fill="#1A2E35"/>
<path d="M1494.27 292.22C1494.33 291.981 1494.37 291.737 1494.39 291.49L1494.63 289.37C1494.85 287.43 1495.15 284.7 1495.54 281.21C1495.93 277.72 1496.54 273.35 1497.6 268.41C1498.72 262.807 1500.5 257.356 1502.9 252.17C1505.81 245.895 1510.02 240.314 1515.26 235.8C1518.2 233.352 1521.51 231.39 1525.07 229.99C1528.95 228.692 1532.9 227.63 1536.9 226.81C1541.19 225.895 1545.26 224.17 1548.9 221.73C1552.56 219.011 1555.85 215.843 1558.72 212.3C1561.72 208.81 1564.58 205.13 1567.9 201.8C1571.2 198.388 1575.1 195.615 1579.41 193.62C1588.16 189.54 1597.78 188.5 1606.87 188.29C1615.66 188.156 1624.45 188.671 1633.17 189.83C1647.97 191.686 1662.36 195.984 1675.75 202.55C1684.75 207.03 1692.99 212.898 1700.16 219.94C1701.39 221.22 1702.54 222.31 1703.46 223.33L1705.7 225.97L1707.1 227.59C1707.25 227.781 1707.41 227.956 1707.6 228.11C1707.49 227.898 1707.35 227.7 1707.19 227.52L1705.88 225.83L1703.71 223.1C1702.82 222.1 1701.71 220.94 1700.48 219.63C1693.38 212.411 1685.15 206.396 1676.12 201.82C1662.68 195.118 1648.21 190.724 1633.31 188.82C1624.54 187.623 1615.69 187.081 1606.84 187.2C1597.68 187.4 1587.92 188.43 1578.92 192.61C1574.49 194.669 1570.48 197.523 1567.08 201.03C1563.7 204.43 1560.83 208.14 1557.86 211.61C1555.07 215.085 1551.84 218.192 1548.27 220.86C1544.74 223.26 1540.77 224.957 1536.6 225.86C1532.56 226.707 1528.58 227.795 1524.67 229.12C1521.01 230.566 1517.61 232.592 1514.6 235.12C1509.29 239.743 1505.03 245.456 1502.12 251.87C1499.74 257.131 1498 262.656 1496.93 268.33C1495.93 273.33 1495.42 277.66 1495.05 281.21C1494.68 284.76 1494.49 287.53 1494.36 289.4C1494.31 290.29 1494.27 290.99 1494.24 291.54C1494.23 291.767 1494.24 291.995 1494.27 292.22Z" fill="#1A2E35"/>
<path d="M1659.68 450.31C1659.52 447.755 1658.68 445.29 1657.23 443.177C1655.79 441.064 1653.79 439.382 1651.47 438.31C1649.11 437.313 1646.5 437.066 1644 437.603C1641.49 438.139 1639.21 439.434 1637.47 441.31C1635.91 443.173 1635 445.493 1634.88 447.918C1634.75 450.344 1635.41 452.745 1636.77 454.76C1638.05 456.854 1639.92 458.514 1642.16 459.52C1645.05 460.773 1648.24 461.121 1651.33 460.52C1653.9 460.167 1656.25 458.887 1657.94 456.92C1659.28 454.99 1659.89 452.649 1659.68 450.31Z" fill="#FF9E61"/>
<path d="M1654.88 431.9C1653.45 431.9 1654.22 441.41 1646.67 448.8C1639.12 456.19 1629 456 1629 457.31C1628.92 457.92 1631.41 458.97 1635.68 458.73C1641.23 458.35 1646.47 456.023 1650.48 452.16C1654.32 448.444 1656.57 443.382 1656.75 438.04C1656.77 434.05 1655.52 431.79 1654.88 431.9Z" fill="#1A2E35"/>
<path d="M1820.26 589L1746.79 561.14C1746.79 561.14 1690.15 594.8 1646.5 587.82C1612.67 582.41 1609.89 565.02 1609.89 565.02L1569.18 571.58C1569.18 571.58 1507.52 622.83 1494.64 674.92C1487.04 705.68 1485.19 745.92 1485.19 781.32C1485.19 795.45 1503.19 851.38 1503.19 851.38L1510.19 932.38L1476.13 1067.28H1831.5V694L1820.26 589Z" fill="#8B9DF2"/>
<path d="M1422.56 811.72L1370.96 682.5L1519.04 579.34L1569.18 571.62L1556.14 754.51L1422.56 811.72Z" fill="#8B9DF2"/>
<path d="M1499.88 836.26C1499.51 835.696 1499.19 835.096 1498.94 834.47C1498.4 833.26 1497.5 831.47 1496.59 829.17C1493.9 822.589 1491.7 815.821 1489.99 808.92C1485.43 791.5 1482.92 766.4 1485.44 739.03C1487.96 711.66 1493.87 687.4 1498.31 670.03C1500.56 661.33 1502.5 654.33 1503.87 649.5C1504.54 647.21 1505.08 645.37 1505.49 643.95C1505.65 643.293 1505.88 642.654 1506.16 642.04C1506.11 642.718 1505.99 643.388 1505.8 644.04C1505.45 645.48 1505.01 647.35 1504.46 649.66C1503.21 654.72 1501.46 661.72 1499.38 670.3C1495.22 687.73 1489.48 711.93 1486.99 739.17C1484.5 766.41 1486.8 791.3 1491.06 808.67C1492.66 815.555 1494.7 822.332 1497.16 828.96C1497.98 831.33 1498.79 833.1 1499.23 834.35C1499.51 834.963 1499.73 835.603 1499.88 836.26Z" fill="#1A2E35"/>
<g opacity="0.3">
<path d="M1483 764.79L1486.24 762.47C1486.07 723.22 1492.62 681.66 1505.51 644.58C1481.45 680.17 1471.21 725 1483 764.79Z" fill="black"/>
</g>
<path opacity="0.3" d="M1584.87 746.93C1584.87 746.93 1635.87 935.6 1664.25 970.2C1692.63 1004.8 1708.16 1015.13 1751.98 1018.61C1795.8 1022.09 1812.04 971.43 1821.77 951.67C1831.5 931.91 1829.77 902.24 1829.77 902.24L1770 868.88L1722.77 946.72L1601.1 743.57L1584.87 746.93Z" fill="black"/>
<path d="M1592.85 771.5C1592.85 771.5 1644.77 892.27 1681.99 961.5C1713.5 1020.13 1777.79 1013.62 1798.19 981.01C1818.59 948.4 1852.72 850.75 1852.72 850.75L1744.28 831.75L1732.2 866.1L1650 761.24L1592.85 771.5Z" fill="#FFBD66"/>
<path d="M1681.57 754.1L1673.57 717.98C1673.57 717.98 1669.93 707.98 1663.98 716.8C1658.03 725.62 1660.8 742.25 1660.8 742.25C1660.8 742.25 1649.57 656.34 1639.7 646.98C1636.1 643.57 1631.15 648.27 1631.15 648.27C1631.15 648.27 1630 631.46 1624.73 631.57C1619.46 631.68 1614.48 644.2 1614.48 644.2C1612.53 643.211 1610.29 642.937 1608.16 643.424C1606.02 643.912 1604.13 645.131 1602.8 646.87C1598.19 652.46 1598.16 699.17 1598.16 699.17C1598.16 699.17 1593.78 660.69 1586.89 658.26C1575.89 654.37 1575.89 669.02 1575.89 669.02L1579.11 719.1C1579.11 719.1 1585.11 753.28 1592.73 774.77C1600.35 796.26 1604.73 796.49 1604.73 796.49L1654.23 795.17C1654.23 795.17 1665.39 784.95 1674.23 777.05C1677.38 774.218 1679.72 770.601 1681.01 766.568C1682.3 762.536 1682.49 758.233 1681.57 754.1Z" fill="#FFBD66"/>
<path d="M1765.55 914.77C1765.21 914.306 1764.93 913.802 1764.71 913.27L1762.59 908.87L1758.74 902.17C1757.16 899.61 1755.24 896.76 1753.19 893.58C1744.62 881.04 1731.68 864.49 1716.95 846.58C1702.22 828.67 1688.61 812.64 1679.06 800.78C1674.28 794.86 1670.51 789.99 1667.98 786.56C1666.83 784.94 1665.89 783.62 1665.15 782.56C1664.79 782.115 1664.48 781.624 1664.25 781.1C1664.68 781.478 1665.07 781.904 1665.4 782.37L1668.46 786.2C1671.13 789.5 1675.02 794.26 1679.91 800.08C1689.66 811.75 1703.39 827.67 1718.15 845.6C1732.91 863.53 1745.74 880.22 1754.1 892.98C1756.1 896.22 1757.97 899.12 1759.49 901.74C1761.01 904.36 1762.19 906.74 1763.14 908.61C1763.89 910.46 1764.51 911.96 1765 913.16C1765.25 913.673 1765.43 914.213 1765.55 914.77Z" fill="#66312B"/>
<path d="M1808.07 585.83C1808.07 585.83 1867.27 597.93 1882.17 664.94C1895.86 726.56 1891.62 857.62 1891.62 857.62L1730.41 829.25L1769.63 605.48L1808.07 585.83Z" fill="#8B9DF2"/>
<path d="M1753.29 692.74C1753.32 692.976 1753.32 693.214 1753.29 693.45C1753.22 694.01 1753.13 694.68 1753.02 695.52C1752.73 697.45 1752.34 700.1 1751.84 703.44C1750.72 710.44 1749.14 720.38 1747.19 732.61C1743.11 757.37 1737.48 791.46 1731.19 829.37L1730.56 828.48L1735.83 829.42L1835.89 847.48L1866.18 853.13L1874.4 854.75L1876.53 855.2C1876.78 855.246 1877.02 855.316 1877.25 855.41C1877 855.448 1876.75 855.448 1876.5 855.41L1874.34 855.1L1866.07 853.78L1835.69 848.62L1735.55 831L1730.27 830.06L1729.51 829.93L1729.64 829.17C1736.09 791.28 1741.88 757.23 1746.09 732.48C1748.24 720.28 1749.98 710.38 1751.21 703.39L1752.68 695.52C1752.85 694.69 1752.98 694.02 1753.1 693.52C1753.12 693.251 1753.18 692.988 1753.29 692.74Z" fill="#1A2E35"/>
<path d="M1762.33 671.24C1762.6 669.917 1763.01 668.627 1763.55 667.39C1764.45 664.96 1765.79 661.45 1767.61 657.18C1771.31 648.76 1776.78 636.75 1786.97 626.56C1791.75 621.804 1797.32 617.922 1803.44 615.09C1808.42 612.784 1813.66 611.105 1819.05 610.09C1822.68 609.385 1826.36 609.003 1830.05 608.95C1831.39 608.852 1832.73 608.915 1834.05 609.14C1834.05 609.47 1828.28 609.22 1819.27 611.14C1810.26 613.06 1797.98 617.64 1788.07 627.63C1778.16 637.62 1772.55 649.31 1768.62 657.63L1764.11 667.63C1763.64 668.888 1763.04 670.097 1762.33 671.24Z" fill="#1A2E35"/>
<path d="M1613.57 706.71C1613.36 706.71 1613.07 703.22 1612.76 697.56C1612.45 691.9 1612.14 684.08 1612.1 675.43C1612.03 668.036 1612.33 660.643 1613 653.28C1613.56 647.62 1614.3 644.17 1614.5 644.2C1614.7 644.23 1614.38 647.72 1614.09 653.36C1613.8 659 1613.63 666.8 1613.66 675.43C1613.74 683.81 1613.81 691.43 1613.86 697.53C1613.89 703.19 1613.79 706.7 1613.57 706.71Z" fill="#66312B"/>
<path d="M1629.93 648.86C1630.15 648.86 1630.26 651.72 1630.4 656.33C1630.54 660.94 1630.73 667.33 1631.09 674.33C1631.45 681.33 1631.92 687.69 1632.26 692.33C1632.6 696.97 1632.77 699.78 1632.55 699.81C1632.33 699.84 1631.78 697.03 1631.16 692.45C1630.54 687.87 1629.9 681.5 1629.54 674.45C1629.18 667.4 1629.16 661 1629.3 656.38C1629.44 651.76 1629.72 648.86 1629.93 648.86Z" fill="#66312B"/>
<path d="M517.3 302.52C513.3 275.91 506.72 246.82 489.16 226.43C476.49 211.73 464.05 200.43 447.44 190.43C429.7 179.67 414 176.15 395 174.12L382.51 185.19C422.51 194.87 457.23 222.62 477.65 258.31C498.07 294 504.5 337.02 497.85 377.61C493.5 404.18 483.85 429.55 476.5 455.46C469.15 481.37 464.1 508.72 469.19 535.16C491.19 526.62 484.95 541.06 494.19 519.39C503.43 497.72 508.27 450.02 513.66 427.08C522.55 389.24 522.78 339 517.3 302.52Z" fill="#758AEC"/>
<path d="M495.77 243.26C462.09 190.91 383.46 174.78 383.46 174.78C268.36 166.54 247.8 255 236.18 335.55C228.95 385.65 255.53 542.14 255.53 542.14L283.73 552.33L469 552.26C468.9 548.88 482.1 520.53 485.33 511.26C502.32 427.56 515.59 274.06 495.77 243.26Z" fill="#161C1E"/>
<path d="M399.84 204.78L392.64 197.91L314.82 229.28C309.393 229.578 304.276 231.9 300.478 235.788C296.681 239.677 294.48 244.848 294.31 250.28L295 503.87C294.9 521.06 298.35 535.95 308.73 549.66L319.66 564.09C344.58 596.99 395.84 594.28 415.57 558.03C416.767 555.974 417.694 553.772 418.33 551.48C418.82 549.613 419.203 547.72 419.48 545.81C421.8 525.4 421.93 507.72 421.93 507.72C423.32 485.32 423.78 476.13 423.78 476.34C423.78 476.34 471.44 470.86 484.33 409.67C490.74 379.25 489.53 337.38 487.73 296.18C485.23 239.17 445.68 204.72 399.84 204.78Z" fill="#FFBD66"/>
<path d="M385.77 334.2C385.687 336.258 384.805 338.204 383.311 339.622C381.818 341.041 379.83 341.822 377.77 341.8C376.76 341.829 375.754 341.656 374.812 341.291C373.87 340.926 373.011 340.375 372.285 339.673C371.559 338.97 370.981 338.129 370.585 337.199C370.189 336.27 369.984 335.27 369.98 334.26C370.061 332.201 370.942 330.254 372.436 328.835C373.93 327.415 375.919 326.635 377.98 326.66C378.99 326.632 379.995 326.806 380.936 327.172C381.877 327.538 382.736 328.088 383.462 328.791C384.188 329.493 384.766 330.333 385.162 331.262C385.558 332.191 385.765 333.19 385.77 334.2Z" fill="#1A2E35"/>
<path d="M464.16 336.86C464.079 338.919 463.198 340.866 461.704 342.285C460.21 343.705 458.221 344.485 456.16 344.46C455.149 344.491 454.143 344.319 453.199 343.954C452.256 343.589 451.396 343.039 450.669 342.336C449.942 341.633 449.363 340.792 448.966 339.862C448.57 338.932 448.364 337.931 448.36 336.92C448.443 334.862 449.325 332.916 450.819 331.498C452.312 330.079 454.3 329.298 456.36 329.32C457.371 329.289 458.377 329.461 459.321 329.826C460.264 330.191 461.124 330.741 461.851 331.444C462.578 332.147 463.157 332.988 463.554 333.918C463.95 334.849 464.156 335.849 464.16 336.86Z" fill="#1A2E35"/>
<path d="M479.58 312.48C478.58 313.48 472.78 308.73 464.26 308.32C455.74 307.91 449.26 311.86 448.43 310.77C448 310.29 449.09 308.48 451.91 306.63C455.723 304.268 460.172 303.14 464.65 303.4C469.079 303.609 473.327 305.219 476.78 308C479.29 310.13 480.09 312 479.58 312.48Z" fill="#1A2E35"/>
<path d="M393.2 313.36C392.07 314.23 386.81 308.93 378.39 307.65C369.97 306.37 363.14 309.65 362.39 308.47C362.01 307.94 363.28 306.25 366.28 304.71C370.31 302.74 374.852 302.069 379.28 302.79C383.664 303.448 387.724 305.487 390.87 308.61C393.15 311 393.75 313 393.2 313.36Z" fill="#1A2E35"/>
<path d="M422.94 375.32C422.94 374.84 428.26 374.19 436.89 373.52C439.07 373.4 441.15 373.08 441.59 371.61C442.18 370.06 441.39 367.68 440.47 365.1C438.677 359.727 436.81 354.1 434.87 348.22C427.12 324.22 421.63 304.51 422.6 304.22C423.57 303.93 430.6 323.13 438.38 347.14C440.24 353.06 442.02 358.7 443.7 364.14C444.4 366.65 445.7 369.52 444.4 372.73C444.046 373.48 443.527 374.14 442.881 374.66C442.234 375.179 441.478 375.545 440.67 375.73C439.462 375.97 438.23 376.061 437 376C428.3 376 423 375.81 422.94 375.32Z" fill="#1A2E35"/>
<path d="M423.77 476.34C423.77 476.34 382.14 476.93 342.27 450.16C342.27 450.16 360.9 493.9 422.92 491.22L423.77 476.34Z" fill="#FF9C6A"/>
<path d="M418.31 395.65C416.793 393.531 414.761 391.833 412.406 390.717C410.051 389.6 407.451 389.102 404.85 389.27C402.963 389.343 401.111 389.798 399.405 390.605C397.698 391.413 396.173 392.558 394.92 393.97C392.52 396.86 391.84 401.11 393.73 404.08C395.87 407.43 400.63 408.41 404.73 407.46C408.83 406.51 412.5 404 416 401.52C416.99 400.883 417.855 400.07 418.55 399.12C418.889 398.667 419.084 398.123 419.111 397.558C419.138 396.993 418.995 396.433 418.7 395.95" fill="#FF9C6A"/>
<path d="M397.6 380C398.98 380 398.54 389.23 406.12 396.19C413.7 403.15 423.58 402.62 423.59 403.91C423.69 404.5 421.31 405.6 417.14 405.5C411.723 405.307 406.549 403.206 402.53 399.57C398.668 396.07 396.326 391.201 396 386C395.82 382.11 397 379.87 397.6 380Z" fill="#1A2E35"/>
<path d="M401.35 280.18C400.17 282.34 391.93 279.97 381.86 279.65C371.8 279.12 363.39 280.79 362.39 278.54C361.96 277.46 363.68 275.54 367.24 273.8C371.957 271.741 377.082 270.783 382.224 271C387.367 271.216 392.393 272.601 396.92 275.05C400.33 277.07 401.88 279.15 401.35 280.18Z" fill="#1A2E35"/>
<path d="M478.35 275.91C476.76 277.77 471 275.47 463.95 275.02C456.95 274.33 450.86 275.67 449.59 273.57C449.04 272.57 450.08 270.67 452.78 268.97C456.4 266.941 460.542 266.037 464.678 266.373C468.814 266.71 472.756 268.272 476 270.86C478.34 273 479.06 275 478.35 275.91Z" fill="#1A2E35"/>
<path d="M295.86 358.52C295.86 358.52 339.46 372.09 364.13 264.52C372.56 227.73 406.67 197.94 406.67 197.94L392.83 193.78C392.83 193.78 306.83 218 305.42 219.08C304.01 220.16 283.73 263.55 283.73 263.55L295.86 358.52Z" fill="#161C1E"/>
<path d="M306.6 354.51C306.82 349.92 302.06 338.82 297.6 337.89C285.6 335.39 263.7 335.27 261.95 366.02C259.57 408.02 302.26 401.78 302.41 400.58C302.48 399.64 305.85 370.37 306.6 354.51Z" fill="#FFC19D"/>
<path d="M290.43 383.93C290.25 383.78 289.67 384.4 288.43 384.93C286.645 385.57 284.683 385.498 282.95 384.73C278.6 382.85 275.26 375.58 275.48 367.99C275.578 364.379 276.483 360.835 278.13 357.62C279.59 354.62 281.7 352.62 283.96 352.32C284.813 352.144 285.7 352.273 286.468 352.684C287.235 353.095 287.834 353.763 288.16 354.57C288.66 355.78 288.35 356.57 288.57 356.68C288.79 356.79 289.51 356.03 289.27 354.28C289.097 353.223 288.563 352.258 287.76 351.55C286.65 350.606 285.213 350.138 283.76 350.25C280.51 350.25 277.42 353.11 275.76 356.33C273.766 359.872 272.667 363.847 272.56 367.91C272.35 376.39 276.23 384.56 282.21 386.67C283.321 387.059 284.504 387.195 285.674 387.067C286.844 386.939 287.97 386.55 288.97 385.93C290.29 384.94 290.57 384 290.43 383.93Z" fill="#FF9C6A"/>
<path d="M325.43 337.94C327.55 337.625 329.653 337.201 331.73 336.67C337.332 334.965 342.465 331.992 346.73 327.98C349.678 325.246 352.299 322.178 354.54 318.84C357.054 314.961 359.181 310.845 360.89 306.55C364.61 297.5 367 286.94 369.94 275.98C372.88 265.02 376.1 254.66 379.61 245.46C382.679 237.28 386.356 229.341 390.61 221.71C393.47 216.566 396.685 211.628 400.23 206.93C401.48 205.26 402.56 204.06 403.23 203.21C403.546 202.773 403.904 202.367 404.3 202C404.023 202.486 403.705 202.948 403.35 203.38C402.72 204.27 401.7 205.52 400.51 207.22C397.119 211.995 394.02 216.97 391.23 222.12C387.114 229.768 383.545 237.698 380.55 245.85C377.1 255.03 373.94 265.36 370.99 276.3C368.04 287.24 365.63 297.83 361.81 306.97C360.05 311.318 357.859 315.479 355.27 319.39C352.975 322.764 350.289 325.855 347.27 328.6C342.895 332.629 337.617 335.551 331.88 337.12C329.78 337.697 327.608 337.973 325.43 337.94Z" fill="#1A2E35"/>
<path d="M260.36 513.26C261.021 508.392 261.332 503.483 261.29 498.57C261.38 489.08 260.19 475.34 257.22 458.64C255.72 450.3 254.08 441.17 252.31 431.37C250.42 420.956 249.165 410.436 248.55 399.87C248.03 388.73 248.38 376.87 251.09 365.08C252.444 359.069 254.425 353.217 257 347.62C259.707 341.873 263.062 336.455 267 331.47C274.89 321.28 284.33 312.83 293.48 304.81C302.63 296.79 311.48 289 319.36 280.97C333.333 266.819 345.986 251.421 357.16 234.97C364.706 223.905 371.546 212.376 377.64 200.45C379.79 196.22 381.39 192.91 382.4 190.63L383.58 188.04C383.726 187.754 383.846 187.457 383.94 187.15C383.761 187.417 383.604 187.698 383.47 187.99C383.16 188.61 382.74 189.45 382.19 190.53C381.11 192.77 379.45 196.05 377.24 200.24C371.003 212.064 364.071 223.507 356.48 234.51C345.241 250.842 332.563 266.136 318.6 280.21C310.76 288.21 301.96 295.96 292.73 303.94C283.5 311.92 274 320.46 266 330.76C262.053 335.817 258.697 341.309 256 347.13C253.384 352.8 251.373 358.729 250 364.82C247.27 376.82 247 388.72 247.5 399.92C248.148 410.526 249.447 421.083 251.39 431.53C253.2 441.32 254.89 450.45 256.39 458.79C259.46 475.44 260.77 489.11 260.82 498.57C260.87 503.3 260.71 506.98 260.55 509.46C260.47 510.67 260.41 511.6 260.37 512.29C260.34 512.613 260.337 512.937 260.36 513.26Z" fill="#375A64"/>
<path d="M246.83 517.22C247.491 512.348 247.802 507.436 247.76 502.52C247.85 493.03 246.66 479.29 243.69 462.6C242.19 454.25 240.55 445.12 238.78 435.32C236.89 424.906 235.635 414.386 235.02 403.82C234.5 392.69 234.85 380.82 237.56 369.03C238.915 363.02 240.896 357.168 243.47 351.57C246.166 345.828 249.504 340.41 253.42 335.42C261.31 325.23 270.75 316.78 279.9 308.76C289.05 300.74 297.9 292.95 305.78 284.92C319.755 270.771 332.408 255.373 343.58 238.92C351.128 227.857 357.968 216.327 364.06 204.4C366.21 200.18 367.81 196.86 368.83 194.58C369.32 193.48 369.71 192.58 370 191.99C370.148 191.705 370.268 191.407 370.36 191.1C370.189 191.372 370.032 191.652 369.89 191.94C369.58 192.56 369.16 193.4 368.61 194.48C367.53 196.72 365.87 200 363.66 204.19C357.426 216.015 350.493 227.458 342.9 238.46C331.66 254.8 318.975 270.098 305 284.17C297.16 292.17 288.36 299.93 279.13 307.9C269.9 315.87 260.46 324.41 252.49 334.71C248.512 339.765 245.13 345.261 242.41 351.09C239.793 356.759 237.781 362.688 236.41 368.78C233.68 380.78 233.41 392.68 233.91 403.87C234.558 414.48 235.857 425.04 237.8 435.49C239.61 445.28 241.3 454.4 242.8 462.74C245.87 479.39 247.18 493.06 247.23 502.53C247.29 507.26 247.13 510.93 246.96 513.42C246.88 514.62 246.82 515.56 246.78 516.25C246.77 516.574 246.787 516.899 246.83 517.22Z" fill="#375A64"/>
<path d="M186 1066.91C186 1066.91 182.07 1031.91 204.45 973.46C222.79 925.55 244.32 899.11 244.32 899.11L534.24 880L556.59 1066.9L186 1066.91Z" fill="#1A2E35"/>
<path d="M530.94 771.31C535.2 706.75 530.94 608.89 530.94 608.89L483.06 528.57L420 518.68C420 518.68 419.85 562.8 386.86 570.1C330.45 582.57 293.68 514.73 293.68 514.73C288.36 514.73 208.09 531.58 182.68 555.8C156.55 580.67 113.29 646.65 101.1 665.56C101.1 665.56 16.54 789 4.16005 822.82C-5.19995 848.4 3.49005 868 8.30005 876.08C10.87 883.72 89.1 995.9 149.62 1040.71L154.34 1031.71L185.77 977.83L104.37 844.08L198.8 744.62L217.35 727.18L222.68 750.67L245.59 861.1C245.59 861.1 199.96 952.31 193.59 999.72C193.59 999.72 417.91 1077.04 556.32 1038.86C556.3 1038.86 526.68 835.88 530.94 771.31Z" fill="#8B9DF2"/>
<path d="M295 953.66C295 953.66 257 943.42 253.21 945.57C249.42 947.72 221.05 962.68 221.05 962.68C221.05 962.68 212.34 973.36 207.67 977.17C207.67 977.17 197.94 986.4 191.23 986.71C187.633 986.981 184.017 986.591 180.56 985.56L154.31 1031.76C154.31 1031.76 169.89 1046.6 178.13 1046.46C186.37 1046.32 232.13 1027.08 232.13 1027.08L243.13 1024.67C243.13 1024.67 284.63 1030.67 288.02 1018.19L288.4 1014.63L247.63 1006.63L232.12 1007.53L259.61 1000.44C259.61 1000.44 298.46 1002.33 302.13 1001.69C305.8 1001.05 310.46 995.91 309.26 992.69L301.26 990.8C301.26 990.8 310.68 985.68 310.97 980.05L275.05 970.33C275.05 970.33 298.27 961.72 295 953.66Z" fill="#FFBD66"/>
<path d="M305.57 990.7C304.446 990.548 303.342 990.269 302.28 989.87C300.19 989.26 297.15 988.42 293.38 987.44C285.84 985.44 275.38 983 263.74 980.44C262.353 980.088 260.948 979.815 259.53 979.62C258.19 979.501 256.84 979.596 255.53 979.9C252.95 980.61 250.31 981.51 247.9 982.32C243.04 983.98 238.71 985.65 235.15 987.18C232.335 988.374 229.581 989.709 226.9 991.18C225 992.18 224.01 992.92 223.9 992.8C224.653 991.935 225.541 991.199 226.53 990.62C229.112 988.899 231.82 987.375 234.63 986.06C238.17 984.37 242.49 982.57 247.36 980.82C249.83 979.95 252.36 979.05 255.14 978.25C256.616 977.9 258.138 977.785 259.65 977.91C261.145 978.101 262.628 978.382 264.09 978.75C275.73 981.33 286.19 984 293.68 986.27C297.43 987.4 300.43 988.41 302.47 989.27C303.568 989.591 304.613 990.073 305.57 990.7Z" fill="#FF9C6A"/>
<path d="M276 972.11C275.86 972.36 273.13 970.79 268.35 969.32C262.144 967.369 255.576 966.85 249.14 967.8C242.704 968.751 236.567 971.148 231.19 974.81C227.04 977.59 224.87 979.89 224.67 979.69C224.47 979.49 226.4 976.96 230.49 973.83C235.88 969.759 242.206 967.108 248.888 966.121C255.57 965.134 262.393 965.842 268.73 968.18C273.55 970 276.09 972 276 972.11Z" fill="#FF9C6A"/>
<path d="M725.8 683.42L577.81 573.24L522.54 536.86L481.72 528.57L499.06 701.1H537.4L702.41 772.83L904.54 789.98L907.52 727.33L725.8 683.42Z" fill="#8B9DF2"/>
<path d="M533.63 846.94C533.496 846.093 533.426 845.237 533.42 844.38C533.34 842.56 533.233 840.113 533.1 837.04C532.85 830.66 532.59 821.42 532.38 810.04C532.17 798.66 532.02 785.04 532.01 769.95C532 754.86 532.15 738.27 531.87 720.88C531.78 686.03 525.27 655 520.08 632.88C517.47 621.78 515.19 612.88 513.66 606.63L511.92 599.49C511.679 598.67 511.512 597.83 511.42 596.98C511.75 597.768 512.017 598.58 512.22 599.41L514.22 606.48C515.93 612.63 518.37 621.54 521.12 632.62C526.59 654.72 533.3 685.9 533.4 720.89C533.67 738.32 533.4 754.89 533.4 769.99C533.4 785.09 533.4 798.66 533.4 810.07C533.4 821.48 533.57 830.56 533.63 837.07C533.63 840.15 533.63 842.6 533.63 844.42C533.703 845.258 533.703 846.102 533.63 846.94Z" fill="#1A2E35"/>
<g opacity="0.3">
<path d="M532.68 704.36C545.07 659.83 532.59 609.23 500.92 575.57C517.706 615.863 528.533 658.386 533.06 701.8" fill="black"/>
</g>
<path d="M410.69 176.12C318.01 184.43 314.37 297.71 302.05 387.12C284.44 514.78 377.86 542.19 377.86 542.19L261.86 520.44C261.86 520.44 198.38 494.74 198.86 424.28C199.34 353.82 210.33 267.52 284.21 202C348 145.37 404.85 172.25 410.69 176.12Z" fill="#758AEC"/>
<path d="M500.92 514.73C493.92 508.4 496.63 505.98 476.6 504.13C453.98 502.05 428.71 516.53 406.19 519.53C383.67 522.53 359.62 519.53 340.72 506.94C318.57 492.16 306.47 466.68 295.41 442.46L241 487.22C235.74 491.47 231.53 496.876 228.698 503.017C225.866 509.158 224.488 515.87 224.67 522.63C224.79 525.63 225.16 528.14 225.96 529.34C229.14 534.12 252.49 522.84 257.2 526.13C282.12 543.56 292.74 571.25 315.58 591.34C342.27 614.84 366.97 633.48 385.77 632.83C404.22 632.19 439.28 612.27 451.77 589.2C463.28 567.87 473.33 552.33 482.36 536.06C487.13 527.47 503.73 539.56 505.72 529.34C506.226 526.698 506.05 523.97 505.211 521.414C504.371 518.858 502.894 516.558 500.92 514.73Z" fill="#758AEC"/>
<path d="M198.8 647.83C199.09 648.514 199.315 649.224 199.47 649.95C199.877 651.497 200.42 653.547 201.1 656.1C202.47 661.63 204.38 669.35 206.72 678.82C211.36 698.02 217.61 724.6 224.22 754.02C230.83 783.44 236.53 810.15 240.31 829.55C242.2 839.25 243.6 847.13 244.49 852.55C244.86 855.17 245.16 857.26 245.39 858.86C245.529 859.588 245.596 860.329 245.59 861.07C245.353 860.364 245.182 859.638 245.08 858.9C244.78 857.333 244.383 855.253 243.89 852.66C242.76 847.08 241.18 839.29 239.24 829.74C235.17 810.4 229.3 783.74 222.7 754.33C216.1 724.92 210.05 698.45 205.7 679.04C203.56 669.52 201.81 661.77 200.56 656.21L199.16 650C198.973 649.289 198.853 648.563 198.8 647.83Z" fill="#1A2E35"/>
<path d="M500.92 526.43C500.92 526.43 500.73 526.6 500.31 526.85L498.45 527.92C496.075 529.327 493.629 530.609 491.12 531.76C484.68 534.95 474.83 538.56 462.29 541.41C449.75 544.26 434.47 546.06 417.48 546.5C400.49 546.94 381.82 546.14 362.29 544.87C352.52 544.24 342.97 543.28 333.82 541.87C324.67 540.46 315.95 538.57 307.71 536.47C293.118 532.711 278.93 527.529 265.35 521C256.207 516.59 247.432 511.453 239.11 505.64C236.11 503.64 233.99 501.83 232.47 500.71L230.78 499.38C230.41 499.07 230.22 498.9 230.24 498.88C230.468 498.976 230.683 499.101 230.88 499.25L232.66 500.46C234.23 501.46 236.41 503.24 239.45 505.14C247.867 510.734 256.684 515.701 265.83 520C279.397 526.36 293.537 531.42 308.06 535.11C316.27 537.11 324.97 538.97 334.06 540.4C343.15 541.83 352.64 542.72 362.39 543.4C381.91 544.66 400.52 545.59 417.44 545.14C434.36 544.69 449.56 543.14 462.06 540.42C471.959 538.405 481.617 535.345 490.87 531.29C494.21 529.98 496.57 528.49 498.3 527.72L500.23 526.79C500.441 526.636 500.673 526.515 500.92 526.43Z" fill="#1A2E35"/>
<path d="M323.09 538.58C322.875 538.492 322.676 538.371 322.5 538.22L320.85 537L314.62 532.32C311.91 530.32 308.76 527.59 305.02 524.56C303.18 523.02 301.29 521.27 299.23 519.47C297.17 517.67 295.05 515.72 292.9 513.58C284.22 505.17 274.28 494.48 265.9 480.73C256.678 465.787 251.47 448.716 250.78 431.17C250.09 412.54 253.78 395.04 257.84 379.59C261.9 364.14 266.41 350.39 270.01 338.85L278.5 311.49C279.45 308.36 280.2 305.87 280.75 304.04C281 303.27 281.21 302.63 281.37 302.11C281.53 301.59 281.61 301.46 281.64 301.47C281.636 301.701 281.599 301.93 281.53 302.15L281.05 304.15C280.57 306.01 279.903 308.523 279.05 311.69C277.26 318.22 274.54 327.63 271.05 339.2C267.56 350.77 263.23 364.52 259.22 379.98C255.21 395.44 251.64 412.77 252.32 431.14C253.005 448.423 258.1 465.242 267.12 480C275.35 493.64 285.12 504.33 293.67 512.81C295.79 514.963 297.867 516.943 299.9 518.75C301.9 520.57 303.78 522.34 305.59 523.91C309.26 526.99 312.35 529.75 314.99 531.86C317.63 533.97 319.56 535.55 321.04 536.76L322.59 538.06C322.94 538.4 323.11 538.56 323.09 538.58Z" fill="#1A2E35"/>
<path d="M410.69 176.12C410.69 176.45 405.86 176.69 398.42 178.84C394.072 180.117 389.834 181.746 385.75 183.71C380.777 186.183 375.988 189.01 371.42 192.17C363.175 198.034 355.477 204.63 348.42 211.88C342.96 217.43 339.78 221.06 339.59 220.88C340.137 219.876 340.809 218.945 341.59 218.11C342.94 216.39 344.99 213.98 347.64 211.11C354.537 203.569 362.221 196.787 370.56 190.88C375.199 187.678 380.08 184.842 385.16 182.4C389.342 180.462 393.694 178.912 398.16 177.77C399.867 177.306 401.6 176.945 403.35 176.69C404.668 176.42 406.006 176.252 407.35 176.19C408.457 176.036 409.578 176.013 410.69 176.12Z" fill="#1A2E35"/>
<g opacity="0.3">
<path d="M292.23 272.93C292.98 270.117 293.565 267.262 293.98 264.38C294.72 258.94 286.92 257.08 284.98 262.21C278.86 278.443 272.743 294.67 266.63 310.89C254.53 342.98 242.27 375.84 241.63 410.13C240.99 444.42 251.93 482.54 280.92 500.86L272.49 485.86C250.63 455.86 250.02 415.06 258.38 378.86C266.74 342.66 283 308.86 292.23 272.93Z" fill="black"/>
</g>
<path d="M502.58 534.66C502.44 534.58 503.31 533.3 503.95 530.66C504.761 526.958 504.412 523.096 502.95 519.6C501.26 515.17 497.21 510.73 491.48 508.08C485.75 505.43 478.68 504.45 471.36 505.08C464.439 505.805 457.574 506.988 450.81 508.62C444.55 510.05 438.96 511.62 434.3 513C429.64 514.38 425.91 515.68 423.3 516.55C421.986 517.084 420.628 517.499 419.24 517.79C420.458 517.056 421.748 516.449 423.09 515.98C425.61 514.98 429.3 513.51 433.94 511.98C438.58 510.45 444.16 508.76 450.46 507.24C457.278 505.508 464.213 504.275 471.21 503.55C478.69 502.92 486.14 503.85 492.08 506.83C498.02 509.81 502.3 514.5 503.95 519.25C505.385 522.96 505.567 527.037 504.47 530.86C504.162 531.881 503.732 532.861 503.19 533.78C502.85 534.38 502.63 534.68 502.58 534.66Z" fill="#1A2E35"/>
<g opacity="0.3">
<path d="M471.76 540.12C436.097 555.954 396.774 561.706 358.07 556.75C319.61 551.75 287.56 540.63 257.35 516.31C257.35 516.31 305.52 544.13 380.29 544.72C442.43 545.21 471.76 540.12 471.76 540.12Z" fill="black"/>
</g>
</svg>
