<svg width="270" height="270" viewBox="0 0 270 270" fill="none" xmlns="http://www.w3.org/2000/svg">
<rect width="270" height="270" rx="39" fill="white"/>
<path d="M223.854 56.8199V66.7956C223.854 72.4995 219.234 77.1211 213.532 77.1211H202.07C199.038 77.1211 196.158 75.7877 194.195 73.4748L174.418 50.1447C172.456 47.8319 169.576 46.4985 166.544 46.4985H144.006C135.087 46.4985 130.364 57.0545 136.313 63.7049L147.981 76.7548L182.388 114.888C184.346 117.057 187.127 118.295 190.052 118.295H239.678C245.38 118.295 250 113.674 250 107.97V56.8199C250 51.116 245.38 46.4944 239.678 46.4944H234.173C228.471 46.4944 223.85 51.116 223.85 56.8199H223.854Z" fill="#486CEA"/>
<path d="M98.3224 148.605L123.83 122.571C126.41 119.938 127.854 116.398 127.854 112.711V94.5291C127.854 91.2204 126.69 88.0227 124.571 85.4835L96.1666 51.5398C93.4924 48.3422 89.5345 46.4944 85.3669 46.4944H35.0833C27.3034 46.4944 20.9963 52.8033 20.9963 60.5855V209.418C20.9963 217.201 27.3034 223.509 35.0833 223.509H36.046C43.8259 223.509 50.133 217.201 50.133 209.418V190.187C50.133 182.405 56.44 176.096 64.22 176.096H69.5026C73.2876 176.096 76.9122 177.619 79.5618 180.323L94.3564 195.426C96.9442 198.068 98.3924 201.624 98.38 205.319L98.3718 209.381C98.3553 217.176 104.667 223.505 112.459 223.505C120.239 223.505 126.546 217.196 126.546 209.414V202.883C126.546 199.196 125.102 195.656 122.522 193.023L98.3266 168.326C92.9575 162.849 92.9575 154.083 98.3266 148.601L98.3224 148.605ZM74.4972 138.724H64.22C56.44 138.724 50.133 132.415 50.133 124.633V81.0677C50.133 73.2855 56.44 66.9767 64.22 66.9767H69.5026C73.2876 66.9767 76.9122 68.4993 79.5618 71.2032L94.3728 86.319C96.9524 88.9528 98.3965 92.492 98.3965 96.1794V108.575C98.3965 112.262 96.9524 115.802 94.3728 118.435L74.5013 138.72L74.4972 138.724Z" fill="#486CEA"/>
<path d="M160.237 113.904C157.163 111.102 152.42 111.233 149.507 114.209L108.797 155.762C105.172 159.462 105.172 165.384 108.797 169.083L115.088 175.499C117.301 177.759 120.666 178.442 123.583 177.224L125.97 176.228C128.887 175.01 132.252 175.693 134.465 177.952L145.376 189.088C146.792 190.533 147.586 192.475 147.586 194.5V215.768C147.586 220.04 151.046 223.501 155.316 223.501H175.616C179.886 223.501 183.346 220.04 183.346 215.768V138.387C183.346 136.21 182.429 134.136 180.824 132.67L160.237 113.904ZM168.691 144.638L167.527 166.709C167.181 173.232 159.414 176.413 154.592 172.009L142.097 160.589C138.868 157.638 138.728 152.593 141.789 149.465L152.087 138.955C155.119 135.86 160.097 135.86 163.129 138.955L168.691 144.634V144.638Z" fill="#486CEA"/>
<path d="M235.366 137.716L227.129 156.145C226.393 157.795 224.751 158.857 222.945 158.857H217.568C214.277 158.857 212.059 155.486 213.359 152.462L218.115 141.395C219.415 138.37 217.198 135 213.906 135H201.181C198.651 135 196.598 137.054 196.598 139.585V209.575C196.598 213.999 202.243 215.855 204.867 212.295L224.447 185.751C227.072 182.191 232.716 184.051 232.716 188.471V218.917C232.716 221.448 234.769 223.501 237.3 223.501H244.503C247.034 223.501 249.087 221.448 249.087 218.917V139.58C249.087 137.049 247.034 134.996 244.503 134.996H239.55C237.744 134.996 236.102 136.058 235.366 137.708V137.716Z" fill="#486CEA"/>
</svg>
