<svg width="74" height="43" viewBox="0 0 74 43" fill="none" xmlns="http://www.w3.org/2000/svg">
<path d="M0 43C0.504545 36.9276 2.34109 31.3375 5.50964 26.2299C8.67818 21.1222 12.8962 17.0645 18.1636 14.0567L11.9409 3.16036C11.6045 2.64959 11.5205 2.11045 11.6886 1.54293C11.8568 0.975418 12.2212 0.549781 12.7818 0.266023C13.2303 -0.0177356 13.7348 -0.0744862 14.2955 0.0957687C14.8561 0.266024 15.3045 0.606532 15.6409 1.1173L21.8636 12.0136C26.6848 9.97055 31.7303 8.94902 37 8.94902C42.2697 8.94902 47.3152 9.97055 52.1364 12.0136L58.3591 1.1173C58.6955 0.606532 59.1439 0.266024 59.7045 0.0957687C60.2651 -0.0744862 60.7697 -0.0177356 61.2182 0.266023C61.7788 0.549781 62.1432 0.975418 62.3114 1.54293C62.4795 2.11045 62.3955 2.64959 62.0591 3.16036L55.8364 14.0567C61.1061 17.0645 65.3241 21.1222 68.4904 26.2299C71.6567 31.3375 73.4932 36.9276 74 43H0ZM20.1818 33.636C21.3591 33.636 22.3547 33.224 23.1687 32.3999C23.9827 31.5759 24.3886 30.5691 24.3864 29.3796C24.3864 28.1878 23.9794 27.1799 23.1654 26.3559C22.3514 25.5319 21.3568 25.121 20.1818 25.1232C19.0045 25.1232 18.0089 25.5353 17.1949 26.3593C16.3809 27.1833 15.975 28.1901 15.9773 29.3796C15.9773 30.5714 16.3843 31.5793 17.1983 32.4033C18.0123 33.2274 19.0068 33.6383 20.1818 33.636ZM53.8182 33.636C54.9955 33.636 55.9911 33.224 56.8051 32.3999C57.6191 31.5759 58.025 30.5691 58.0227 29.3796C58.0227 28.1878 57.6157 27.1799 56.8017 26.3559C55.9877 25.5319 54.9932 25.121 53.8182 25.1232C52.6409 25.1232 51.6453 25.5353 50.8313 26.3593C50.0173 27.1833 49.6114 28.1901 49.6136 29.3796C49.6136 30.5714 50.0206 31.5793 50.8346 32.4033C51.6486 33.2274 52.6431 33.6383 53.8182 33.636Z" fill="white"/>
</svg>
