<svg width="74" height="58" viewBox="0 0 74 58" fill="none" xmlns="http://www.w3.org/2000/svg">
<path d="M15.369 0C11.146 0 8.02489 3.63713 8.16631 7.57844C8.29787 11.3677 8.12356 16.2733 6.8672 20.2761C5.60756 24.2886 3.47964 26.832 0 27.1588V30.8412C3.47964 31.168 5.60756 33.7114 6.8672 37.7239C8.12356 41.7235 8.29787 46.6323 8.16302 50.4183C8.02489 54.3629 11.146 58 15.3723 58H58.6343C62.8572 58 65.9817 54.3629 65.8436 50.4183C65.7087 46.6323 65.883 41.7235 67.1361 37.7239C68.399 33.7114 70.5236 31.168 74 30.8412V27.1588C70.5204 26.832 68.399 24.2886 67.1361 20.2761C65.883 16.2765 65.7087 11.3677 65.8436 7.57844C65.9817 3.63713 62.8572 0 58.6343 0H15.369ZM50.1687 35.7015C50.1687 41.1313 46.0543 44.4255 39.2233 44.4255H27.5938C27.4289 44.4259 27.2656 44.3943 27.1132 44.3325C26.9608 44.2708 26.8223 44.18 26.7056 44.0655C26.5889 43.951 26.4963 43.8149 26.4331 43.6651C26.3699 43.5154 26.3374 43.3548 26.3374 43.1926V14.8074C26.3374 14.6452 26.3699 14.4847 26.4331 14.3349C26.4963 14.1851 26.5889 14.049 26.7056 13.9345C26.8223 13.82 26.9608 13.7292 27.1132 13.6675C27.2656 13.6057 27.4289 13.5741 27.5938 13.5745H39.1542C44.8506 13.5745 48.59 16.6098 48.59 21.2727C48.59 24.541 46.074 27.4727 42.8707 27.9839V28.1554C47.2317 28.6246 50.1687 31.5984 50.1687 35.7015ZM37.9538 17.4835H31.3234V26.6993H36.9079C41.2262 26.6993 43.6041 24.9907 43.6041 21.9328C43.6041 19.0691 41.5584 17.4867 37.9538 17.4867V17.4835ZM31.3234 30.3558V40.5133H38.1972C42.6931 40.5133 45.0709 38.7368 45.0709 35.4006C45.0709 32.0676 42.6273 30.3558 37.9077 30.3558H31.3234Z" fill="white"/>
</svg>
