<svg width="74" height="74" viewBox="0 0 74 74" fill="none" xmlns="http://www.w3.org/2000/svg">
<path d="M27.1333 51.8L32.8889 45.9417L23.9472 37L32.8889 28.0583L27.1333 22.2L12.3333 37L27.1333 51.8ZM46.8667 51.8L61.6667 37L46.8667 22.2L41.1111 28.0583L50.0528 37L41.1111 45.9417L46.8667 51.8ZM8.22223 74C5.96112 74 4.02478 73.1942 2.41323 71.5827C0.801673 69.9711 -0.00273376 68.0361 6.97982e-06 65.7778V8.22223C6.97982e-06 5.96112 0.805785 4.02478 2.41734 2.41323C4.0289 0.801673 5.96386 -0.00273376 8.22223 6.97982e-06H65.7778C68.0389 6.97982e-06 69.9752 0.805785 71.5868 2.41734C73.1983 4.0289 74.0027 5.96386 74 8.22223V65.7778C74 68.0389 73.1942 69.9752 71.5827 71.5868C69.9711 73.1983 68.0361 74.0027 65.7778 74H8.22223ZM8.22223 65.7778H65.7778V8.22223H8.22223V65.7778Z" fill="#15C8C9"/>
</svg>
