<svg width="62" height="74" viewBox="0 0 62 74" fill="none" xmlns="http://www.w3.org/2000/svg">
<path fill-rule="evenodd" clip-rule="evenodd" d="M0.658447 36.5731L37.4109 0L51.8087 11.6968C51.8087 11.6968 46.8175 11.7977 42.4837 13.3588C38.1504 14.9194 35.9875 17.2136 33.7031 19.655C28.7048 24.9982 27.2791 30.1329 27.3159 36.6758C27.3518 43.2186 29.3169 46.7425 33.1188 51.5342C34.4059 53.1571 35.6732 54.7177 37.8311 55.8967C38.5666 56.2989 41.6712 58.5636 43.7156 59.1972C45.7601 59.8309 51.2446 60.0712 51.2446 60.0712L37.8311 74L0.658447 36.5731Z" fill="white"/>
<path d="M52.0298 45.607C57.4786 45.607 61.8957 41.1899 61.8957 35.7412C61.8957 30.2924 57.4786 25.8754 52.0298 25.8754C46.5811 25.8754 42.164 30.2924 42.164 35.7412C42.164 41.1899 46.5811 45.607 52.0298 45.607Z" fill="white"/>
</svg>
