<svg width="51" height="75" viewBox="0 0 51 75" fill="none" xmlns="http://www.w3.org/2000/svg">
<path opacity="0.6" d="M25.3361 0H12.8335C9.5181 0 6.3385 1.31703 3.99416 3.66137C1.64983 6.0057 0.332794 9.1853 0.332794 12.5007C0.332794 15.8161 1.64983 18.9957 3.99416 21.34C6.3385 23.6844 9.5181 25.0014 12.8335 25.0014H25.3361V0Z" fill="#F8F8F8"/>
<path opacity="0.4" d="M25.3361 24.9977H12.8335C9.5181 24.9977 6.3385 26.3147 3.99416 28.659C1.64983 31.0034 0.332794 34.183 0.332794 37.4984C0.332794 40.8138 1.64983 43.9934 3.99416 46.3377C6.3385 48.682 9.5181 49.9991 12.8335 49.9991H25.3361V24.9977Z" fill="#F8F8F8"/>
<path d="M50.3337 37.5002C50.3337 40.8156 49.0167 43.9952 46.6723 46.3395C44.328 48.6839 41.1484 50.0009 37.833 50.0009C34.5176 50.0009 31.338 48.6839 28.9937 46.3395C26.6494 43.9952 25.3323 40.8156 25.3323 37.5002C25.3323 34.1848 26.6494 31.0052 28.9937 28.6609C31.338 26.3165 34.5176 24.9995 37.833 24.9995C41.1484 24.9995 44.328 26.3165 46.6723 28.6609C49.0167 31.0052 50.3337 34.1848 50.3337 37.5002Z" fill="#F8F8F8"/>
<path opacity="0.2" d="M12.8334 50.0028H25.3359V62.5016C25.3352 64.9733 24.6016 67.3893 23.2279 69.4442C21.8543 71.499 19.9022 73.1004 17.6185 74.046C15.3348 74.9915 12.822 75.2387 10.3978 74.7563C7.9736 74.2739 5.74687 73.0836 3.99911 71.3358C2.25134 69.5881 1.06102 67.3613 0.578629 64.9372C0.0962401 62.513 0.343443 60.0002 1.28898 57.7165C2.23453 55.4328 3.83595 53.4807 5.89079 52.107C7.94564 50.7333 10.3616 50.0035 12.8334 50.0028Z" fill="#F8F8F8"/>
<path opacity="0.8" d="M25.3323 0H37.8311C41.1465 0 44.3261 1.31703 46.6705 3.66137C49.0148 6.0057 50.3318 9.1853 50.3318 12.5007C50.3318 15.8161 49.0148 18.9957 46.6705 21.34C44.3261 23.6844 41.1465 25.0014 37.8311 25.0014H25.3323V0Z" fill="#F8F8F8"/>
</svg>
