<svg width="54" height="74" viewBox="0 0 54 74" fill="none" xmlns="http://www.w3.org/2000/svg">
<path d="M54 59.7181L29.3625 73.3439C27.675 74.2187 25.9875 74.2187 24.3 73.3439L0 59.7181L44.0437 15.4762L45.225 15.1398C46.2375 15.1398 46.8112 15.5772 46.9125 16.4856L54 59.7181ZM18.0563 16.1491L2.7 41.5504L9.1125 1.34576C9.21375 0.437372 9.7875 0 10.8 0C11.475 0 11.9137 0.201864 12.15 0.8411L19.4062 14.1305L18.0563 16.1491ZM33.2438 20.3883L1.0125 52.6529L25.4813 11.2707C25.8188 10.5979 26.325 10.2951 27 10.2951C27.675 10.2951 28.1137 10.5979 28.35 11.2707L33.2438 20.3883Z" fill="white"/>
</svg>
