<svg xmlns="http://www.w3.org/2000/svg" viewBox="0 0 1080 238.71"><defs><style>.cls-1{fill:#3fba73;}</style></defs><g id="Layer_2" data-name="Layer 2"><g id="Layer_8" data-name="Layer 8"><path class="cls-1" d="M144,14.74H222.4V234.32H144V157.16H78.42v77.16H0V14.74H78.42V95.36H144Z"/><path class="cls-1" d="M248.75,45.8V0h77.16V45.8ZM250,234.32V57.72h75v176.6Z"/><path class="cls-1" d="M555.84,57.72l-66.19,88.14,66.19,88.46H469.58L425,168.45v65.87h-75V2.82h75V123.28l44.23-65.56Z"/><path class="cls-1" d="M540.46,145.55C540.46,92.22,584.07,53,644,53c59.6,0,102.89,38.9,102.89,92.23,0,53.64-43.29,93.47-103.2,93.47S540.46,199.19,540.46,145.55Zm130.81,0c0-18.19-11.61-31.37-27.6-31.37S616.06,127,616.06,145.24c0,18.82,11.92,32,27.92,32C659.66,177.23,671.27,164.37,671.27,145.55Z"/><path class="cls-1" d="M758.47,224.91l8.16-53c21.33,10.35,48.31,15.68,74.66,15.68,7.21,0,13.8-1.88,13.49-8.15,0-5.34-6-7.85-25.73-10.67-51.13-6.9-72.14-21.33-72.14-54.27C756.91,74,794.55,53,841.6,53c26.66,0,50.5,6.28,70.89,13.18l-7.84,51.44c-19.13-6.27-46.74-13.17-66.5-13.17-10.35,0-12.86,3.76-12.86,7.21,0,4.08,2.82,6.59,23.21,9.41,50.19,6.59,75,22,75,55.84,0,40.46-38,61.79-87.52,61.79C801.76,238.71,781.37,234.64,758.47,224.91Z"/><path class="cls-1" d="M950.45,169.7V113.55H931.31v-27l31.06-32.94,34.5-37h28.24v41.1h49.24v55.83h-49.24v48c0,9.41,5,14.74,13.8,14.74,8.15,0,16.94-1.57,27.6-5.65L1080,225.23c-18.19,9.41-39.52,13.48-56.78,13.48C977.11,238.71,950.45,215.19,950.45,169.7Z"/></g></g></svg>