<svg xmlns="http://www.w3.org/2000/svg" viewBox="0 0 1079.84 1073.07"><defs><style>.cls-1{fill:#3fba73;}.cls-2{fill:#1af87d;}.cls-3{fill:#20a060;}.cls-4{fill:#14cf75;}.cls-5{fill:#ba6e2a;}.cls-6{fill:#db5c3a;}.cls-7{fill:#f2f2f2;}.cls-8{fill:#ffc37d;}.cls-9{fill:#fedc00;}.cls-10{fill:#fe6b00;}</style></defs><g id="Layer_2" data-name="Layer 2"><g id="Layer_1-2" data-name="Layer 1"><rect class="cls-1" x="43.27" y="305.46" width="919.56" height="176.7" rx="36.2"/><rect class="cls-2" x="48.49" y="252.66" width="728.17" height="377.71" rx="34.19" transform="translate(-54.15 825.35) rotate(-86.37)"/><path class="cls-3" d="M287.4,171.87l-2.07,32.7L481,217a56,56,0,0,0,52.35,59.43l-28,442.73a55.72,55.72,0,0,1,32.49-8l33-521.35a56,56,0,0,1-52.35-59.43L346.84,119.51A56,56,0,0,1,287.4,171.87Z"/><path class="cls-4" d="M481,217l-195.63-12.4-31,488.65a56,56,0,0,1,52.35,59.43l171.59,10.87a55.93,55.93,0,0,1,26.95-44.39l28-442.73A56,56,0,0,1,481,217Z"/><circle class="cls-2" cx="412.57" cy="441.52" r="99.71"/><rect class="cls-2" x="219.77" y="204.27" width="728.17" height="377.71" rx="34.19" transform="translate(-73.12 645.73) rotate(-54.98)"/><path class="cls-3" d="M617.45,97.74l-18.8,26.84L759.19,237.05a56,56,0,0,0,13.73,78L518.38,678.37a55.73,55.73,0,0,1,31.88,10.13L850,260.66a56,56,0,0,1-13.73-78L695.46,84A56,56,0,0,1,617.45,97.74Z"/><path class="cls-4" d="M759.19,237.05,598.65,124.58l-280.94,401a56,56,0,0,1,13.73,78l140.81,98.65a56,56,0,0,1,46.13-23.86L772.92,315.05A56,56,0,0,1,759.19,237.05Z"/><circle class="cls-2" cx="583.85" cy="393.12" r="99.71"/><rect class="cls-5" y="365.87" width="995.29" height="656.31" rx="40.65"/><rect class="cls-6" y="365.87" width="896.12" height="596.21" rx="40.65"/><rect class="cls-1" y="482.16" width="896.12" height="423.72"/><path class="cls-5" d="M826.4,585.84h193.05A30.53,30.53,0,0,1,1050,616.37V771.68a30.53,30.53,0,0,1-30.53,30.53H826.4A108.18,108.18,0,0,1,718.22,694v0A108.18,108.18,0,0,1,826.4,585.84Z"/><path class="cls-6" d="M818.59,585.84H955.34a18.91,18.91,0,0,1,18.91,18.91v152.1a18.91,18.91,0,0,1-18.91,18.91H818.59a95,95,0,0,1-95-95v0A95,95,0,0,1,818.59,585.84Z"/><circle class="cls-7" cx="848.94" cy="680.8" r="47.18"/><ellipse class="cls-8" cx="915.56" cy="924.41" rx="142.64" ry="148.65"/><ellipse class="cls-9" cx="954.83" cy="924.41" rx="125.01" ry="148.65"/><rect class="cls-10" x="937.7" y="814.63" width="34.26" height="219.57" rx="17.13"/><rect class="cls-10" x="845.04" y="907.28" width="219.57" height="34.26" rx="17.13"/></g></g></svg>