<svg width="84" height="75" viewBox="0 0 84 75" fill="none" xmlns="http://www.w3.org/2000/svg">
<path d="M55.059 62.174C55.4901 61.2707 55.8649 60.478 56.2585 59.6853C60.6254 50.726 58.8824 39.2965 51.8166 32.8627C49.7363 30.9824 47.0374 29.5998 44.4135 28.4937C42.1832 27.5535 40.3465 26.3921 38.6597 24.6961C36.317 22.3549 33.8618 20.0874 31.2004 18.1149C27.1521 15.11 22.3729 15.6446 18.8681 19.2763C18.3996 19.774 18.2684 20.5852 17.9685 21.2488C18.662 21.5253 19.3554 22.0968 20.0301 22.0415C24.7157 21.6912 27.7706 24.2905 30.5257 27.4798C30.8443 27.8485 31.2191 28.254 31.3503 28.6965C32.5686 32.9918 35.3611 36.3838 37.985 39.8679C40.7776 43.5733 40.6276 45.4905 37.0104 49.2144C32.3624 44.9375 27.5644 40.8265 23.1226 36.3469C18.6807 31.8488 14.6137 27.0005 10.4155 22.318C8.37261 25.6179 8.31638 25.8022 10.8278 28.678C14.4075 32.7705 17.9498 36.8999 21.7544 40.7712C25.5028 44.6057 29.5698 48.1267 33.7306 52.0164C29.195 56.1274 24.6032 60.2752 19.5991 64.8102L43.9637 73.4008C46.8312 70.5434 49.5488 67.8519 52.3039 65.1051C54.8903 66.5799 57.8328 68.0916 60.7753 69.7691C61.9935 68.9949 63.0431 68.3312 64.355 67.5017C61.1876 65.6951 58.2076 63.9991 55.059 62.174ZM49.1178 56.8279L47.3748 58.0631C47.2248 58.1737 47.0187 58.1184 46.9249 57.9709C46.8312 57.8234 46.7188 57.6944 46.6063 57.5653C46.4002 57.3441 46.2315 57.1966 46.119 57.086C45.5006 56.5514 44.8821 56.1827 44.2636 55.9984C43.6451 55.7956 43.0828 55.7218 42.5768 55.7218C42.1645 55.7403 41.7896 55.814 41.4523 55.9246C41.3773 55.9431 41.2836 55.9615 41.2086 55.9984C41.2086 55.9984 41.2086 55.9984 41.1899 55.9984C40.9088 56.109 40.9462 56.533 41.2461 56.5883C41.5085 56.6436 41.7896 56.7358 42.0708 56.8464C42.7267 57.1044 43.3452 57.4731 43.9075 57.9524C44.0199 58.0446 44.0949 58.1368 44.1886 58.2474C44.2074 58.2658 44.2074 58.2658 44.2261 58.2843C44.3948 58.5239 44.5822 58.782 44.6946 59.0401C45.0695 59.7959 45.2569 60.5518 45.2756 61.326C45.2944 62.1003 45.1445 62.8561 44.8258 63.5935C44.6197 64.0912 44.3198 64.5521 44.0012 65.013C43.8513 65.2342 43.7013 65.437 43.5139 65.6582C42.8767 66.3771 42.1082 67.0039 41.2086 67.5385C40.309 68.0916 39.3344 68.4418 38.3036 68.6262C37.2728 68.8105 36.1858 68.7552 35.0612 68.4603C33.9367 68.1653 32.8309 67.557 31.7439 66.6168C31.2754 66.2112 30.938 65.8794 30.7131 65.5844C30.6006 65.437 30.4882 65.2895 30.3945 65.1604C30.3008 65.013 30.3195 64.8286 30.4694 64.718L32.1937 63.4829C32.3437 63.3723 32.5498 63.4091 32.6623 63.5751C32.756 63.7225 32.8684 63.8516 32.9809 63.9806C33.187 64.1834 33.337 64.3493 33.4682 64.4599C34.1054 64.9945 34.7239 65.3632 35.3236 65.566C35.9234 65.7504 36.5044 65.8425 37.0104 65.8425C37.4415 65.8241 37.8163 65.7688 38.1537 65.6582C38.2286 65.6397 38.3036 65.6213 38.3786 65.5844C38.3973 65.5844 38.3973 65.566 38.4161 65.566C38.6972 65.437 38.6597 65.0314 38.3598 64.9577C38.0787 64.9024 37.7976 64.8102 37.5165 64.6996C36.8605 64.4415 36.242 64.0728 35.6985 63.5935C35.586 63.5013 35.5111 63.4091 35.4173 63.2985C35.3986 63.2801 35.3986 63.2801 35.3799 63.2617C35.2112 63.022 35.0238 62.7639 34.8926 62.5058C34.5177 61.75 34.3303 60.9942 34.3303 60.2199C34.3116 59.4641 34.4615 58.7083 34.7801 57.9709C34.9863 57.4731 35.2862 57.0123 35.6048 56.5514C35.7547 56.3302 35.9046 56.1274 36.0921 55.9246C36.7293 55.2057 37.4977 54.5789 38.3973 54.0443C39.2969 53.4912 40.2715 53.141 41.3023 52.9566C42.3332 52.7723 43.4202 52.8276 44.5447 53.1041C45.6692 53.3806 46.775 54.0074 47.862 54.9476C48.3306 55.3531 48.668 55.685 48.8929 55.9799C49.0053 56.1458 49.1178 56.2749 49.1927 56.4039C49.3052 56.533 49.2677 56.7173 49.1178 56.8279Z" fill="white"/>
<path d="M8.87861 7.93906C6.76077 8.03123 5.74869 9.00828 5.76744 11.0914C5.8424 15.1286 8.16642 18.1704 10.1906 21.3043C12.9644 17.5436 15.6257 13.9672 18.3246 10.2987C15.4196 8.93454 12.3271 7.81002 8.87861 7.93906Z" fill="white"/>
<path d="M67.26 20.8432C68.5158 19.7187 68.497 18.1702 67.6536 16.7876C67.1101 15.9027 66.3604 15.11 65.6107 14.3726C63.7928 12.5476 62.1997 12.4185 60.1756 14.0408C57.5142 16.1608 54.9653 18.3914 52.3601 20.5667C50.917 21.765 50.0361 23.2398 50.9545 24.9726C52.0228 27.0004 53.3535 28.973 56.146 29.3601C56.7458 29.1389 57.5142 29.0651 58.0202 28.6596C61.1501 26.0971 64.2613 23.5163 67.26 20.8432Z" fill="white"/>
<path d="M39.3907 58.2844C39.0908 58.266 38.8097 58.2844 38.5286 58.395C38.2475 58.5056 37.9851 58.69 37.7414 58.9665C37.7414 58.9665 37.7414 58.985 37.7227 58.985C37.6852 59.0403 37.6477 59.0956 37.6102 59.1324C37.554 59.2062 37.4978 59.2983 37.4603 59.3721C37.3666 59.538 37.2916 59.7039 37.2541 59.8883C37.1979 60.1832 37.1979 60.4782 37.2916 60.7731C37.3666 61.0681 37.5165 61.363 37.7414 61.658C37.9476 61.9529 38.21 62.2295 38.5286 62.506C38.7722 62.7272 39.0534 62.8931 39.3345 63.0222C39.6344 63.1512 39.9155 63.2434 40.2154 63.2618C40.5152 63.2802 40.7964 63.2618 41.0775 63.1512C41.3586 63.0406 41.621 62.8563 41.8647 62.5797C41.8647 62.5797 41.8647 62.5613 41.8834 62.5613C41.9209 62.506 41.9584 62.4507 41.9959 62.3954C42.0521 62.3216 42.1083 62.2479 42.1458 62.1742C42.4082 61.7133 42.4644 61.2524 42.3145 60.7731C42.1271 60.1648 41.696 59.5933 41.0775 59.0403C40.8339 58.819 40.5527 58.6531 40.2716 58.5241C39.9717 58.395 39.6906 58.3213 39.3907 58.2844Z" fill="white"/>
<path d="M73.295 30.2267C74.026 29.5814 74.4008 28.5491 74.6632 28.1251C74.7007 25.2677 73.0139 24.051 71.6082 22.7237C70.3338 21.5254 68.7032 21.378 67.3163 22.4656C64.2614 24.8621 61.2439 27.3324 58.3576 29.9317C56.7083 31.4065 56.7458 33.0287 58.0953 34.8169C58.7325 35.6649 59.4259 36.476 60.2131 37.1766C61.675 38.4486 63.3243 38.5776 64.8611 37.324C67.7099 35.0197 70.5399 32.66 73.295 30.2267Z" fill="white"/>
<path d="M76.1065 58.432C72.5642 61.529 69.022 64.6261 65.0299 68.1103C68.4785 69.1426 71.927 70.4515 75.488 71.1704C78.7866 71.8341 80.7545 69.7878 80.0985 66.7092C79.3301 63.1697 77.4184 60.1649 76.1065 58.432Z" fill="white"/>
<path d="M70.6712 46.5783C72.2455 45.4169 73.7261 44.0711 75.113 42.6885C75.6566 42.1539 75.844 41.269 76.425 40.0708C75.5254 38.8541 74.7382 37.4899 73.6887 36.4023C71.9456 34.5957 70.2214 34.5588 68.2535 36.1073C66.9228 37.1397 65.6108 38.2273 64.4301 39.4071C62.6121 41.2322 62.7621 42.8913 64.8424 45.2878C66.8103 47.629 68.6283 48.0899 70.6712 46.5783Z" fill="white"/>
<path d="M77.4745 56.3487C76.7998 55.0767 76.6874 54.2103 77.3059 52.9383C80.6794 46.0621 81.8789 38.7988 80.5482 31.2774C75.8815 4.78668 45.6881 -7.85958 23.029 7.22007C21.5109 8.23398 20.4238 8.23398 18.812 7.55189C14.6326 5.76372 10.3781 4.12302 5.67387 4.41798C2.52521 4.62076 0.576037 6.46424 0.744716 9.54285C0.838426 11.1835 1.11956 12.9533 1.83175 14.4096C3.61225 17.986 5.73009 21.378 7.6043 24.9174C8.0541 25.747 8.37272 26.9084 8.16656 27.7933C5.65513 38.0614 7.19197 47.7213 12.8895 56.6253C14.745 59.5195 17.2564 62.0082 19.6179 64.8656C24.622 60.3306 29.1951 56.1828 33.7494 52.0719C29.5887 48.1821 25.5217 44.6611 21.7733 40.8267C17.9686 36.9554 14.4264 32.826 10.8467 28.7334C8.33524 25.8576 8.39146 25.6733 10.4343 22.3734C14.6513 27.0559 18.6996 31.9042 23.1414 36.4023C27.5645 40.882 32.3812 45.0113 37.0293 49.2698C40.6465 45.546 40.7964 43.6287 38.0039 39.9234C35.38 36.4392 32.6062 33.0472 31.3692 28.7519C31.238 28.3094 30.8631 27.9039 30.5445 27.5352C27.7895 24.346 24.7532 21.7282 20.049 22.0969C19.393 22.1522 18.6808 21.5808 17.9874 21.3042C18.2872 20.6406 18.4184 19.8295 18.887 19.3317C22.373 15.7001 27.171 15.147 31.2192 18.1703C33.8806 20.1428 36.3546 22.4103 38.6786 24.7515C40.3653 26.4475 42.2021 27.6089 44.4324 28.5491C47.0562 29.6552 49.7738 31.0194 51.8355 32.9181C58.9012 39.3519 60.6442 50.7814 56.2773 59.7407C55.8837 60.5334 55.5089 61.3261 55.0778 62.2294C58.2452 64.0545 61.2065 65.7505 64.3739 67.5755C63.0619 68.4051 62.0124 69.0687 60.7941 69.843C65.8545 72.2579 70.7836 74.4517 76.2188 74.9494C81.2229 75.3919 84.3154 72.9216 82.8348 67.9995C81.5978 63.907 79.4612 60.1094 77.4745 56.3487ZM10.2094 21.3042C8.1853 18.1703 5.84255 15.1286 5.78632 11.0914C5.74884 9.00824 6.77965 8.03119 8.89749 7.93902C12.3273 7.79154 15.4197 8.91606 18.3622 10.2987C15.6446 13.9672 12.9833 17.5435 10.2094 21.3042ZM50.9733 24.9543C50.055 23.2214 50.9358 21.7282 52.379 20.5484C54.9841 18.3731 57.533 16.1425 60.1944 14.0225C62.2185 12.4002 63.8116 12.5477 65.6296 14.3543C66.3793 15.0917 67.1289 15.8844 67.6725 16.7693C68.5159 18.1519 68.5346 19.7004 67.2789 20.8249C64.2802 23.498 61.169 26.0788 58.0578 28.6228C57.5518 29.0284 56.7834 29.1206 56.1836 29.3234C53.3723 28.9547 52.0604 26.9821 50.9733 24.9543ZM60.2131 37.1766C59.426 36.4945 58.7325 35.6649 58.0953 34.8169C56.7459 33.0287 56.7271 31.4065 58.3577 29.9317C61.244 27.3324 64.2614 24.8806 67.3164 22.4656C68.7033 21.378 70.3151 21.5254 71.6083 22.7237C73.0139 24.051 74.7007 25.2677 74.6632 28.1251C74.4009 28.5491 74.026 29.5814 73.2951 30.2267C70.54 32.6601 67.71 35.0013 64.8612 37.3241C63.3243 38.5776 61.675 38.4486 60.2131 37.1766ZM64.3926 39.4256C65.5734 38.2458 66.8853 37.1581 68.216 36.1258C70.2026 34.5773 71.9082 34.6141 73.6512 36.4207C74.7195 37.5268 75.5066 38.8726 76.3875 40.0893C75.8252 41.2691 75.6191 42.154 75.0756 42.707C73.6887 44.0896 72.2268 45.4354 70.6337 46.5967C68.5908 48.1084 66.7728 47.6291 64.7675 45.3063C62.7246 42.8914 62.5746 41.2322 64.3926 39.4256ZM75.4879 71.1519C71.9269 70.4329 68.4784 69.124 65.0298 68.0917C69.0219 64.6075 72.5641 61.5105 76.1064 58.4134C77.4183 60.1647 79.33 63.1512 80.0984 66.6906C80.7357 69.7877 78.7865 71.8155 75.4879 71.1519Z" fill="#0253B3"/>
<path d="M43.9639 73.4193C49.7177 73.5299 55.3028 72.1104 60.7567 69.7877C57.833 68.1101 54.8717 66.5984 52.2853 65.1237C49.5303 67.8704 46.8314 70.5619 43.9639 73.4193Z" fill="#0253B3"/>
<path d="M48.8929 55.9618C48.668 55.6668 48.3307 55.335 47.8621 54.9294C46.7751 53.9893 45.6506 53.3625 44.5448 53.086C43.4203 52.8094 42.352 52.7541 41.3024 52.9385C40.2529 53.1228 39.297 53.4915 38.3974 54.0261C37.4978 54.5792 36.7294 55.206 36.0921 55.9065C35.9047 56.1093 35.7735 56.3305 35.6048 56.5333C35.2862 56.9941 34.9864 57.455 34.7802 57.9527C34.4616 58.6901 34.3116 59.446 34.3304 60.2018C34.3491 60.976 34.5365 61.7319 34.8926 62.4877C35.0238 62.7458 35.1925 62.9854 35.3799 63.2435C35.3799 63.262 35.3987 63.262 35.4174 63.2804C35.5111 63.3726 35.6048 63.4832 35.6986 63.5753C36.2608 64.0547 36.8606 64.4233 37.5165 64.6814C37.8164 64.792 38.0975 64.8842 38.3599 64.9395C38.6598 65.0133 38.716 65.4188 38.4161 65.5479C38.3974 65.5479 38.3974 65.5663 38.3787 65.5663C38.3037 65.6032 38.2287 65.6032 38.1538 65.64C37.8164 65.7507 37.4416 65.8244 37.0105 65.8244C36.4857 65.8428 35.9235 65.7507 35.3237 65.5479C34.724 65.3635 34.1055 64.9948 33.4682 64.4418C33.3371 64.3312 33.1871 64.1837 32.981 63.9625C32.8685 63.8334 32.7561 63.7044 32.6623 63.5569C32.5686 63.4094 32.3437 63.3541 32.1938 63.4647L30.4695 64.6999C30.3196 64.8105 30.3008 64.9948 30.3946 65.1423C30.4883 65.2713 30.582 65.4004 30.7132 65.5663C30.9381 65.8613 31.2754 66.1931 31.744 66.5986C32.831 67.5388 33.9368 68.1472 35.0613 68.4421C36.1858 68.7186 37.2729 68.774 38.3037 68.608C39.3345 68.4421 40.3091 68.055 41.2087 67.5204C42.1083 66.9673 42.8767 66.3406 43.514 65.64C43.7014 65.4373 43.8326 65.216 44.0013 64.9948C44.3199 64.534 44.6198 64.0731 44.8259 63.5753C45.1445 62.838 45.2757 62.0821 45.2757 61.3079C45.257 60.5336 45.0696 59.7778 44.6947 59.022C44.5635 58.7639 44.3949 58.5242 44.2262 58.2661C44.2262 58.2477 44.2074 58.2477 44.1887 58.2293C44.095 58.1371 44.0013 58.0265 43.9076 57.9343C43.3453 57.455 42.7456 57.0863 42.0708 56.8282C41.7897 56.7176 41.5086 56.6254 41.2462 56.5701C40.9463 56.4964 40.9088 56.0908 41.19 55.9802C41.19 55.9802 41.19 55.9802 41.2087 55.9802C41.2837 55.9433 41.3774 55.9249 41.4524 55.9065C41.7897 55.7959 42.1645 55.7221 42.5769 55.7037C43.1016 55.6853 43.6639 55.7774 44.2637 55.9802C44.8821 56.1646 45.5006 56.5333 46.1191 57.0679C46.2503 57.1785 46.4002 57.3444 46.6064 57.5472C46.7376 57.6762 46.8313 57.8053 46.925 57.9527C47.0187 58.1002 47.2249 58.1555 47.3748 58.0449L49.1178 56.8098C49.2678 56.7176 49.3053 56.5148 49.1928 56.3673C49.1178 56.2567 49.0054 56.1277 48.8929 55.9618ZM41.0588 59.0404C41.696 59.5934 42.1083 60.1649 42.2957 60.7733C42.4457 61.2526 42.3895 61.7134 42.1271 62.1743C42.0896 62.248 42.0334 62.3218 41.9771 62.3955C41.9396 62.4508 41.9022 62.5061 41.8647 62.5614C41.8647 62.5614 41.8647 62.5799 41.8459 62.5799C41.6023 62.8564 41.3399 63.0407 41.0588 63.1513C40.7776 63.262 40.4778 63.2988 40.1966 63.262C39.8968 63.2251 39.6156 63.1513 39.3158 63.0223C39.0346 62.8933 38.7535 62.7089 38.5099 62.5061C38.1912 62.2296 37.9476 61.9531 37.7227 61.6581C37.5165 61.3632 37.3666 61.0682 37.2729 60.7733C37.1792 60.4783 37.1792 60.1833 37.2354 59.8884C37.2729 59.7225 37.3479 59.5566 37.4416 59.3722C37.479 59.2985 37.5353 59.2063 37.5915 59.1326C37.629 59.0773 37.6665 59.0404 37.7039 58.9851C37.7039 58.9851 37.7039 58.9667 37.7227 58.9667C37.9663 58.6901 38.2287 58.5058 38.5099 58.3952C38.791 58.2846 39.0909 58.2477 39.372 58.2846C39.6719 58.3214 39.953 58.3952 40.2341 58.5242C40.5527 58.6533 40.8151 58.8376 41.0588 59.0404Z" fill="#0253B3"/>
<path d="M43.9639 73.4193L19.5993 64.8287C19.5993 64.8287 29.2514 72.7557 43.9639 73.4193Z" fill="white"/>
</svg>
