<svg width="73" height="102" viewBox="0 0 73 102" fill="none" xmlns="http://www.w3.org/2000/svg">
<path d="M58.7938 20.8158C58.7938 20.8158 24.9123 29.54 41.1596 48.7742C45.9644 54.4373 39.9212 59.5393 39.9212 59.5393C39.9212 59.5393 52.0571 53.1619 46.4102 44.9988C41.1596 37.499 37.1968 33.7746 58.7938 20.8158ZM36.652 26.9381C56.7134 10.612 46.4102 0 46.4102 0C50.5711 16.8363 31.7481 21.9382 24.9619 32.4481C20.3056 39.5908 27.2404 47.2947 36.5034 56.121C32.9864 47.4477 20.5533 39.9989 36.652 26.9381ZM23.4758 78.9265C8.21926 83.3141 32.7883 92.3445 52.1562 83.8243C50.2739 83.059 48.4411 82.1407 46.7074 81.0693C39.9708 82.6509 33.036 82.957 26.2002 81.9876C19.7112 81.1713 23.4758 78.9265 23.4758 78.9265ZM49.8281 70.3553C41.1596 72.294 32.1939 72.7532 23.3768 71.6818C16.8878 71.0185 21.1477 67.7533 21.1477 67.7533C4.30605 73.5185 30.4602 79.9979 53.8404 72.9573C52.4039 72.3961 51.0169 71.4267 49.8281 70.3553ZM66.7688 87.1916C66.7688 87.1916 69.5923 89.5895 63.7472 91.4262C52.4534 94.8955 17.0364 95.9669 7.22858 91.5792C3.71164 89.9976 10.3492 87.8038 12.4297 87.3446C13.569 87.0385 14.7083 86.9365 15.8475 86.9365C11.9343 84.1815 -9.56356 92.5486 4.99953 94.8955C44.4784 101.528 77.0224 91.8343 66.7688 87.1916ZM53.1964 62.3963C54.6329 61.427 56.1685 60.6107 57.7536 59.8964C57.7536 59.8964 50.2739 61.2229 42.7942 61.9372C34.8687 62.7535 26.8937 62.8555 18.9682 62.2433C7.32764 60.6617 25.3581 56.121 25.3581 56.121C19.9094 56.121 14.5597 57.4475 9.70529 59.9474C-0.449243 65.0493 34.9678 67.3452 53.1964 62.3963ZM57.6545 74.7429C57.5554 74.947 57.4564 75.1001 57.2582 75.2531C82.0749 68.5696 72.9606 51.5803 61.0724 55.8149C60.4284 56.121 59.8836 56.5291 59.5368 57.0903C60.2303 56.8352 60.9238 56.6312 61.6668 56.4781C67.6109 55.2536 76.1308 64.7942 57.6545 74.7429ZM58.2985 98.2627C43.3886 100.916 28.1321 101.12 13.1232 98.977C13.1232 98.977 15.4017 100.916 27.0423 101.681C44.8747 102.854 72.2671 101.018 72.9111 92.3445C73.0597 92.3955 71.7718 95.6608 58.2985 98.2627Z" fill="white"/>
</svg>
