<svg width="106" height="105" viewBox="0 0 106 105" fill="none" xmlns="http://www.w3.org/2000/svg">
<path d="M55.384 50.826V25.4125C55.384 22.0752 56.0387 18.7706 57.3105 15.6873C58.5824 12.6041 60.4467 9.80259 62.7968 7.4428C65.1469 5.08302 67.9369 3.21116 71.0075 1.93412C74.078 0.657082 77.369 -0.000133619 80.6925 -4.19134e-06C87.4043 0.000257187 93.8411 2.67776 98.587 7.4435C103.333 12.2092 105.999 18.6729 105.999 25.4125C105.999 28.7497 105.345 32.0543 104.073 35.1375C102.801 38.2208 100.937 41.0223 98.5873 43.3822C96.2374 45.742 93.4476 47.614 90.3772 48.8912C87.3068 50.1685 84.0159 50.8259 80.6925 50.826H55.384Z" fill="#7189E2"/>
<path d="M47.7638 11.4945C39.7206 60.5889 22.5967 88.9276 13.0714 101.488C17.0435 103.796 21.5528 105.008 26.1418 105.001C40.5794 105.001 52.2836 93.2482 52.2836 78.7507V26.2502C52.2913 20.9868 50.716 15.8438 47.7638 11.4945Z" fill="#7189E2"/>
<path d="M26.1418 -4.09429e-05C11.7042 -4.09429e-05 1.60163e-06 11.7527 1.60163e-06 26.2502V78.7507C-0.00160509 83.3595 1.20564 87.8875 3.50028 91.8791C5.79491 95.8706 9.09599 99.1849 13.0714 101.488C22.5917 88.9275 39.7206 60.5879 47.7638 11.4945C45.3685 7.95128 42.1454 5.0511 38.3762 3.04737C34.6071 1.04364 30.4065 -0.00264082 26.1418 -4.09429e-05Z" fill="#8B9DF2"/>
<path d="M93.5617 57.7032C89.6657 55.3872 85.22 54.1687 80.6925 54.1759H55.3841V79.5875C55.3752 86.2812 58.0055 92.7063 62.7 97.4585C72.5659 88.8369 85.174 75.4176 93.5617 57.7032Z" fill="#7189E2"/>
<path d="M80.6925 105.001C94.6688 105.001 106 93.6228 106 79.5875C106.002 75.1684 104.855 70.8253 102.674 66.9874C100.492 63.1494 97.3516 59.9493 93.5617 57.7032C85.1739 75.4176 72.5658 88.8369 62.7 97.4585C65.0509 99.8512 67.8525 101.75 70.9414 103.045C74.0304 104.34 77.3451 105.005 80.6925 105.001Z" fill="#6383DB"/>
</svg>
