<svg xmlns="http://www.w3.org/2000/svg" viewBox="0 0 1920 307.29"><defs><style>.cls-1{fill:#7189e2;}</style></defs><title>Asset 1</title><g id="Layer_2" data-name="Layer 2"><g id="Layer_1-2" data-name="Layer 1"><path class="cls-1" d="M52.81,261q0,13.32.21,21.25T53.67,295c.28,3.43.57,6,.85,7.73q-26.62,0-40.57-10.95T0,255L.43,52.38q0-25.76,13.74-36.92T54.52,4.29c-.28,2-.57,4.72-.85,8.16q-.44,4.73-.65,12.67t-.21,20.82v74.71l17.39-14q10.93-8.79,22.54-18t21.68-17.17q10.08-7.95,14.38-11.38,17.61-13.74,29-18a81.39,81.39,0,0,1,20-5.15q10.31-.86,16.53,1.72a29.71,29.71,0,0,1,9.66,6,24.21,24.21,0,0,1,6,9.45q-3.44,2.57-14.38,11.59T170.45,86.3q-14.16,11.58-29.19,23.83t-26.63,21.68l78.14,115.06L222,289.81a37.57,37.57,0,0,1-8.59,6.44,44,44,0,0,1-9,4.51,29.15,29.15,0,0,1-10.31,1.93,37.45,37.45,0,0,1-26.62-10.52,149.76,149.76,0,0,1-20.61-24.26q-3.44-5.15-9.65-14.38t-13.53-20q-7.31-10.73-15-22.11T94.24,190.2Q87.58,180.33,82.86,173t-6.44-9.44L63.11,174.53q-6,4.93-10.3,8.37Z"/><path class="cls-1" d="M264.47,193.21a89.38,89.38,0,0,1,26.19-11,125.37,125.37,0,0,1,30.49-3.65,138.83,138.83,0,0,1,42.5,6.44,81.88,81.88,0,0,0-5.58-23.62q-5.58-13.31-16.75-19.32a39.37,39.37,0,0,0-9.23-3.22,54.25,54.25,0,0,0-11.37-1.07H316a70.6,70.6,0,0,0-12,1.93q-6,1.51-12,3.65t-12,3.65a47.41,47.41,0,0,1-11.59,1.5,27.45,27.45,0,0,1-11.6-2.57q-5.15-3-9-9.88l-.86-1.72.86-1.28A101.09,101.09,0,0,1,316,101.32a19.52,19.52,0,0,1,3.65-.42h3.65A89.67,89.67,0,0,1,359.36,108a87.5,87.5,0,0,1,28.34,19.53q24.46,26.62,25.33,70v3.43q0,44.67-22.76,72.56a89.84,89.84,0,0,1-26.83,22.33,93.48,93.48,0,0,1-35,10.73,32.08,32.08,0,0,1-5.16.43h-5.58a125.86,125.86,0,0,1-18.89-1.5,73,73,0,0,1-19.32-5.8,73.18,73.18,0,0,1-18-10.09,51.89,51.89,0,0,1-13.74-16.1Q239.57,261,239.14,243v-2.58q0-16.74,6.87-27.91Q252,201.38,264.47,193.21Zm88.88,20.6q-5.58-.85-12.67-1.71a119.92,119.92,0,0,0-14.38-.86,100.78,100.78,0,0,0-11.59.64,45.51,45.51,0,0,0-10.31,2.36q-10.74,3.45-16.31,10.74a21.18,21.18,0,0,0-3.44,5.79,27.17,27.17,0,0,0-1.72,7.09,12.86,12.86,0,0,0-.43,3.86,36.5,36.5,0,0,0,1.29,9.23,22,22,0,0,0,5.16,9.23,26.42,26.42,0,0,0,10.08,7.3q6.66,3,17.82,3a22.61,22.61,0,0,0,5.15-.43,37.65,37.65,0,0,0,21-6.87,28,28,0,0,0,7.3-6.23A42.27,42.27,0,0,0,355.5,249a54.59,54.59,0,0,0,6.43-16.75,81.66,81.66,0,0,0,1.72-15.88.87.87,0,0,1-.64-.21.87.87,0,0,0-.65-.22c-1.14-.28-2.43-.57-3.86-.86S355.35,214.39,353.35,213.81Z"/><path class="cls-1" d="M713.56,194.49q0-18-3.64-29t-9.67-17.17A30.36,30.36,0,0,0,687,140a51.68,51.68,0,0,0-14.6-2.15A49.33,49.33,0,0,0,658,140a29.11,29.11,0,0,0-12.89,8.37q-5.79,6.22-9.44,17.17t-3.65,29V261q0,12.88.43,21t.86,12.88q.42,5.15.86,7.73-26.64,0-40.79-11.16T579.18,255l.43-60.54q0-18-3.65-29t-9.66-17.17A30.39,30.39,0,0,0,553,140a51.57,51.57,0,0,0-14.6-2.15A49.33,49.33,0,0,0,524,140a29,29,0,0,0-12.88,8.37q-5.81,6.22-9.23,17.17t-3.44,29V261q0,12.88.22,21t.64,12.88q.42,5.15.86,7.73-26.62,0-40.79-11.16T445.22,255l.43-60.54q0-28.76,8.37-47t21.69-28.55a74.18,74.18,0,0,1,29.84-14,149.52,149.52,0,0,1,68.48.64,73.38,73.38,0,0,1,31.34,16.31,73.32,73.32,0,0,1,31.34-16.31,150,150,0,0,1,35.64-4.3A154.59,154.59,0,0,1,705.41,105a76.06,76.06,0,0,1,30.27,14q13.52,10.3,21.89,28.55t8.38,47V261q0,12.88.21,21T766.8,295q.44,5.15.86,7.73-26.62,0-40.57-11.16t-14-36.5Z"/><path class="cls-1" d="M855.25,42.5q-9,15-24.91,15a28.26,28.26,0,0,1-12.87-3,26.6,26.6,0,0,1-9.88-10.08,27.44,27.44,0,0,1-3.43-13.53A27.82,27.82,0,0,1,808,16.31,28.35,28.35,0,0,1,818.75,4.94,27.39,27.39,0,0,1,832.92.86a24.75,24.75,0,0,1,12.45,3.43,23.06,23.06,0,0,1,10.31,9.88,28.86,28.86,0,0,1,3.43,13.74A29.33,29.33,0,0,1,855.25,42.5Zm33.48,221.55q-2.15,3-7.29,4.94a19.8,19.8,0,0,1-10.31,1.07,14.92,14.92,0,0,1-9-5.37q-3.87-4.5-3.87-14.81V147.26q0-12.87.22-20.82t.64-12.67c.28-3.43.57-6.14.86-8.15q-26.62,0-40.36,11.16t-13.74,36.93L805.44,255a66.22,66.22,0,0,0,3.22,20.61,46.46,46.46,0,0,0,9.88,17.17,45.36,45.36,0,0,0,16.53,11.38q9.87,4.08,23.18,2.79,13.74-.87,20.18-7.94A36.87,36.87,0,0,0,887,284.23,57.24,57.24,0,0,0,888.73,264.05Z"/><path class="cls-1" d="M965.59,261q0,12.88.21,21t.65,12.88c.27,3.43.56,6,.85,7.73q-26.62,0-40.57-11.16t-14-36.5l.42-152.42a124.24,124.24,0,0,1,6.23-39.93,94.69,94.69,0,0,1,18.68-32.63A84.13,84.13,0,0,1,967.3,7.94Q984.48,0,1006.37,0q12.89,0,21.9,4.29a31.1,31.1,0,0,1,15.46,12.88,30.64,30.64,0,0,1,3.43,13.74,31.17,31.17,0,0,1-1.29,9L1045,42.5l-2.14-.85a94.47,94.47,0,0,0-14-3.66,97.3,97.3,0,0,0-17.81-1.5,54.16,54.16,0,0,0-8.59.86,40.22,40.22,0,0,0-11.16,3.87A43.46,43.46,0,0,0,980,49.59,45.22,45.22,0,0,0,970.74,64a66.78,66.78,0,0,0-4.08,14.17,101.77,101.77,0,0,0-1.5,18.46v4.72h58q0,19.34-10.74,30.92T981.9,143.83H965.16Z"/><path class="cls-1" d="M1051.45,199.22q0-28.77,8.37-47t21.68-28.55a74.25,74.25,0,0,1,29.84-14,152.19,152.19,0,0,1,32.85-3.65h21a42.28,42.28,0,0,1,.86,16.74,24.81,24.81,0,0,1-5.8,12.45q-4.93,6-16.1,7.3a72.65,72.65,0,0,0-14.38,3.22,31.08,31.08,0,0,0-12.67,8.16q-5.58,5.79-9.23,16.53t-3.65,28.77v62.25q0,12.88.21,20.82t.65,12.67q.42,5.15.86,7.73-26.19,0-40.36-10.95T1051.45,255Z"/><path class="cls-1" d="M1241.64,42.5q-9,15-24.9,15a28.33,28.33,0,0,1-12.88-3A26.57,26.57,0,0,1,1194,44.44a27.45,27.45,0,0,1-3.44-13.53,27.83,27.83,0,0,1,3.87-14.6,28.35,28.35,0,0,1,10.73-11.37A27.37,27.37,0,0,1,1219.32.86a24.78,24.78,0,0,1,12.45,3.43,23,23,0,0,1,10.3,9.88,28.75,28.75,0,0,1,3.44,13.74A29.24,29.24,0,0,1,1241.64,42.5Zm33.49,221.55q-2.14,3-7.3,4.94a19.77,19.77,0,0,1-10.3,1.07,14.94,14.94,0,0,1-9-5.37q-3.85-4.5-3.86-14.81V147.26q0-12.87.21-20.82t.65-12.67c.28-3.43.57-6.14.86-8.15q-26.64,0-40.36,11.16t-13.74,36.93L1191.84,255a65.93,65.93,0,0,0,3.22,20.61,46.44,46.44,0,0,0,9.87,17.17,45.52,45.52,0,0,0,16.53,11.38q9.88,4.08,23.19,2.79,13.74-.87,20.18-7.94a36.87,36.87,0,0,0,8.59-14.81A57.47,57.47,0,0,0,1275.13,264.05Z"/><path class="cls-1" d="M1456.74,261c3.44,2,6.72,5.44,9.88,10.31l1.29,1.28-1.29,1.29a101.94,101.94,0,0,1-76,33.06,88.35,88.35,0,0,1-37.13-7.94,97,97,0,0,1-30.7-22.11,103.14,103.14,0,0,1-20.4-32.42,106.51,106.51,0,0,1-7.51-40.14,118.73,118.73,0,0,1,6.65-40.15,99.94,99.94,0,0,1,19.11-32.84,92,92,0,0,1,30.27-21.9q17.8-8.15,39.71-8.16A107.88,107.88,0,0,1,1417,105a91.09,91.09,0,0,1,26.83,11.59,66.62,66.62,0,0,1,20.61,20.82q8.15,12.88,8.16,30.91,0,17.61-9,28.55A65.51,65.51,0,0,1,1442.14,214a93.49,93.49,0,0,1-26.4,8.58,147.64,147.64,0,0,1-24.26,2.37,173.3,173.3,0,0,1-27.69-1.94q-11.82-1.92-16.1-2.79,1.71,15.47,6.87,25.12a52.51,52.51,0,0,0,11.59,15.24,35.45,35.45,0,0,0,12.88,7.52,41.06,41.06,0,0,0,11.59,1.93,82.93,82.93,0,0,0,17.18-1.72,132.51,132.51,0,0,0,14.59-3.86q6.45-2.14,12.24-4.3A32.68,32.68,0,0,1,1446,258,19.6,19.6,0,0,1,1456.74,261Zm-66.12-123.22a58.11,58.11,0,0,0-11.16,2.36,36.54,36.54,0,0,0-12.67,7.08q-6.22,5.16-11.37,14.6t-7.3,24a140.24,140.24,0,0,0,19.53,4.08,100.5,100.5,0,0,0,25.34.64,51.52,51.52,0,0,0,22.32-7.3q9.66-6,10.52-20.18.86-10.72-8.37-18.46T1390.62,137.82Z"/><path class="cls-1" d="M1505.68,194.49q0-28.76,8.37-47t21.47-28.55a72.48,72.48,0,0,1,29.63-14,152.09,152.09,0,0,1,66.33,0,76.06,76.06,0,0,1,30.27,14q13.53,10.3,21.9,28.55t8.37,47l1.71,108.2q-26.19,0-40.35-11.16T1639.21,255l.43-60.54q0-18-3.65-29t-9.66-17.17A30.39,30.39,0,0,0,1613,140a51.57,51.57,0,0,0-14.6-2.15A49.33,49.33,0,0,0,1584,140a29,29,0,0,0-12.88,8.37q-5.81,6.22-9.45,17.17t-3.65,29V261q.42,12.88.65,21t.64,12.88q.42,5.15.86,7.73-26.62,0-40.79-11.16T1505.25,255Z"/><path class="cls-1" d="M1917.85,204.37a114.11,114.11,0,0,1-6.87,39.71,103.28,103.28,0,0,1-19.32,32.85,91.79,91.79,0,0,1-30.27,21.89q-17.82,8.16-39.71,8.16a86.33,86.33,0,0,1-37.14-8.16,98.07,98.07,0,0,1-51.09-54.31,106.51,106.51,0,0,1-7.51-40.14,118.73,118.73,0,0,1,6.65-40.15,99.76,99.76,0,0,1,19.11-32.84,91.85,91.85,0,0,1,30.27-21.9q17.8-8.15,39.71-8.16a87.46,87.46,0,0,1,43.79,11.17L1865,52q0-25.77,14.17-36.71T1920,4.29q-.43,2.58-.86,7.73-.44,4.73-.64,12.88t-.22,21Zm-96.17,65.69a41.2,41.2,0,0,0,13.09-2.58,37,37,0,0,0,14.39-9.66q6.85-7.08,11.59-20.18t4.72-33.7q0-20.61-4.72-33.7t-11.59-20.19a36.93,36.93,0,0,0-14.39-9.65,34.52,34.52,0,0,0-26.19,0,36.9,36.9,0,0,0-14.38,9.65q-6.87,7.09-11.59,20.19t-4.72,33.7q0,20.61,4.72,33.7t11.59,20.18q6.87,7.08,14.38,9.66A41.25,41.25,0,0,0,1821.68,270.06Z"/></g></g></svg>