<svg width="276" height="276" viewBox="0 0 276 276" fill="none" xmlns="http://www.w3.org/2000/svg">
<path d="M81.5928 70C75.1947 70 70 75.1861 70 81.589V110.782C70.0021 120.423 73.4196 129.752 79.6465 137.114C85.8734 144.476 94.5073 149.396 104.017 151C104.108 140.199 107.43 129.672 113.556 120.774L98.6795 105.888C97.7788 104.922 97.2884 103.644 97.3117 102.323C97.335 101.003 97.8702 99.7424 98.8045 98.8084C99.7388 97.8744 100.999 97.3394 102.32 97.3161C103.642 97.2928 104.92 97.783 105.887 98.6835L120.125 112.91C128.122 104.973 138.393 99.7229 149.511 97.8883C146.801 89.7671 141.603 82.7041 134.655 77.699C127.707 72.694 119.36 70.0005 110.796 70H81.5928ZM121.348 181.383L105.479 197.234C104.992 197.704 104.603 198.266 104.335 198.888C104.068 199.51 103.927 200.179 103.921 200.856C103.914 201.532 104.043 202.204 104.299 202.83C104.555 203.457 104.934 204.026 105.412 204.505C105.891 204.984 106.46 205.363 107.087 205.619C107.713 205.876 108.385 206.005 109.062 206C109.739 205.994 110.408 205.854 111.03 205.587C111.653 205.32 112.215 204.932 112.686 204.445L128.563 188.588C135.554 194.217 143.996 197.754 152.913 198.791C161.83 199.828 170.859 198.322 178.956 194.448C187.054 190.573 193.89 184.488 198.675 176.896C203.461 169.303 206 160.511 206 151.537V115.866C206 112.712 204.746 109.686 202.515 107.456C200.283 105.225 197.257 103.972 194.101 103.972H158.405C149.428 103.973 140.635 106.512 133.04 111.297C125.446 116.081 119.36 122.915 115.485 131.009C111.61 139.104 110.105 148.129 111.142 157.042C112.18 165.956 115.718 174.394 121.348 181.383ZM163.681 153.502L135.838 181.336C133.117 179.273 130.69 176.849 128.624 174.131L156.467 146.29C157.424 145.334 158.721 144.796 160.074 144.796C161.427 144.796 162.724 145.334 163.681 146.29C164.638 147.246 165.175 148.543 165.175 149.896C165.175 151.248 164.638 152.545 163.681 153.502Z" fill="#5349CE"/>
<circle cx="138" cy="138" r="127.5" stroke="#5349CE" stroke-width="21"/>
</svg>
