<svg width="74" height="76" viewBox="0 0 74 76" fill="none" xmlns="http://www.w3.org/2000/svg">
<path d="M30.43 8.38542L16.1079 0.159333C15.9269 0.0549521 15.7216 0 15.5127 0C15.3037 0 15.0984 0.0549521 14.9174 0.159333L0.595269 8.38542C0.195253 8.60659 0.0053494 8.95571 0 9.41765V58.3527C0.000414824 58.5621 0.0558674 58.7676 0.160806 58.9488C0.265745 59.13 0.416488 59.2804 0.597944 59.3851L29.245 75.8365C29.659 76.0562 30.007 76.0518 30.4329 75.8394L59.0796 59.3878C59.2617 59.2838 59.413 59.1335 59.5181 58.9522C59.6231 58.7708 59.6782 58.5649 59.6777 58.3554V42.732L73.4019 34.8494C73.584 34.7454 73.7352 34.5951 73.8403 34.4138C73.9453 34.2325 74.0004 34.0266 74 33.8171V17.5045C74 17.2099 73.8227 16.7156 73.3911 16.4721L59.0689 8.24648C58.888 8.1421 58.6826 8.08715 58.4737 8.08715C58.2647 8.08715 58.0594 8.1421 57.8784 8.24648L43.5563 16.4721C43.1655 16.6943 42.961 17.057 42.961 17.5045V33.1279L31.0253 39.9837V9.4175C31.0253 9.05828 30.8143 8.59085 30.43 8.38527V8.38542ZM29.8184 56.9827L17.9047 50.2577L44.1434 35.1899L56.0681 42.0373L29.8184 56.9828V56.9827ZM57.2748 26.4195V39.9837L45.3366 33.1279V19.5638L57.2748 26.4193V26.4195ZM58.4682 10.6515L70.3982 17.5045L58.4682 24.3574L46.5381 17.5045L58.4682 10.6515ZM16.6923 48.2096V18.3325L28.6306 11.4768V41.3511L16.6923 48.2094V48.2096ZM15.4991 2.56758L27.4292 9.42047L15.499 16.2735L3.56894 9.42047L15.4991 2.56758ZM31.0145 72.7452V59.0448L57.275 44.0912V57.6638L31.0145 72.7451V72.7452ZM59.6614 39.9838V26.4196L71.5997 19.5638V33.1281L59.6614 39.9838ZM28.6361 59.0446V72.7425L2.36755 57.6637V11.4768L14.3056 18.3325V50.9557L28.6361 59.0446Z" fill="white"/>
</svg>
