<svg width="74" height="74" viewBox="0 0 74 74" fill="none" xmlns="http://www.w3.org/2000/svg">
<path d="M71.1538 0C70.696 0.00466575 70.2464 0.121963 69.8446 0.341538L19.9231 14.2308C19.1682 14.2308 18.4443 14.5306 17.9105 15.0644C17.3768 15.5981 17.0769 16.3221 17.0769 17.0769V52.8246C15.3529 51.8014 13.3893 51.2516 11.3846 51.2308C9.13296 51.2308 6.93186 51.8985 5.05967 53.1494C3.18748 54.4004 1.72828 56.1784 0.866607 58.2587C0.00493274 60.3389 -0.220521 62.628 0.218757 64.8364C0.658035 67.0448 1.74231 69.0734 3.33448 70.6655C4.92665 72.2577 6.95519 73.342 9.16359 73.7812C11.372 74.2205 13.6611 73.9951 15.7413 73.1334C17.8216 72.2717 19.5996 70.8125 20.8506 68.9403C22.1015 67.0681 22.7692 64.867 22.7692 62.6154V36.2031L68.3077 23.5662V44.2862C66.5837 43.2629 64.6201 42.7131 62.6154 42.6923C60.3637 42.6923 58.1626 43.36 56.2904 44.611C54.4182 45.8619 52.959 47.64 52.0974 49.7202C51.2357 51.8005 51.0102 54.0895 51.4495 56.2979C51.8888 58.5063 52.9731 60.5349 54.5653 62.1271C56.1574 63.7192 58.186 64.8035 60.3944 65.2428C62.6028 65.6821 64.8918 65.4566 66.9721 64.5949C69.0524 63.7333 70.8304 62.2741 72.0813 60.4019C73.3323 58.5297 74 56.3286 74 54.0769V2.84615C74 2.09131 73.7001 1.36738 73.1664 0.833619C72.6326 0.299862 71.9087 0 71.1538 0ZM68.3077 17.8738L22.7692 30.5108V19.1262L68.3077 6.48923V17.8738Z" fill="#006AFA"/>
</svg>
