<svg width="73" height="73" viewBox="0 0 73 73" fill="none" xmlns="http://www.w3.org/2000/svg">
<path fill-rule="evenodd" clip-rule="evenodd" d="M1.05055e-06 36.4949C0.000235117 30.1973 1.63023 24.0069 4.7315 18.5256C7.83277 13.0443 12.2998 8.45869 17.6981 5.21465C23.0965 1.97061 29.2426 0.17853 35.5387 0.0126631C41.8348 -0.153203 48.0667 1.31279 53.6284 4.26809C59.1901 7.2234 63.8924 11.5674 67.278 16.8778C70.6637 22.1882 72.6174 28.2842 72.9493 34.5731C73.2812 40.862 71.9799 47.1298 69.172 52.767C66.3641 58.4042 62.1452 63.2189 56.9254 66.7431L23.8807 20.4852C23.5813 20.0657 23.1564 19.7521 22.6672 19.5895C22.1781 19.427 21.6499 19.4241 21.1589 19.581C20.668 19.738 20.2395 20.0468 19.9354 20.4629C19.6312 20.8791 19.4671 21.381 19.4667 21.8964V58.3927H24.3333V29.4877L52.706 69.2054C47.1405 71.9629 40.9633 73.2547 34.759 72.9585C28.5548 72.6622 22.5288 70.7878 17.2514 67.5125C11.974 64.2372 7.61982 59.6695 4.60098 54.2417C1.58213 48.8139 -0.00148902 42.7056 1.05055e-06 36.4949ZM48.6667 48.6604V19.4633H53.5333V48.6604H48.6667Z" fill="white"/>
</svg>
