<?xml version="1.0" encoding="UTF-8"?>
<svg id="Layer_2" data-name="Layer 2" xmlns="http://www.w3.org/2000/svg" viewBox="0 0 556.63 430.12">
  <defs>
    <style>
      .cls-1 {
        fill: #486cea;
      }
    </style>
  </defs>
  <g id="Layer_1-2" data-name="Layer 1">
    <g>
      <path class="cls-1" d="m493.07,25.09v24.24c0,13.86-11.23,25.09-25.09,25.09h-27.86c-7.37,0-14.37-3.24-19.14-8.86l-48.07-56.69c-4.77-5.62-11.77-8.86-19.14-8.86h-54.78c-21.68,0-33.16,25.65-18.7,41.81l28.36,31.71,83.63,92.66c4.76,5.27,11.52,8.28,18.63,8.28h120.62c13.86,0,25.09-11.23,25.09-25.09V25.09c0-13.86-11.23-25.09-25.09-25.09h-13.38c-13.86,0-25.09,11.23-25.09,25.09Z"/>
      <path class="cls-1" d="m187.95,248.12l62-63.26c6.27-6.4,9.78-15,9.78-23.96v-44.18c0-8.04-2.83-15.81-7.98-21.98L182.71,12.26c-6.5-7.77-16.12-12.26-26.25-12.26H34.24C15.33,0,0,15.33,0,34.24v361.65c0,18.91,15.33,34.24,34.24,34.24h2.34c18.91,0,34.24-15.33,34.24-34.24v-46.73c0-18.91,15.33-34.24,34.24-34.24h12.84c9.2,0,18.01,3.7,24.45,10.27l35.96,36.7c6.29,6.42,9.81,15.06,9.78,24.04l-.02,9.87c-.04,18.94,15.3,34.32,34.24,34.32h0c18.91,0,34.24-15.33,34.24-34.24v-15.87c0-8.96-3.51-17.56-9.78-23.96l-58.81-60.01c-13.05-13.31-13.05-34.61,0-47.93Zm-57.91-24.01h0s-24.98,0-24.98,0c-18.91,0-34.24-15.33-34.24-34.24v-105.86c0-18.91,15.33-34.24,34.24-34.24h12.84c9.2,0,18.01,3.7,24.45,10.27l36,36.73c6.27,6.4,9.78,15,9.78,23.96v30.12c0,8.96-3.51,17.56-9.78,23.96l-48.3,49.29Z"/>
      <path class="cls-1" d="m338.44,163.8c-7.47-6.81-19-6.49-26.08.74l-98.95,100.97c-8.81,8.99-8.81,23.38,0,32.37l15.29,15.59c5.38,5.49,13.56,7.15,20.65,4.19l5.8-2.42c7.09-2.96,15.27-1.3,20.65,4.19l26.52,27.06c3.44,3.51,5.37,8.23,5.37,13.15v51.68c0,10.38,8.41,18.79,18.79,18.79h49.34c10.38,0,18.79-8.41,18.79-18.79v-188.03c0-5.29-2.23-10.33-6.13-13.89l-50.04-45.6Zm20.55,74.68l-2.83,53.63c-.84,15.85-19.72,23.58-31.44,12.88l-30.37-27.75c-7.85-7.17-8.19-19.43-.75-27.03l25.03-25.54c7.37-7.52,19.47-7.52,26.84,0l13.52,13.8h0Z"/>
      <path class="cls-1" d="m521.05,221.66l-20.02,44.78c-1.79,4.01-5.78,6.59-10.17,6.59h-13.07c-8,0-13.39-8.19-10.23-15.54l11.56-26.89c3.16-7.35-2.23-15.54-10.23-15.54h-30.93c-6.15,0-11.14,4.99-11.14,11.14v170.07c0,10.75,13.72,15.26,20.1,6.61l47.59-64.5c6.38-8.65,20.1-4.13,20.1,6.61v73.98c0,6.15,4.99,11.14,11.14,11.14h17.51c6.15,0,11.14-4.99,11.14-11.14v-192.78c0-6.15-4.99-11.14-11.14-11.14h-12.04c-4.39,0-8.38,2.58-10.17,6.59Z"/>
    </g>
  </g>
</svg>