<svg width="74" height="74" viewBox="0 0 74 74" fill="none" xmlns="http://www.w3.org/2000/svg">
<path fill-rule="evenodd" clip-rule="evenodd" d="M36.9889 44.1462V74C27.7655 73.9944 18.8766 70.5167 12.0636 64.2482C5.2505 57.9798 1.00425 49.3723 0.15668 40.112C-0.690887 30.8518 1.92131 21.6061 7.48153 14.1864C13.0417 6.76662 21.1493 1.70745 30.2158 0L36.9889 6.82905H55.4944C60.396 6.82904 65.0974 8.78972 68.5668 12.2808C72.0362 15.7719 73.9902 20.5082 74 25.4503V59.1104C73.9902 63.0628 72.4261 66.85 69.6508 69.6412C66.8755 72.4325 63.1155 74 59.1955 74V66.5366C61.1587 66.5366 63.0415 65.7502 64.4297 64.3506C65.8179 62.9509 66.5978 61.0526 66.5978 59.0731C66.5978 57.0937 65.8179 55.1953 64.4297 53.7957C63.0415 52.396 61.1587 51.6097 59.1955 51.6097H44.3911L36.9889 44.1462ZM57.345 32.9511C58.8174 32.9511 60.2295 32.3613 61.2706 31.3116C62.3117 30.2618 62.8967 28.8381 62.8967 27.3535C62.8967 25.8689 62.3117 24.4452 61.2706 23.3954C60.2295 22.3457 58.8174 21.7559 57.345 21.7559C55.8726 21.7559 54.4605 22.3457 53.4194 23.3954C52.3782 24.4452 51.7933 25.8689 51.7933 27.3535C51.7933 28.8381 52.3782 30.2618 53.4194 31.3116C54.4605 32.3613 55.8726 32.9511 57.345 32.9511Z" fill="white"/>
</svg>
