<svg width="75" height="75" viewBox="0 0 75 75" fill="none" xmlns="http://www.w3.org/2000/svg">
<path d="M46.5813 0.724164C43.5105 0.218708 39.0159 -0.014198 35.965 0.000668318C33.1054 0.00397853 30.2511 0.245984 27.4318 0.724164C19.8763 2.04562 18.5004 4.80415 18.5004 9.89836V15.8581H37.0007V18.501H12.4911C5.62611 18.501 0.0545342 26.7056 2.41945e-05 36.856V37.0014C-0.00235559 38.776 0.170827 40.5466 0.517043 42.2872C2.05158 49.9318 6.83194 55.5017 12.4911 55.5017H15.8575V46.5819C15.8575 41.4117 19.2999 36.6793 24.9425 35.6634L26.5728 35.4602H46.5813C47.4216 35.4635 48.2585 35.3524 49.0689 35.1299C50.9216 34.6351 52.5581 33.54 53.722 32.0159C54.8859 30.4919 55.5115 28.6249 55.5011 26.7072V9.89836C55.5011 5.1213 51.4244 1.51869 46.5813 0.724164ZM26.9131 12.1415C26.2466 12.1438 25.5945 11.9481 25.0394 11.5793C24.4843 11.2104 24.0512 10.6851 23.7951 10.0698C23.539 9.45446 23.4714 8.77696 23.6009 8.12319C23.7303 7.46942 24.051 6.86882 24.5223 6.39755C24.9936 5.92629 25.5942 5.60559 26.2479 5.47613C26.9017 5.34667 27.5792 5.41428 28.1945 5.67038C28.8098 5.92648 29.3352 6.35954 29.704 6.91464C30.0729 7.46974 30.2686 8.12187 30.2663 8.78833C30.2665 9.22874 30.1799 9.66488 30.0115 10.0718C29.843 10.4787 29.596 10.8485 29.2846 11.1599C28.9732 11.4713 28.6035 11.7183 28.1965 11.8867C27.7896 12.0552 27.3535 12.1417 26.9131 12.1415Z" fill="white"/>
<path d="M73.2217 30.5592C71.4543 23.5208 66.8771 18.501 61.5104 18.501H58.585V26.3388C58.585 32.8751 54.2903 37.6075 49.0474 38.4186C48.5178 38.5007 47.9827 38.5421 47.4468 38.5425H27.4334C26.5845 38.5417 25.739 38.6499 24.9177 38.8646C21.2325 39.8325 18.5004 42.8983 18.5004 46.8742V63.6848C18.5004 68.475 23.3137 71.2831 28.0363 72.6558C33.6872 74.2994 39.8435 74.5967 46.606 72.6558C51.0973 71.3723 55.5011 68.7773 55.5011 63.6848V58.1446H37.0007V55.5017H61.5104C66.3733 55.5017 70.5871 51.3837 72.6519 45.3744C73.5586 42.6765 74.0146 39.8475 74.0014 37.0013C74.0061 34.8302 73.7442 32.6666 73.2217 30.5592ZM46.9958 61.4482C47.6623 61.4459 48.3144 61.6416 48.8695 62.0105C49.4246 62.3793 49.8577 62.9047 50.1138 63.52C50.3699 64.1353 50.4375 64.8128 50.3081 65.4665C50.1786 66.1203 49.8579 66.7209 49.3866 67.1922C48.9154 67.6635 48.3148 67.9841 47.661 68.1136C47.0072 68.2431 46.3297 68.1755 45.7144 67.9194C45.0991 67.6633 44.5737 67.2302 44.2049 66.6751C43.8361 66.12 43.6404 65.4679 43.6427 64.8014C43.6424 64.361 43.729 63.9249 43.8975 63.5179C44.0659 63.111 44.3129 62.7413 44.6243 62.4299C44.9357 62.1184 45.3055 61.8715 45.7124 61.703C46.1193 61.5346 46.5554 61.448 46.9958 61.4482Z" fill="white"/>
</svg>
