<svg width="74" height="44" viewBox="0 0 74 44" fill="none" xmlns="http://www.w3.org/2000/svg">
<path d="M37 0C27.121 0 20.979 4.87667 18.5 14.6667C22.2 9.79 26.529 7.95667 31.45 9.16667C34.262 9.86333 36.297 11.88 38.517 14.1167C42.143 17.7833 46.25 22 55.5 22C65.379 22 71.521 17.1233 74 7.33333C70.3 12.21 65.971 14.0433 61.05 12.8333C58.238 12.1367 56.24 10.12 53.983 7.88333C50.357 4.21667 46.25 0 37 0ZM18.5 22C8.621 22 2.479 26.8767 0 36.6667C3.7 31.79 8.029 29.9567 12.95 31.1667C15.762 31.8633 17.76 33.88 20.017 36.1167C23.643 39.7833 27.75 44 37 44C46.879 44 53.021 39.1233 55.5 29.3333C51.8 34.21 47.471 36.0433 42.55 34.8333C39.738 34.1367 37.74 32.12 35.483 29.8833C31.857 26.2167 27.75 22 18.5 22Z" fill="white"/>
</svg>
