<svg width="74" height="74" viewBox="0 0 74 74" fill="none" xmlns="http://www.w3.org/2000/svg">
<path d="M0 0H74V74H0V0ZM44.03 61.0911C46.0856 65.12 50.2378 68.2033 56.7333 68.2033C63.3111 68.2033 68.2444 64.7911 68.2444 58.5011C68.2444 52.7044 64.9144 50.1144 58.9944 47.5656L57.2678 46.8256C54.2667 45.5511 52.9922 44.6878 52.9922 42.6322C52.9922 40.9467 54.2667 39.6311 56.3222 39.6311C58.2956 39.6311 59.6111 40.4944 60.8033 42.6322L66.1889 39.0556C63.9278 35.1089 60.7211 33.5878 56.3222 33.5878C50.1144 33.5878 46.1267 37.5344 46.1267 42.7556C46.1267 48.4289 49.4567 51.1011 54.4722 53.2389L56.1989 53.9789C59.4056 55.3767 61.2967 56.24 61.2967 58.6244C61.2967 60.5978 59.4467 62.0367 56.5689 62.0367C53.1567 62.0367 51.1833 60.2689 49.7033 57.8022L44.03 61.0911ZM41.1111 33.9167H20.5556V40.0833H26.7222V69.8889H33.9167V40.0833H41.1111V33.9167Z" fill="white"/>
</svg>
