<svg width="52" height="74" viewBox="0 0 52 74" fill="none" xmlns="http://www.w3.org/2000/svg">
<path fill-rule="evenodd" clip-rule="evenodd" d="M52 25.8989C52.0028 30.0749 50.9907 34.1896 49.0503 37.8912C47.1099 41.5929 44.2988 44.7717 40.8571 47.1559V74H31.252L26 68.7681L20.748 74H11.1429V47.1559C7.47403 44.611 4.52591 41.1668 2.58319 37.1557C0.640469 33.1446 -0.2312 28.7023 0.0523575 24.2578C0.335915 19.8132 1.76512 15.5166 4.20195 11.7828C6.63878 8.04902 10.0009 5.00425 13.9636 2.94255C17.9263 0.880838 22.3558 -0.128151 26.8242 0.0130178C31.2925 0.154187 35.6489 1.44074 39.4725 3.74844C43.2961 6.05614 46.4578 9.30701 48.6522 13.1871C50.8467 17.0672 51.9997 21.4454 52 25.8989ZM44.5714 25.8989C44.5714 30.8056 42.6148 35.5112 39.132 38.9807C35.6492 42.4502 30.9254 44.3994 26 44.3994C21.0746 44.3994 16.3508 42.4502 12.868 38.9807C9.3852 35.5112 7.42858 30.8056 7.42858 25.8989C7.42858 20.9923 9.3852 16.2867 12.868 12.8172C16.3508 9.34769 21.0746 7.39855 26 7.39855C30.9254 7.39855 35.6492 9.34769 39.132 12.8172C42.6148 16.2867 44.5714 20.9923 44.5714 25.8989ZM18.5714 65.7007L26 58.3006L33.4286 65.7007V50.7265C31.0175 51.4402 28.5153 51.8016 26 51.7995C23.4847 51.8016 20.9825 51.4402 18.5714 50.7265V65.7007Z" fill="white"/>
</svg>
