<svg width="66" height="75" viewBox="0 0 66 75" fill="none" xmlns="http://www.w3.org/2000/svg">
<path d="M1.62583 37.4596C0.541941 36.3651 0 34.9722 0 33.2808C0 31.5894 0.541941 30.1965 1.62583 29.1021L28.8215 1.64165C29.4127 1.04469 30.0532 0.622832 30.7429 0.376087C31.4327 0.129341 32.1717 0.00397977 32.96 0C33.7483 0 34.4873 0.125361 35.177 0.376087C35.8668 0.626812 36.5072 1.04867 37.0985 1.64165L64.2941 29.1021C65.378 30.1965 65.9456 31.5655 65.9968 33.2092C66.0481 34.8528 65.4805 36.2696 64.2941 37.4596C63.2102 38.554 61.8308 39.1012 60.1557 39.1012C58.4806 39.1012 57.1011 38.554 56.0172 37.4596L32.96 14.3272L9.90278 37.4596C8.81889 38.554 7.46305 39.1271 5.83525 39.1788C4.20745 39.2306 2.80431 38.6575 1.62583 37.4596ZM1.62583 73.2775C0.541941 72.1831 0 70.7902 0 69.0988C0 67.4074 0.541941 66.0144 1.62583 64.92L28.8215 37.4596C29.4127 36.8626 30.0532 36.4408 30.7429 36.194C31.4327 35.9473 32.1717 35.8219 32.96 35.8179C33.7483 35.8179 34.4873 35.9433 35.177 36.194C35.8668 36.4447 36.5072 36.8666 37.0985 37.4596L64.2941 64.92C65.378 66.0144 65.9456 67.3835 65.9968 69.0271C66.0481 70.6708 65.4805 72.0876 64.2941 73.2775C63.2102 74.372 61.8308 74.9192 60.1557 74.9192C58.4806 74.9192 57.1011 74.372 56.0172 73.2775L32.96 50.1451L9.90278 73.2775C8.81889 74.372 7.46305 74.945 5.83525 74.9968C4.20745 75.0485 2.80431 74.4754 1.62583 73.2775Z" fill="white"/>
</svg>
