<svg width="74" height="74" viewBox="0 0 74 74" fill="none" xmlns="http://www.w3.org/2000/svg">
<path d="M37 0C29.6821 0 22.5285 2.17001 16.4439 6.23562C10.3593 10.3012 5.61691 16.0798 2.81647 22.8407C0.0160309 29.6016 -0.716692 37.041 0.710961 44.2183C2.13861 51.3956 5.66252 57.9884 10.8371 63.1629C16.0116 68.3375 22.6044 71.8614 29.7817 73.289C36.959 74.7167 44.3984 73.984 51.1593 71.1835C57.9202 68.3831 63.6988 63.6407 67.7644 57.5561C71.83 51.4715 74 44.3179 74 37C73.9885 27.1905 70.0866 17.7861 63.1502 10.8498C56.2139 3.91342 46.8095 0.0115202 37 0ZM66.5891 23.2157H52.014C50.4279 16.6369 47.5351 10.4442 43.5077 5.00588C48.5076 6.03336 53.1982 8.21487 57.2056 11.3764C61.213 14.538 64.4262 18.5922 66.5891 23.2157ZM69.6471 37C69.6495 40.1949 69.1814 43.3728 68.2577 46.4314H52.91C53.9451 40.1864 53.9451 33.8136 52.91 27.5686H68.2577C69.1814 30.6272 69.6495 33.805 69.6471 37ZM37 69.647C36.9096 69.6475 36.82 69.6287 36.7375 69.5918C36.6549 69.5549 36.5811 69.5008 36.5212 69.433C31.849 64.4018 28.4175 57.9413 26.4804 50.7843H47.5196C45.5826 57.9413 42.151 64.4018 37.4788 69.433C37.4189 69.5008 37.3451 69.5549 37.2626 69.5918C37.18 69.6287 37.0905 69.6475 37 69.647ZM25.5046 46.4314C24.3874 40.1934 24.3874 33.8066 25.5046 27.5686H48.4954C49.6126 33.8066 49.6126 40.1934 48.4954 46.4314H25.5046ZM4.35296 37C4.35051 33.805 4.81864 30.6272 5.74227 27.5686H21.09C20.0549 33.8136 20.0549 40.1864 21.09 46.4314H5.74227C4.81864 43.3728 4.35051 40.1949 4.35296 37ZM37 4.35294C37.0905 4.35244 37.18 4.37128 37.2626 4.40819C37.3451 4.4451 37.4189 4.49923 37.4788 4.56696C42.151 9.59823 45.5826 16.0587 47.5196 23.2157H26.4804C28.4175 16.0587 31.849 9.59823 36.5212 4.56696C36.5811 4.49923 36.6549 4.4451 36.7375 4.40819C36.82 4.37128 36.9096 4.35244 37 4.35294ZM30.4924 5.00588C26.4649 10.4442 23.5721 16.6369 21.986 23.2157H7.4109C9.57377 18.5922 12.787 14.538 16.7944 11.3764C20.8018 8.21487 25.4925 6.03336 30.4924 5.00588ZM7.4109 50.7843H21.986C23.5721 57.3631 26.4649 63.5558 30.4924 68.9941C25.4925 67.9666 20.8018 65.7851 16.7944 62.6235C12.787 59.462 9.57377 55.4078 7.4109 50.7843ZM43.5077 68.9941C47.5351 63.5558 50.4279 57.3631 52.014 50.7843H66.5891C64.4262 55.4078 61.213 59.462 57.2056 62.6235C53.1982 65.7851 48.5076 67.9666 43.5077 68.9941Z" fill="#525252"/>
</svg>
