<svg width="74" height="74" viewBox="0 0 74 74" fill="none" xmlns="http://www.w3.org/2000/svg">
<path d="M56.758 12.802C55.8799 12.802 55.0214 13.0624 54.2913 13.5503C53.5611 14.0381 52.992 14.7316 52.656 15.5429C52.3199 16.3542 52.232 17.2469 52.4033 18.1082C52.5746 18.9695 52.9975 19.7606 53.6184 20.3816C54.2394 21.0025 55.0305 21.4254 55.8918 21.5967C56.7531 21.768 57.6458 21.6801 58.4571 21.344C59.2684 21.008 59.9618 20.4389 60.4497 19.7087C60.9376 18.9786 61.198 18.1201 61.198 17.242C61.198 16.0644 60.7302 14.9351 59.8976 14.1024C59.0649 13.2698 57.9356 12.802 56.758 12.802ZM73.778 21.756C73.706 18.6861 73.1311 15.6488 72.076 12.765C71.1352 10.2976 69.6709 8.06333 67.784 6.216C65.9518 4.31948 63.7124 2.86445 61.235 1.961C58.3588 0.873795 55.3181 0.285677 52.244 0.222C48.322 -2.06754e-07 47.064 0 37 0C26.936 0 25.678 -2.06754e-07 21.756 0.222C18.6819 0.285677 15.6412 0.873795 12.765 1.961C10.2922 2.8736 8.05466 4.32737 6.216 6.216C4.31948 8.04816 2.86445 10.2876 1.961 12.765C0.873795 15.6412 0.285677 18.6819 0.222 21.756C-2.06754e-07 25.678 0 26.936 0 37C0 47.064 -2.06754e-07 48.322 0.222 52.244C0.285677 55.3181 0.873795 58.3588 1.961 61.235C2.86445 63.7124 4.31948 65.9518 6.216 67.784C8.05466 69.6726 10.2922 71.1264 12.765 72.039C15.6412 73.1262 18.6819 73.7143 21.756 73.778C25.678 74 26.936 74 37 74C47.064 74 48.322 74 52.244 73.778C55.3181 73.7143 58.3588 73.1262 61.235 72.039C63.7124 71.1355 65.9518 69.6805 67.784 67.784C69.6793 65.9435 71.1448 63.7073 72.076 61.235C73.1311 58.3512 73.706 55.3139 73.778 52.244C73.778 48.322 74 47.064 74 37C74 26.936 74 25.678 73.778 21.756ZM67.118 51.8C67.0911 54.1487 66.6657 56.4757 65.86 58.682C65.2692 60.2922 64.3204 61.7472 63.085 62.937C61.8849 64.1599 60.4329 65.1068 58.83 65.712C56.6237 66.5177 54.2967 66.9431 51.948 66.97C48.248 67.155 46.879 67.192 37.148 67.192C27.417 67.192 26.048 67.192 22.348 66.97C19.9093 67.0157 17.481 66.6402 15.17 65.86C13.6374 65.2239 12.252 64.2793 11.1 63.085C9.87193 61.8964 8.93492 60.4402 8.362 58.83C7.45867 56.5921 6.95764 54.2122 6.882 51.8C6.882 48.1 6.66 46.731 6.66 37C6.66 27.269 6.66 25.9 6.882 22.2C6.89858 19.7989 7.33692 17.4194 8.177 15.17C8.82837 13.6083 9.82818 12.2161 11.1 11.1C12.2241 9.82782 13.6134 8.81745 15.17 8.14C17.4253 7.32616 19.8024 6.90079 22.2 6.882C25.9 6.882 27.269 6.66 37 6.66C46.731 6.66 48.1 6.66 51.8 6.882C54.1487 6.90894 56.4757 7.33431 58.682 8.14C60.3634 8.76401 61.8725 9.77853 63.085 11.1C64.2975 12.2366 65.2449 13.6261 65.86 15.17C66.6823 17.4231 67.108 19.8016 67.118 22.2C67.303 25.9 67.34 27.269 67.34 37C67.34 46.731 67.303 48.1 67.118 51.8ZM37 18.019C33.2475 18.0263 29.5814 19.1457 26.4648 21.2358C23.3483 23.3259 20.9212 26.2929 19.4902 29.7619C18.0593 33.2309 17.6887 37.0461 18.4252 40.7256C19.1618 44.4052 20.9725 47.7838 23.6285 50.4346C26.2845 53.0855 29.6666 54.8896 33.3476 55.6189C37.0285 56.3483 40.8431 55.9703 44.3092 54.5326C47.7754 53.0949 50.7376 50.662 52.8217 47.5414C54.9057 44.4208 56.018 40.7525 56.018 37C56.0229 34.5029 55.5341 32.0294 54.5796 29.7219C53.6251 27.4144 52.2239 25.3184 50.4564 23.5544C48.689 21.7904 46.5902 20.3932 44.2809 19.4432C41.9715 18.4933 39.4971 18.0092 37 18.019ZM37 49.321C34.5631 49.321 32.181 48.5984 30.1548 47.2445C28.1286 45.8907 26.5494 43.9664 25.6169 41.715C24.6843 39.4637 24.4403 36.9863 24.9157 34.5963C25.3912 32.2063 26.5646 30.0109 28.2877 28.2877C30.0109 26.5646 32.2063 25.3912 34.5963 24.9157C36.9863 24.4403 39.4637 24.6843 41.715 25.6169C43.9664 26.5494 45.8907 28.1286 47.2445 30.1548C48.5984 32.181 49.321 34.5631 49.321 37C49.321 38.618 49.0023 40.2202 48.3831 41.715C47.7639 43.2099 46.8564 44.5682 45.7123 45.7123C44.5682 46.8564 43.2099 47.7639 41.715 48.3831C40.2202 49.0023 38.618 49.321 37 49.321Z" fill="#5349CE"/>
</svg>
