<svg width="32" height="9" viewBox="0 0 32 9" fill="none" xmlns="http://www.w3.org/2000/svg">
<path fill-rule="evenodd" clip-rule="evenodd" d="M2.69374 0.332164C3.49109 0.00189069 4.36848 -0.0845238 5.21494 0.083848C6.0614 0.25222 6.83893 0.667817 7.44919 1.27808C8.05946 1.88835 8.47505 2.66587 8.64343 3.51233C8.8118 4.3588 8.72538 5.23618 8.39511 6.03353C8.06484 6.83088 7.50554 7.51239 6.78794 7.99187C6.07034 8.47135 5.22668 8.72727 4.36364 8.72727C3.70637 8.72727 3.17355 8.19446 3.17355 7.53719C3.17355 6.87993 3.70637 6.34711 4.36364 6.34711C4.75593 6.34711 5.13941 6.23078 5.46559 6.01283C5.79177 5.79489 6.046 5.48511 6.19612 5.12268C6.34625 4.76025 6.38553 4.36144 6.30899 3.97668C6.23246 3.59193 6.04355 3.23851 5.76616 2.96111C5.48877 2.68372 5.13535 2.49481 4.75059 2.41828C4.36584 2.34175 3.96703 2.38103 3.60459 2.53115C3.24216 2.68127 2.93239 2.9355 2.71444 3.26168C2.49649 3.58786 2.38016 3.97134 2.38016 4.36364C2.38016 5.0209 1.84735 5.55372 1.19008 5.55372C0.532818 5.55372 0 5.0209 0 4.36364C0 3.50059 0.255923 2.65693 0.735405 1.93933C1.21489 1.22174 1.89639 0.662437 2.69374 0.332164Z" fill="#486cea"/>
<path fill-rule="evenodd" clip-rule="evenodd" d="M16 2.38017C14.9046 2.38017 14.0165 3.2682 14.0165 4.36364C14.0165 5.45908 14.9046 6.34711 16 6.34711C17.0954 6.34711 17.9835 5.45908 17.9835 4.36364C17.9835 3.2682 17.0954 2.38017 16 2.38017ZM11.6364 4.36364C11.6364 1.95367 13.59 0 16 0C18.41 0 20.3636 1.95367 20.3636 4.36364C20.3636 6.77361 18.41 8.72727 16 8.72727C13.59 8.72727 11.6364 6.77361 11.6364 4.36364Z" fill="#486cea"/>
<path fill-rule="evenodd" clip-rule="evenodd" d="M27.6364 2.38016C27.2441 2.38016 26.8606 2.49649 26.5344 2.71444C26.2082 2.93239 25.954 3.24216 25.8039 3.60459C25.6538 3.96703 25.6145 4.36584 25.691 4.75059C25.7675 5.13535 25.9565 5.48877 26.2338 5.76616C26.5112 6.04355 26.8647 6.23246 27.2494 6.30899C27.6342 6.38553 28.033 6.34625 28.3954 6.19612C28.7578 6.046 29.0676 5.79177 29.2856 5.46559C29.5035 5.13941 29.6198 4.75593 29.6198 4.36364C29.6198 3.70637 30.1527 3.17355 30.8099 3.17355C31.4672 3.17355 32 3.70637 32 4.36364C32 5.22668 31.7441 6.07034 31.2646 6.78794C30.7851 7.50554 30.1036 8.06484 29.3063 8.39511C28.5089 8.72538 27.6315 8.8118 26.7851 8.64343C25.9386 8.47505 25.1611 8.05945 24.5508 7.44919C23.9406 6.83893 23.525 6.0614 23.3566 5.21494C23.1882 4.36848 23.2746 3.4911 23.6049 2.69374C23.9352 1.8964 24.4945 1.21489 25.2121 0.735405C25.9297 0.255923 26.7733 0 27.6364 0C28.2936 0 28.8265 0.532818 28.8265 1.19008C28.8265 1.84735 28.2936 2.38016 27.6364 2.38016Z" fill="#486cea"/>
</svg>
